/* XPM */
static char * angle_xpm[] = {
"48 48 201 2",
"  	c None",
". 	c #000000",
"+ 	c #0C0C0C",
"@ 	c #4C4C4C",
"# 	c #545454",
"$ 	c #353535",
"% 	c #0A0A0A",
"& 	c #101010",
"* 	c #383838",
"= 	c #343434",
"- 	c #212121",
"; 	c #5E5E5E",
"> 	c #3B3A37",
", 	c #1F1E1B",
"' 	c #0B0B0A",
") 	c #010101",
"! 	c #1E1E1D",
"~ 	c #3A3A3A",
"{ 	c #373737",
"] 	c #2B2B2B",
"^ 	c #686868",
"/ 	c #272727",
"( 	c #1C1A13",
"_ 	c #574D22",
": 	c #897828",
"< 	c #A69441",
"[ 	c #C1AA41",
"} 	c #AB9635",
"| 	c #847535",
"1 	c #544C29",
"2 	c #1D1B10",
"3 	c #282724",
"4 	c #686867",
"5 	c #717171",
"6 	c #474227",
"7 	c #DEBC25",
"8 	c #E1BE1D",
"9 	c #DFBD23",
"0 	c #E2BE1B",
"a 	c #E2BE1C",
"b 	c #E0BD1F",
"c 	c #4D441A",
"d 	c #1E1E1C",
"e 	c #717170",
"f 	c #1B1B1B",
"g 	c #535353",
"h 	c #434341",
"i 	c #3E381F",
"j 	c #B0982A",
"k 	c #DFBD21",
"l 	c #E1BD1C",
"m 	c #DAB821",
"n 	c #D0B22A",
"o 	c #B59F3A",
"p 	c #B9A12F",
"q 	c #C4A826",
"r 	c #D1B227",
"s 	c #DDBB21",
"t 	c #B49922",
"u 	c #3D3820",
"v 	c #434342",
"w 	c #525252",
"x 	c #222222",
"y 	c #282725",
"z 	c #E0BD20",
"A 	c #E0BD1E",
"B 	c #D9B720",
"C 	c #CBAD21",
"D 	c #A58D21",
"E 	c #9B8522",
"F 	c #927E21",
"G 	c #917D22",
"H 	c #917D23",
"I 	c #9F8820",
"J 	c #B29924",
"K 	c #D4B529",
"L 	c #D5B938",
"M 	c #292821",
"N 	c #1F1E1C",
"O 	c #131109",
"P 	c #AA901C",
"Q 	c #D3B52A",
"R 	c #B49A24",
"S 	c #A1891F",
"T 	c #756519",
"U 	c #463C11",
"V 	c #25200A",
"W 	c #0D0C04",
"X 	c #020201",
"Y 	c #0E0C06",
"Z 	c #262212",
"` 	c #494223",
" .	c #736522",
"..	c #9F8921",
"+.	c #C1A836",
"@.	c #DDBC27",
"#.	c #151206",
"$.	c #221F15",
"%.	c #0E0E0E",
"&.	c #141208",
"*.	c #B89B19",
"=.	c #E0BD1D",
"-.	c #D3B425",
";.	c #675918",
">.	c #242009",
",.	c #201E12",
"'.	c #514E3C",
").	c #787464",
"!.	c #565240",
"~.	c #939185",
"{.	c #434137",
"].	c #54534F",
"^.	c #232221",
"/.	c #25210D",
"(.	c #BDA331",
"_.	c #D8B92B",
":.	c #151204",
"<.	c #2C291C",
"[.	c #515151",
"}.	c #D1B226",
"|.	c #A68F23",
"1.	c #3B330E",
"2.	c #2C291B",
"3.	c #797667",
"4.	c #52514F",
"5.	c #505050",
"6.	c #3D3D3B",
"7.	c #2E2C26",
"8.	c #3B320D",
"9.	c #988321",
"0.	c #B59C29",
"a.	c #DDBB23",
"b.	c #474439",
"c.	c #363636",
"d.	c #806E20",
"e.	c #D3B429",
"f.	c #968121",
"g.	c #252008",
"h.	c #5E5B49",
"i.	c #A4A39E",
"j.	c #626262",
"k.	c #241F09",
"l.	c #8B771F",
"m.	c #C4A82A",
"n.	c #877110",
"o.	c #71716F",
"p.	c #1E1E1E",
"q.	c #302C1D",
"r.	c #E1BD1B",
"s.	c #DBBA23",
"t.	c #241F08",
"u.	c #090803",
"v.	c #767159",
"w.	c #A4A4A0",
"x.	c #7C7C7C",
"y.	c #0A0905",
"z.	c #D5B527",
"A.	c #423A15",
"B.	c #111111",
"C.	c #CAAC24",
"D.	c #767055",
"E.	c #A4A39F",
"F.	c #B29B30",
"G.	c #DFBC20",
"H.	c #060606",
"I.	c #4C431C",
"J.	c #DDBC26",
"K.	c #5C5538",
"L.	c #51514F",
"M.	c #434032",
"N.	c #AC9117",
"O.	c #E1BE1E",
"P.	c #CAAF31",
"Q.	c #25210C",
"R.	c #2B2715",
"S.	c #A29F93",
"T.	c #2F2F2F",
"U.	c #B59E35",
"V.	c #938750",
"W.	c #696247",
"X.	c #221D06",
"Y.	c #DBBA2A",
"Z.	c #928651",
"`.	c #847D5C",
" +	c #A38C1D",
".+	c #DFBC1F",
"++	c #1A1A17",
"@+	c #3E3C2E",
"#+	c #66591D",
"$+	c #302806",
"%+	c #232013",
"&+	c #927C13",
"*+	c #7A714B",
"=+	c #0C0B09",
"-+	c #9E8410",
";+	c #C1A113",
">+	c #0B0B0B",
",+	c #937D1E",
"'+	c #A8901F",
")+	c #958021",
"!+	c #877520",
"                                                                                                ",
"                                                                                                ",
"                                                                                  .             ",
"                                              .                                 .               ",
"                                            .   .                             .                 ",
"                                            .   .                           .                   ",
"                        .       . . . .       .                           .                     ",
"                      .         .                                       .                       ",
"                    .           .                                     .                         ",
"                    .   .       . . .                               .                           ",
"                    . . . . .         .                           .                             ",
"                        .             .                         .                               ",
"                        .       . . .                         .                                 ",
"                                                            . + . . .                           ",
"                                                          .   . . .                             ",
"                                                        .     . . @ .                           ",
"                                                      .       .     # .                         ",
"                                                    .                 @ .                       ",
"                                                  .                     $ %                     ",
"                                                .                         & *                   ",
"                                              .                             .                   ",
"                                            .                               = -                 ",
"                                          .                                   .                 ",
"                            ; > , ' ) ) ' ! ~ ;                               { ]               ",
"                      ^ / . ( _ : < . [ } | 1 2 . 3 4                           .               ",
"                  5 ! . 6 . 7 8 8 8 . 9 8 0 a b . c . d e                       f g             ",
"                h . i j k l . l m n . o p q r . s 0 t u . v                     w x             ",
"              y . . z A s B C . D E F G H F . I J K 0 L . . M                     .             ",
"            N O P a . Q R S T U V W X X Y Z `  .F ..+.. @.P #.$.                  %.            ",
"          y &.*.l =.-.. ;.>.. ,.'.).!.~.{.].^.. /.;.. (._.A *.:.<.                = [.          ",
"        v . . 0 =.}.|.1.. 2.3.4.  5.  5.  5.  6.7.. 8.9.0.a.a . . b.              # c.          ",
"      5 . d.0 . e.f.g.. h.i.5.  5.  5.  5.  5.  5.j.. k.l.m.. a n.. o.              -           ",
"      p.q.b r.s.. t.u.v.w.5.                  5.  5.x.y.k.. z.0 0 A.N               B.          ",
"    4 . . 0 r.C.8.. D.E.5.                      5.  5.x.. 8.F.G.. . . ^             H.          ",
"    M I.J.. . . . K.E.5.                          5.  L.j.. . . 0 @.M./             )           ",
"    . N.O.a P.Q.R.S.5.                              5.  5.T.k.U.8 a V..             )           ",
"  W.X.a k Y.Z.. `.5.  5.                              5.  x..  +.+0 r.++;           H.          ",
"  @+. . . 9 #+. . . . . . . . . . . . . . . . . . . . . . . $+0 0 . . . .       . . . . .       ",
"  %+&+0 a 0 0 a 0 a 0 0 0 0 0 0 0 a a 0 z k a 8 0 0 a 0 a k r.r.r.r.a *+p.      . . . . .       ",
"  =+-+;+;+;+;+;+;+;+;+;+;+;+;+;+;+;+;+;+;+;+;+;+;+;+;+;+;+;+;+;+;+;+;+-+>+        . . .         ",
"  ) ,+I '+)+G G G G G G G G G G G G G G G G G G G G G G G G G G G G G !+)           .           ",
"  . . . . . . . . . . . . . . . . . . . . . . . . . . . . . . . . . . . . . . . . . . . . . .   ",
"  5.  5.  5.  5.  5.  5.  5.  5.  5.  5.  5.  5.  5.  5.  5.  5.  5.  5.                        ",
"    5.  5.  5.  5.  5.  5.  5.  5.  5.  5.  5.  5.  5.  5.  5.  5.  5.  5.                      ",
"  5.  5.  5.  5.  5.  5.  5.  5.  5.  5.  5.  5.  5.  5.  5.  5.  5.  5.                        ",
"                                                                                                ",
"                                                                                                ",
"                                                                                                "};
