/* XPM */
static char * axial_symetry_xpm[] = {
"48 48 11 1",
" 	c None",
".	c #000000",
"+	c #F76F6F",
"@	c #BC2121",
"#	c #DB2525",
"$	c #600D0D",
"%	c #5E5E5E",
"&	c #636363",
"*	c #6E6C6A",
"=	c #4E7A3B",
"-	c #2F4C22",
"                                                ",
"                                                ",
"                                                ",
"                                                ",
"                                                ",
"                                                ",
"                                                ",
"                                  ..            ",
"          +                      ...            ",
"         @#+                 ... ...            ",
"         $@#+                ......             ",
"          $@#+               ......             ",
"         % $@#+            &  .....             ",
"        % % $@#+          & & ......            ",
"         % % $@#+          & ........           ",
"          % % $@#+          ..... ..            ",
"           % % $@#+         .... &              ",
"            % % $@#+      . ... & &             ",
"             % % $@#+    . & & & &              ",
"              % % $@#+  . & & & & &             ",
"               % % $@#+.   & &                  ",
"                % % $@.+  * &                   ",
"                 % % .@#+                       ",
"                  % . $@#+                      ",
"                 . . % $@#+                     ",
"                 .. % % $@#+                    ",
"                .... % % $@#+                   ",
"             =- ..    % % $@#+                  ",
"            ==-        % % $@#+                 ",
"        -== =--         % % $@#+                ",
"        -====-           % % $@#+               ",
"        --===-            % % $@#+              ",
"      &  -===-             % % $@#+             ",
"     & & -=====             % % $@#+            ",
"      & ===---==             % % $@#+           ",
"       ====- --               % % $@#+          ",
"       ==-- &                  % % $@#+         ",
"       --- & &                  % % $@#+        ",
"      & & & &                    % % $@#        ",
"     & & & &                      % % $ %       ",
"      & &                          % % %        ",
"     * &                            % %         ",
"                                     %          ",
"                                                ",
"                                                ",
"                                                ",
"                                                ",
"                                                "};
