/* XPM */
static char * build_macro_xpm[] = {
"48 48 622 2",
"  	c None",
". 	c #000000",
"+ 	c #2E2E31",
"@ 	c #494B53",
"# 	c #575966",
"$ 	c #3B3C3F",
"% 	c #3A3A3A",
"& 	c #1B1B1B",
"* 	c #333437",
"= 	c #323238",
"- 	c #232328",
"; 	c #060606",
"> 	c #3C3C3D",
", 	c #1D1D1D",
"' 	c #6B6D7B",
") 	c #8F93A9",
"! 	c #9296AC",
"~ 	c #85899C",
"{ 	c #222124",
"] 	c #676767",
"^ 	c #2E2D32",
"/ 	c #9B9FB6",
"( 	c #8D90A6",
"_ 	c #8A8EA2",
": 	c #727586",
"< 	c #121212",
"[ 	c #2B2B2B",
"} 	c #232323",
"| 	c #4E4E4E",
"1 	c #5D5D5D",
"2 	c #2A2A2A",
"3 	c #17181A",
"4 	c #646568",
"5 	c #424247",
"6 	c #464953",
"7 	c #676878",
"8 	c #85889D",
"9 	c #8C8FA5",
"0 	c #52535C",
"a 	c #454545",
"b 	c #434343",
"c 	c #55555F",
"d 	c #8E91A7",
"e 	c #82859A",
"f 	c #86899E",
"g 	c #828497",
"h 	c #141417",
"i 	c #595959",
"j 	c #212121",
"k 	c #595961",
"l 	c #57595F",
"m 	c #313132",
"n 	c #282828",
"o 	c #464646",
"p 	c #656565",
"q 	c #1C1C1C",
"r 	c #343437",
"s 	c #828498",
"t 	c #6E7281",
"u 	c #18191A",
"v 	c #545555",
"w 	c #2E2F31",
"x 	c #3E404B",
"y 	c #7D8093",
"z 	c #878A9F",
"A 	c #8E91A8",
"B 	c #626472",
"C 	c #3F414A",
"D 	c #393A43",
"E 	c #24252A",
"F 	c #656675",
"G 	c #8C8FA4",
"H 	c #84879C",
"I 	c #84879B",
"J 	c #878A9E",
"K 	c #6D6F81",
"L 	c #19191B",
"M 	c #1F1F1F",
"N 	c #2F3033",
"O 	c #7A7D8F",
"P 	c #9396AD",
"Q 	c #9A9EB5",
"R 	c #9DA0B7",
"S 	c #9397AD",
"T 	c #19181A",
"U 	c #3D3D3D",
"V 	c #1B1B1D",
"W 	c #2F3238",
"X 	c #9B9EB7",
"Y 	c #8E92A8",
"Z 	c #4E505C",
"` 	c #3F3F47",
" .	c #393A3E",
"..	c #222327",
"+.	c #1E1F23",
"@.	c #5E606E",
"#.	c #9295AC",
"$.	c #9093AA",
"%.	c #8C90A6",
"&.	c #8D8FA4",
"*.	c #9094AA",
"=.	c #777B8D",
"-.	c #818196",
";.	c #9597AD",
">.	c #898CA2",
",.	c #8B8EA4",
"'.	c #8D91A6",
").	c #9296AE",
"!.	c #7E8295",
"~.	c #75798A",
"{.	c #808497",
"].	c #8F92A7",
"^.	c #888BA0",
"/.	c #727587",
"(.	c #17171B",
"_.	c #43454E",
":.	c #7C7E8E",
"<.	c #232224",
"[.	c #3E3E3E",
"}.	c #828597",
"|.	c #3A3B43",
"1.	c #15171A",
"2.	c #747689",
"3.	c #8A8DA2",
"4.	c #9497AE",
"5.	c #9A9EB6",
"6.	c #9CA0B9",
"7.	c #5E6170",
"8.	c #434550",
"9.	c #33333A",
"0.	c #0F0E10",
"a.	c #181818",
"b.	c #1D1D21",
"c.	c #1A1A21",
"d.	c #222528",
"e.	c #2D2D30",
"f.	c #2A292B",
"g.	c #1E1E20",
"h.	c #1D1E22",
"i.	c #161719",
"j.	c #242426",
"k.	c #46474F",
"l.	c #4B4D59",
"m.	c #8F92A8",
"n.	c #0C0C0C",
"o.	c #989CB2",
"p.	c #A3A7C0",
"q.	c #2D2E2E",
"r.	c #646464",
"s.	c #3B3B3B",
"t.	c #9B9EB4",
"u.	c #979AB2",
"v.	c #51535F",
"w.	c #555663",
"x.	c #828599",
"y.	c #83869A",
"z.	c #7F8397",
"A.	c #0A0B0B",
"B.	c #030303",
"C.	c #828595",
"D.	c #8C8EA1",
"E.	c #9597A9",
"F.	c #A8ABC2",
"G.	c #AEB2C7",
"H.	c #C9CBDB",
"I.	c #F1F2FB",
"J.	c #FFFFFF",
"K.	c #FDFFFF",
"L.	c #DADBE9",
"M.	c #C1C5D7",
"N.	c #B6B9CD",
"O.	c #9EA2B6",
"P.	c #8A8D9D",
"Q.	c #8E90A3",
"R.	c #34353C",
"S.	c #020202",
"T.	c #565764",
"U.	c #85889C",
"V.	c #86899D",
"W.	c #515360",
"X.	c #34363E",
"Y.	c #2E3037",
"Z.	c #818493",
"`.	c #3E3F42",
" +	c #52545F",
".+	c #686A7C",
"++	c #535563",
"@+	c #7F8195",
"#+	c #898CA1",
"$+	c #86889D",
"%+	c #84879D",
"&+	c #41434B",
"*+	c #111111",
"=+	c #333538",
"-+	c #36383E",
";+	c #51535D",
">+	c #8C8FA9",
",+	c #A7AAC5",
"'+	c #CBCDE0",
")+	c #EDEEF9",
"!+	c #F9FAFF",
"~+	c #F9F9FF",
"{+	c #D9DDE8",
"]+	c #C7CADC",
"^+	c #A8AABC",
"/+	c #707180",
"(+	c #37373F",
"_+	c #3B3B42",
":+	c #0F0F10",
"<+	c #2E2F34",
"[+	c #6D7181",
"}+	c #9599B0",
"|+	c #9B9FB7",
"1+	c #979BB1",
"2+	c #9CA0B7",
"3+	c #34353A",
"4+	c #828698",
"5+	c #565966",
"6+	c #27282E",
"7+	c #2C2E35",
"8+	c #3C3D44",
"9+	c #636675",
"0+	c #8D91A7",
"a+	c #84869A",
"b+	c #818597",
"c+	c #727485",
"d+	c #39393B",
"e+	c #131317",
"f+	c #0C0C0F",
"g+	c #0C0C0E",
"h+	c #101014",
"i+	c #111212",
"j+	c #151517",
"k+	c #0B0B0E",
"l+	c #0B0D11",
"m+	c #0D0D10",
"n+	c #232429",
"o+	c #5F6370",
"p+	c #898C9E",
"q+	c #84869B",
"r+	c #6A6B7A",
"s+	c #282A2F",
"t+	c #1E2024",
"u+	c #1F2025",
"v+	c #5B5D69",
"w+	c #85879D",
"x+	c #6C707D",
"y+	c #252525",
"z+	c #222227",
"A+	c #2B2C2F",
"B+	c #51515D",
"C+	c #585A68",
"D+	c #747889",
"E+	c #8A8EA4",
"F+	c #4A4C56",
"G+	c #686A7B",
"H+	c #969AB1",
"I+	c #9EA2BA",
"J+	c #A1A4BD",
"K+	c #9C9FB7",
"L+	c #999DB4",
"M+	c #A2A5BC",
"N+	c #A1A5BA",
"O+	c #989BB2",
"P+	c #9A9DB5",
"Q+	c #9699B0",
"R+	c #2A2C30",
"S+	c #555764",
"T+	c #888CA1",
"U+	c #585C67",
"V+	c #3E4049",
"W+	c #313138",
"X+	c #171717",
"Y+	c #B5B9D5",
"Z+	c #27282D",
"`+	c #202024",
" @	c #B2B6CB",
".@	c #9598AD",
"+@	c #141418",
"@@	c #868A9F",
"#@	c #888A9F",
"$@	c #5C5E6C",
"%@	c #33333B",
"&@	c #1F1F23",
"*@	c #202226",
"=@	c #5C5D6A",
"-@	c #85899D",
";@	c #8A8DA1",
">@	c #898CA0",
",@	c #8B8EA2",
"'@	c #8E92A7",
")@	c #727385",
"!@	c #43454F",
"~@	c #0C0C0D",
"{@	c #0A0A0D",
"]@	c #3F404A",
"^@	c #878BA1",
"/@	c #717488",
"(@	c #7C7F94",
"_@	c #6E707E",
":@	c #B1B5CF",
"<@	c #696B77",
"[@	c #6E707A",
"}@	c #B7BACE",
"|@	c #9598AA",
"1@	c #9194AB",
"2@	c #7B7E91",
"3@	c #3E3E48",
"4@	c #31323A",
"5@	c #626473",
"6@	c #6A6C7E",
"7@	c #4C4E56",
"8@	c #8B8FA4",
"9@	c #8F92A6",
"0@	c #9598AC",
"a@	c #86879B",
"b@	c #303139",
"c@	c #6F7383",
"d@	c #4E4F5C",
"e@	c #9598AF",
"f@	c #9094AB",
"g@	c #7D8193",
"h@	c #18181D",
"i@	c #6B6D7F",
"j@	c #6E7184",
"k@	c #6F7283",
"l@	c #6A6C78",
"m@	c #B1B4CC",
"n@	c #636470",
"o@	c #696B76",
"p@	c #B8BBD1",
"q@	c #9699AC",
"r@	c #121215",
"s@	c #36363F",
"t@	c #454751",
"u@	c #42424C",
"v@	c #5E606B",
"w@	c #8A8C9D",
"x@	c #9DA0B6",
"y@	c #9093A8",
"z@	c #5B5D6C",
"A@	c #26272C",
"B@	c #9194AA",
"C@	c #9194A9",
"D@	c #999CB1",
"E@	c #9EA1B7",
"F@	c #656977",
"G@	c #1F2126",
"H@	c #7A7D8E",
"I@	c #7C7F92",
"J@	c #626575",
"K@	c #32343C",
"L@	c #474853",
"M@	c #36383F",
"N@	c #16161A",
"O@	c #141416",
"P@	c #2E2E32",
"Q@	c #26282F",
"R@	c #74778A",
"S@	c #6C6F82",
"T@	c #6C6E79",
"U@	c #B0B4CD",
"V@	c #646571",
"W@	c #B9BCD0",
"X@	c #9698AB",
"Y@	c #979BB2",
"Z@	c #111115",
"`@	c #6D707F",
" #	c #44454E",
".#	c #A3A7B5",
"+#	c #ADB0C0",
"@#	c #989BB0",
"##	c #707385",
"$#	c #666877",
"%#	c #686B7A",
"&#	c #6C6D7E",
"*#	c #6A6E7C",
"=#	c #373740",
"-#	c #33353B",
";#	c #AAADC4",
">#	c #838699",
",#	c #747789",
"'#	c #6B6E82",
")#	c #5C5E6E",
"!#	c #17171C",
"~#	c #818393",
"{#	c #85899A",
"]#	c #A2A4B8",
"^#	c #9FA2B5",
"/#	c #2B2B33",
"(#	c #7C7F93",
"_#	c #6B6E80",
":#	c #6F7280",
"<#	c #BABCD1",
"[#	c #9698AD",
"}#	c #222222",
"|#	c #B4B7CD",
"1#	c #979AAE",
"2#	c #A4A7BF",
"3#	c #3E3F47",
"4#	c #A9ADBB",
"5#	c #B3B4C4",
"6#	c #8D90A3",
"7#	c #737787",
"8#	c #0A0A0E",
"9#	c #4C4E59",
"0#	c #3F404B",
"a#	c #42444D",
"b#	c #484853",
"c#	c #535561",
"d#	c #2B2D32",
"e#	c #BABFD6",
"f#	c #7F8496",
"g#	c #696C7D",
"h#	c #5A5C6C",
"i#	c #32343A",
"j#	c #9DA0B4",
"k#	c #9EA2B5",
"l#	c #9294A6",
"m#	c #23252A",
"n#	c #7D8094",
"o#	c #6E707D",
"p#	c #2E2E2E",
"q#	c #636570",
"r#	c #646671",
"s#	c #B3B6CC",
"t#	c #9295AA",
"u#	c #A5A9BD",
"v#	c #383A41",
"w#	c #A7A9B9",
"x#	c #B6B7C6",
"y#	c #9598AB",
"z#	c #8D90A4",
"A#	c #747587",
"B#	c #393942",
"C#	c #B4B8CE",
"D#	c #A7AABF",
"E#	c #A6AABE",
"F#	c #A6A9BE",
"G#	c #B3B7CD",
"H#	c #101013",
"I#	c #C0C3DC",
"J#	c #818498",
"K#	c #737688",
"L#	c #676B7C",
"M#	c #575B69",
"N#	c #2F3037",
"O#	c #A9ADC2",
"P#	c #989BAE",
"Q#	c #9C9FB2",
"R#	c #9194A5",
"S#	c #25252A",
"T#	c #7B7E94",
"U#	c #B3B7CF",
"V#	c #61636F",
"W#	c #B7BAD0",
"X#	c #B0B4CA",
"Y#	c #383A3F",
"Z#	c #A6AAB7",
"`#	c #B7B9C8",
" $	c #9498AB",
".$	c #727584",
"+$	c #343539",
"@$	c #969AAE",
"#$	c #ABAEC4",
"$$	c #C2C5E0",
"%$	c #676A7C",
"&$	c #595C6A",
"*$	c #9C9FB3",
"=$	c #24242B",
"-$	c #7E8195",
";$	c #6E707B",
">$	c #3A3A3B",
",$	c #8E90A5",
"'$	c #6F717E",
")$	c #666974",
"!$	c #C2C5DC",
"~$	c #A7AAC3",
"{$	c #A8ACC0",
"]$	c #A5A8B8",
"^$	c #B8BACB",
"/$	c #8C8FA3",
"($	c #727486",
"_$	c #A7ABC1",
":$	c #999BAE",
"<$	c #979AAF",
"[$	c #979BAE",
"}$	c #ACAFC4",
"|$	c #0B0B0C",
"1$	c #C2C5DE",
"2$	c #737587",
"3$	c #313139",
"4$	c #969AAC",
"5$	c #9395A9",
"6$	c #2B2C34",
"7$	c #717588",
"8$	c #747584",
"9$	c #373738",
"0$	c #151518",
"a$	c #51535C",
"b$	c #656774",
"c$	c #8F92A3",
"d$	c #4D4E54",
"e$	c #414144",
"f$	c #202020",
"g$	c #B2B6CC",
"h$	c #9A9DB0",
"i$	c #A8ABC0",
"j$	c #36363D",
"k$	c #A2A6B5",
"l$	c #B7BBCC",
"m$	c #9699AE",
"n$	c #8C8FA2",
"o$	c #84889C",
"p$	c #32323A",
"q$	c #A7AAC1",
"r$	c #959AAF",
"s$	c #989CB0",
"t$	c #A9ACC3",
"u$	c #0A0A0B",
"v$	c #BDC2DC",
"w$	c #85889E",
"x$	c #73778A",
"y$	c #565967",
"z$	c #2D2E36",
"A$	c #AAADC2",
"B$	c #969AAD",
"C$	c #131313",
"D$	c #505156",
"E$	c #6A6D7C",
"F$	c #111114",
"G$	c #333335",
"H$	c #090909",
"I$	c #5B5B61",
"J$	c #B1B5CD",
"K$	c #9B9EB2",
"L$	c #A8ACC1",
"M$	c #34363D",
"N$	c #A2A4B4",
"O$	c #C0C2D4",
"P$	c #A1A4B9",
"Q$	c #9497AD",
"R$	c #9498AF",
"S$	c #A9ADC3",
"T$	c #C1C7E0",
"U$	c #888BA3",
"V$	c #75798C",
"W$	c #5B5F6E",
"X$	c #2D2D35",
"Y$	c #979AAD",
"Z$	c #9B9FB2",
"`$	c #9A9EB0",
" %	c #707070",
".%	c #262627",
"+%	c #1D1D1E",
"@%	c #484848",
"#%	c #444444",
"$%	c #272727",
"%%	c #B5B8D0",
"&%	c #383941",
"*%	c #999CAB",
"=%	c #8B8E9B",
"-%	c #484A52",
";%	c #4D4F58",
">%	c #707281",
",%	c #767A8C",
"'%	c #34353E",
")%	c #999CB0",
"!%	c #9397AE",
"~%	c #9598B0",
"{%	c #ABAFC5",
"]%	c #848699",
"^%	c #2A2A2E",
"/%	c #2F3032",
"(%	c #3C3C42",
"_%	c #565A67",
":%	c #AAADC3",
"<%	c #9FA2B6",
"[%	c #ACAFC5",
"}%	c #999CAE",
"|%	c #191919",
"1%	c #6A6D7B",
"2%	c #B2B6CD",
"3%	c #B7BAD2",
"4%	c #474953",
"5%	c #39393F",
"6%	c #505153",
"7%	c #333333",
"8%	c #3A3B3C",
"9%	c #42434C",
"0%	c #393B44",
"a%	c #A7AAC0",
"b%	c #989BAF",
"c%	c #9599B1",
"d%	c #ADB1C9",
"e%	c #060707",
"f%	c #2A2A2C",
"g%	c #44454B",
"h%	c #474754",
"i%	c #BEC1D9",
"j%	c #8B8FA1",
"k%	c #2F2F34",
"l%	c #18191B",
"m%	c #212122",
"n%	c #535353",
"o%	c #404040",
"p%	c #262629",
"q%	c #474851",
"r%	c #B2B6D2",
"s%	c #ACB0C8",
"t%	c #A9ACC5",
"u%	c #A7AAC2",
"v%	c #B0B3CE",
"w%	c #0B0B0B",
"x%	c #1A1A1A",
"y%	c #181919",
"z%	c #201E22",
"A%	c #464647",
"B%	c #141414",
"C%	c #101010",
"D%	c #161616",
"E%	c #232325",
"                                                                                                ",
"                                                                                                ",
"                  . .                                                   . .                     ",
"                . . . .                                               . . . .                   ",
"                  . . . .                                           . . . .                     ",
"                    . . . .                                       . . . .                       ",
"                      . . . .                                   . . . .                         ",
"                        . . .                                   . . .                           ",
"                          . . .                               . . .                             ",
"                            . .       .               .       . .                               ",
"                              . .   . .               . .   . .                                 ",
"                                . . . .               . . . .                                   ",
"                              . . . . .               . . . . .                                 ",
"                            . . . . . .               . . . . . .                               ",
"                                . . . .               . . . .                                   ",
"                                      .               .                                         ",
"                                                                                                ",
"                              + @ # $ %           & * = - ; >                                   ",
"                            , ' ) ! ~ {         ] ^ / ( _ : <       [ } |                       ",
"              1 2 3 4       5 6 7 8 9 0 a       b c d e f g h     i j k l m n o                 ",
"          p q r s t u v     w x y 8 z A B C D E F G H I J K L M M N O P Q R S T U               ",
"        i V W X Y H Z `  ...+.@.#.$.%.&.*.z =.-.;._ >.,.'.).!.~.{.].^.f /.(._.:.<.              ",
"        [.}.|.1.2.3.,.$.4.5.6.7.8.9.0.a.b.c.d.e.f.g.h.i.a.j.k.l.f m.8 f 7.n.o.p.q.r.E           ",
"        s.t.u.v.w.z x.x.y.z.A.B.C.D.E.F.G.H.I.J.K.L.M.N.O.P.Q.R.S.T.f U.V.W.X.Y.E E Z.E         ",
"        `. +.+++@+S ( #+$+%+&+*+=+-+;+>+,+'+)+!+~+{+]+^+/+(+_+:+<+[+f H G }+|+|+1+) 2+a.        ",
"      a.3+) 4+5+6+7+8+9+%+#+0+a+b+c+d+e+f+g+h+i+j+k+l+m+n+o+p+I ,.#+q+#+r+s+t+u+v+w+x+;         ",
"    a y+z+A+B+C+D+E+F++.G+U.q+z ( H+I+J+K+}+L+M+N+O+Q P+2+P+Q+d z I y.,.R+S+T+U+V+W+X+E         ",
"      [ Y+Z+`+ @.@m.# +@@@8 #@z.$@%@&@*@=@-@3.;@>@,@'@)@!@~@{@]@z.^.V.d $@V+^@/@(@E _@E         ",
"    a [ :@<@[@}@|@1@e+C+/ Y 2@3@4@5@)@6@& 7@8@>@9@0@a@*@b@7 c@%@d@#.e@f@g@h@i@j@k@E l@E         ",
"      [ m@n@o@p@q@O+. r@s@t@u@v@w@x@y@! z@A@B@C@D@E@F@G@H@>.I@J@K@L@M@N@O@P@Q@R@S@E T@E         ",
"    a [ U@n@V@W@X@Y@Z@C@`@ #n..#+#@#,@^.##. $#%#&#*#=#-#;#>#,#'#)#!#~#{#]#^#/#(#_#E :#E         ",
"      [ U@n@V@<#[#u.}#|#1#2#3#4#5#q@6#f 7#8#9#0#a#b#c#d#e#f#/.g#h#i#G.j#k#l#m#n#_#E o#E         ",
"    a p#U@q#r#p@q@O+j s#t#u#v#w#x#y#z#f A#B#C#D#E#F#G#H#I#J#K#L#M#N#O#P#Q#R#S#T#_#E ' E         ",
"      p#U#V@V#W#q@P+j X#q@D#Y#Z#`# $6#H .$+$F.1#@$1##$f+$$I K#%$&$i#O#P#*$R#=$-$_#E ;$E         ",
"    a >$,$'$)$!$D#~$j X#P#{$M@]$^$q@/$H ($-#_$:$<$[$}$|$1$U.2$g#M#3$O#4$*$5$6$%.7$E 8$E         ",
"      9$0$a$b$c$d$e$f$g$h$i$j$k$l$m$n$o$)@p$q$:$r$s$t$u$v$w$x$g#y$z$A$B$*$q@C$D$E$v+3 F$        ",
"    a   G$H$a.I$m   } J$K$L$M$N$O$P$Q$9 K#3$_$:$R$Q+S$m+T$u.U$V$W$X$L$Y$Z$`$%  %.%H$+%          ",
"      a   a   @%  #%$%%%^#i$&%*%=%-%;%>%,%'%_$)%!%~%{%h ]%^%/%(%_%p$:%<%[%}%o a   a   a         ",
"    a   a   a   a   |%1%2%3%4%5%6%  7%8%9%0%a%b%R$c%d%e%f%  a   g%h%i%j%k%l%n   a   a           ",
"      a   a   a   a   b [ m%C$n%  a   o%p%q%r%s%t%u%v%w%  a   a   x%y%z%  A%  a   a   a         ",
"        a   a       a   a   a   a   a   }#, |%B%C%D%E%f$a   a   a   a   a   a   a   a           ",
"                      a   a   a   a   a   o   a   a   a   a   a   a   a   a                     ",
"                    a   a   a           a   a   a   a   a       a   a   a   a                   ",
"                      a   a               a   a   a   a           a   a                         ",
"                                            a   a   a                                           ",
"                                                                                                ",
"                                                                                                ",
"                                                                                                "};
