/* XPM */
static char * central_symetry_xpm[] = {
"48 48 6 1",
" 	c None",
".	c #000000",
"+	c #636363",
"@	c #6E6C6A",
"#	c #4E7A3B",
"$	c #2F4C22",
"                                                ",
"                                                ",
"                                                ",
"                                                ",
"                                         ..     ",
"                                        ...     ",
"                                    ... ...     ",
"                                    ......      ",
"                                    ......      ",
"                                  +  .....      ",
"                                 + + ......     ",
"                                  + ........    ",
"                                   ..... ..     ",
"                                   .... +       ",
"                                   ... + + .    ",
"            .....                 + + + +  .    ",
"           .     .        ..     + + + + +  .   ",
"          .       .      ...      + +       .   ",
"         .           ... ...     @ +        .   ",
"        .            ......                 .   ",
"       .             ......                .    ",
"      .            +  .....               .     ",
"     .            + + ......             .      ",
"    .              + ........           .       ",
"   .                ..... ..  ....     .        ",
"   .                .... +    ...     .         ",
"   .  .             ... + +   ...    .          ",
"    ...            + + + +    .  ....           ",
"    ...     #$    + + + + +                     ",
"   ....    ##$     + +                          ",
"       $## #$$    @ +                           ",
"       $####$                                   ",
"       $$###$                                   ",
"     +  $###$                                   ",
"    + + $#####                                  ",
"     + ###$$$##                                 ",
"      ####$ $$                                  ",
"      ##$$ +                                    ",
"      $$$ + +                                   ",
"     + + + +                                    ",
"    + + + +                                     ",
"     + +                                        ",
"    @ +                                         ",
"                                                ",
"                                                ",
"                                                ",
"                                                ",
"                                                "};
