/* XPM */
static char * circle_xpm[] = {
"48 48 227 2",
"  	c None",
". 	c #BD7676",
"+ 	c #D44C4C",
"@ 	c #E72B2B",
"# 	c #F41313",
"$ 	c #FC0505",
"% 	c #FF0000",
"& 	c #E62A2A",
"* 	c #D34B4B",
"= 	c #BB7474",
"- 	c #AD9191",
"; 	c #F70F0F",
"> 	c #FE0000",
", 	c #F50D0D",
"' 	c #CF4747",
") 	c #AA8E8E",
"! 	c #D25151",
"~ 	c #E70000",
"{ 	c #C70000",
"] 	c #AB0000",
"^ 	c #970000",
"/ 	c #9A0000",
"( 	c #AF0000",
"_ 	c #CE0000",
": 	c #F00000",
"< 	c #FC0000",
"[ 	c #CA4949",
"} 	c #B58484",
"| 	c #EC2222",
"1 	c #F30000",
"2 	c #9E0000",
"3 	c #7B0000",
"4 	c #671919",
"5 	c #622D2D",
"6 	c #593A3A",
"7 	c #534444",
"8 	c #5C3737",
"9 	c #6B2828",
"0 	c #831515",
"a 	c #B00000",
"b 	c #D80000",
"c 	c #F70000",
"d 	c #E51B1B",
"e 	c #A77676",
"f 	c #BF7171",
"g 	c #D50000",
"h 	c #950000",
"i 	c #6D0B0B",
"j 	c #5C2D2D",
"k 	c #504646",
"l 	c #4A4A4A",
"m 	c #4B4B4B",
"n 	c #4F4F4F",
"o 	c #545454",
"p 	c #585858",
"q 	c #595959",
"r 	c #5B4C4C",
"s 	c #722A2A",
"t 	c #AB0808",
"u 	c #E60000",
"v 	c #FB0404",
"w 	c #A95F5F",
"x 	c #F20000",
"y 	c #B60000",
"z 	c #790000",
"A 	c #5A2C2C",
"B 	c #4D4D4D",
"C 	c #5E5E5E",
"D 	c #696969",
"E 	c #747474",
"F 	c #7D7D7D",
"G 	c #808080",
"H 	c #852A2A",
"I 	c #D60000",
"J 	c #EE0000",
"K 	c #9D5959",
"L 	c #949494",
"M 	c #E40000",
"N 	c #9C0000",
"O 	c #661313",
"P 	c #564040",
"Q 	c #555555",
"R 	c #646464",
"S 	c #838383",
"T 	c #8E8E8E",
"U 	c #784F4F",
"V 	c #B71010",
"W 	c #F90000",
"X 	c #D60303",
"Y 	c #8B6363",
"Z 	c #929292",
"` 	c #601D1D",
" .	c #4E4B4B",
"..	c #737373",
"+.	c #878787",
"@.	c #766F6F",
"#.	c #BE1D1D",
"$.	c #AE1414",
"%.	c #7B7B7B",
"&.	c #676767",
"*.	c #7E7E7E",
"=.	c #919191",
"-.	c #827A7A",
";.	c #E21414",
">.	c #E90000",
",.	c #8D3030",
"'.	c #6B6B6B",
").	c #868686",
"!.	c #979797",
"~.	c #9F6A6A",
"{.	c #BC0000",
"].	c #725D5D",
"^.	c #898989",
"/.	c #C24444",
"(.	c #DD0000",
"_.	c #7A2828",
":.	c #F10E0E",
"<.	c #9C0707",
"[.	c #616161",
"}.	c #848484",
"|.	c #000000",
"1.	c #C44D4D",
"2.	c #B70000",
"3.	c #673D3D",
"4.	c #939393",
"5.	c #504545",
"6.	c #A68F8F",
"7.	c #D30000",
"8.	c #702323",
"9.	c #E12929",
"0.	c #7B1313",
"a.	c #CA5353",
"b.	c #F50000",
"c.	c #800909",
"d.	c #8D8D8D",
"e.	c #B97676",
"f.	c #820202",
"g.	c #8F8F8F",
"h.	c #AD8F8F",
"i.	c #FA0000",
"j.	c #800000",
"k.	c #8C8C8C",
"l.	c #7C7C7C",
"m.	c #BA7777",
"n.	c #7C0303",
"o.	c #8A8A8A",
"p.	c #CD5656",
"q.	c #750A0A",
"r.	c #5F5F5F",
"s.	c #E52D2D",
"t.	c #6D1717",
"u.	c #AB9494",
"v.	c #632727",
"w.	c #BA7373",
"x.	c #CE5757",
"y.	c #8C0000",
"z.	c #583939",
"A.	c #F51212",
"B.	c #6F0808",
"C.	c #535353",
"D.	c #D05252",
"E.	c #A30000",
"F.	c #5D2727",
"G.	c #909090",
"H.	c #B68181",
"I.	c #760000",
"J.	c #514545",
"K.	c #4C4C4C",
"L.	c #746D6D",
"M.	c #888888",
"N.	c #818181",
"O.	c #6D6D6D",
"P.	c #727272",
"Q.	c #ED1F1F",
"R.	c #ED0000",
"S.	c #920000",
"T.	c #5A2A2A",
"U.	c #494949",
"V.	c #BB1919",
"W.	c #6D6565",
"X.	c #525252",
"Y.	c #626262",
"Z.	c #E33232",
"`.	c #B40000",
" +	c #641414",
".+	c #606060",
"++	c #DB0D0D",
"@+	c #6E3939",
"#+	c #686868",
"$+	c #C50000",
"%+	c #730303",
"&+	c #544040",
"*+	c #565656",
"=+	c #A22424",
"-+	c #969696",
";+	c #583A3A",
">+	c #505050",
",+	c #7E3A3A",
"'+	c #EE0B0B",
")+	c #C24B4B",
"!+	c #A58E8E",
"~+	c #959595",
"{+	c #707070",
"]+	c #A30808",
"^+	c #777777",
"/+	c #343434",
"(+	c #701414",
"_+	c #3F3F3F",
":+	c #3A3A3A",
"<+	c #412D2D",
"[+	c #651313",
"}+	c #990404",
"|+	c #6A6A6A",
"1+	c #4E4E4E",
"2+	c #464646",
"3+	c #5A5A5A",
"4+	c #444444",
"5+	c #3D3D3D",
"6+	c #5B3131",
"7+	c #6F2222",
"8+	c #7A1313",
"9+	c #636363",
"0+	c #7F7F7F",
"a+	c #828282",
"b+	c #6E6E6E",
"c+	c #6C6C6C",
"d+	c #717171",
"                                                                                                ",
"                                                                                                ",
"                                                                                                ",
"                                                                                                ",
"                                                                                                ",
"                                                                                                ",
"                                                                                                ",
"                                      . + @ # $ % $ # & * =                                     ",
"                                - + ; % % % % % % > % % % % , ' )                               ",
"                              ! % % % % ~ { ] ^ / ( _ : < < % % % [                             ",
"                          } | % % 1 _ 2 3 4 5 6 7 8 9 0 a b c < < > d e                         ",
"                        f $ % % g h i j k l m n o p q p r s t u < < > v w                       ",
"                      f % % x y z A m l B o C D E F G F E D C H I x < < J K L                   ",
"                    } $ % M N O P l m Q R E S T L       L T S E U V : < W X Y Z                 ",
"                    | % x N `  .l n C ..+.L                   L +.@.#.W < x $.%.L               ",
"                  ! % % y O  .l o &.*.=.                          Z -.;.% < >.,.G               ",
"                - % % g z P l o '.).!.                              !.~.% < < {.].^.            ",
"                + % 1 h A l n &.).                                      /.% < (._.E Z           ",
"                ; % _ i m m C *.!.                                      !.:.% W <.[.}.          ",
"              . % % 2 j l Q ..=.                |.                        1.% < 2.3...4.        ",
"              + % ~ 3 5.B R +.                  |.                        6.% < 7.8.R ^.        ",
"              @ % { 4 l o E L                   |.                          9.% ~ 0.q *.        ",
"              # % ] 5 m C S                     |.                          a.% b.c.o ..L       ",
"              $ % ^ 6 n D d.                    |.                          e.% < f.n '.g.      ",
"              % % / 7 o E L           |.|.|.|.|.|.|.|.|.|.|.                h.% i.j.B R k.      ",
"              $ > ( 8 p l.                      |.                          m.% x n.m [.o.      ",
"              # % _ 9 q G                       |.                          p.% M q.m r.^.      ",
"              & % : 0 p F                       |.                          s.% _ t.m [.o.      ",
"              * % < a r E L                     |.                        u.% % a v.B R k.      ",
"              w.% < b s D |.|.                  |.                        x.% b.y.z.n '.g.      ",
"                , % c t |.|.|.                                            A.% g B.m C...L       ",
"                |.|.|.u |.|.|.                                          D.% % E.F.l q *.        ",
"                |.|.|.|.|.|.+.    G.G.                                H.% % I I.J.K.R ^.        ",
"                |.|.|.|.|.|.L.M.N.O.P.G.                              Q.% R.S.T.U.o ..4.        ",
"                  |.|.|.|.|.V.W.[.X.Y.o.                            Z.% % `. +m m .+S           ",
"                  |.|.|.|.|.|.++@+K.#+g.                        H.Q.% % $+%+&+l *+E Z           ",
"                |.|.|.|.|.|.|.|.% =+E -+                      D.% % % $+I.;+l >+D ^.            ",
"              |.|.|.|.|.,+|.|.< < % '+)+!+              u.x.A.% % R.`.%+;+l B [.G               ",
"              |.|.|.|.~+{+|.]+>.< < % % % 9.a.e.h.m.p.s.% % % % I S. +&+l B C %.L               ",
"              |.|.|.  -+^+B /+(+{.(.W < < % % % % % % % % b.g E.I.T.m l >+[.%.Z                 ",
"                      S Y.U._+:+<+[+}+2.7.~ b.< i.x M _ a y.B.F.J.l m *+D G L                   ",
"                    g.|+1+2+m 3+q 4+5+6+7+8+c.f.j.n.q.t.v.z.m l K.o [.E ^.                      ",
"                    o.[.m 1+9+0+a+b+c+c+9+q o n B m m m B n o q R ..}.Z                         ",
"                    G.d+[.|+S !.  L L Z ^.*...'.R [.r.[.R '...*.^.4.                            ",
"                      G.o.g.                L G.k.o.^.o.k.G.L                                   ",
"                                                                                                ",
"                                                                                                ",
"                                                                                                "};
