/* XPM */
static char * circlearc_xpm[] = {
"48 48 192 2",
"  	c None",
". 	c #000000",
"+ 	c #848484",
"@ 	c #6D6D6D",
"# 	c #727171",
"$ 	c #868686",
"% 	c #686868",
"& 	c #535353",
"* 	c #626161",
"= 	c #BF7171",
"- 	c #424242",
"; 	c #323232",
"> 	c #373737",
", 	c #5C5C5C",
"' 	c #838383",
") 	c #B58484",
"! 	c #FC0505",
"~ 	c #232323",
"{ 	c #2E2E2E",
"] 	c #4C4C4C",
"^ 	c #7A7A7A",
"/ 	c #EC2222",
"( 	c #404040",
"_ 	c #6E6E6E",
": 	c #D25151",
"< 	c #272727",
"[ 	c #353535",
"} 	c #4D4D4D",
"| 	c #767676",
"1 	c #FF0000",
"2 	c #2C2C2C",
"3 	c #4A4A4A",
"4 	c #636363",
"5 	c #D44C4C",
"6 	c #3B3B3B",
"7 	c #303030",
"8 	c #2F2F2F",
"9 	c #393939",
"0 	c #464646",
"a 	c #4E4E4E",
"b 	c #575757",
"c 	c #777777",
"d 	c #F70F0F",
"e 	c #CE0000",
"f 	c #6D0A0A",
"g 	c #313131",
"h 	c #2D2D2D",
"i 	c #363636",
"j 	c #484848",
"k 	c #5F5F5F",
"l 	c #6A6A6A",
"m 	c #676767",
"n 	c #BD7676",
"o 	c #9E0000",
"p 	c #5B2C2C",
"q 	c #3E3E3E",
"r 	c #333333",
"s 	c #454545",
"t 	c #616161",
"u 	c #808080",
"v 	c #7B7B7B",
"w 	c #E70000",
"x 	c #7B0000",
"y 	c #4F4444",
"z 	c #444444",
"A 	c #505050",
"B 	c #656565",
"C 	c #828282",
"D 	c #E72B2B",
"E 	c #C70000",
"F 	c #671919",
"G 	c #494949",
"H 	c #515151",
"I 	c #7D7D7D",
"J 	c #F41313",
"K 	c #AB0000",
"L 	c #622D2D",
"M 	c #4B4B4B",
"N 	c #5D5D5D",
"O 	c #818181",
"P 	c #970000",
"Q 	c #593A3A",
"R 	c #4F4F4F",
"S 	c #696969",
"T 	c #9A0000",
"U 	c #534444",
"V 	c #545454",
"W 	c #747474",
"X 	c #FE0000",
"Y 	c #AF0000",
"Z 	c #5C3737",
"` 	c #585858",
" .	c #7C7C7C",
"..	c #6B2828",
"+.	c #595959",
"@.	c #E62A2A",
"#.	c #F00000",
"$.	c #831515",
"%.	c #D34B4B",
"&.	c #FC0000",
"*.	c #B00000",
"=.	c #5B4C4C",
"-.	c #BA7373",
";.	c #D80000",
">.	c #722A2A",
",.	c #F50D0D",
"'.	c #F70000",
").	c #AB0808",
"!.	c #5E5E5E",
"~.	c #737373",
"{.	c #CF4747",
"].	c #E60000",
"^.	c #852A2A",
"/.	c #626262",
"(.	c #D60000",
"_.	c #784F4F",
":.	c #292929",
"<.	c #5A5A5A",
"[.	c #CA4949",
"}.	c #746D6D",
"|.	c #727272",
"1.	c #282828",
"2.	c #3F3F3F",
"3.	c #717171",
"4.	c #E51B1B",
"5.	c #525252",
"6.	c #A57474",
"7.	c #B68181",
"8.	c #362222",
"9.	c #9B5151",
"0.	c #A22424",
"a.	c #D05252",
"b.	c #492C2C",
"c.	c #3C3C3C",
"d.	c #646464",
"e.	c #858585",
"f.	c #EE0B0B",
"g.	c #C24B4B",
"h.	c #CE5757",
"i.	c #F51212",
"j.	c #4D2F2F",
"k.	c #252525",
"l.	c #2A2A2A",
"m.	c #787878",
"n.	c #E12929",
"o.	c #CA5353",
"p.	c #B97676",
"q.	c #BA7777",
"r.	c #CD5656",
"s.	c #E52D2D",
"t.	c #920000",
"u.	c #631313",
"v.	c #4D3939",
"w.	c #262626",
"x.	c #606060",
"y.	c #701414",
"z.	c #F90000",
"A.	c #F50000",
"B.	c #D50000",
"C.	c #A30000",
"D.	c #760000",
"E.	c #5A2A2A",
"F.	c #3A3A3A",
"G.	c #651313",
"H.	c #990404",
"I.	c #B70000",
"J.	c #D30000",
"K.	c #FA0000",
"L.	c #F20000",
"M.	c #E40000",
"N.	c #8C0000",
"O.	c #6F0808",
"P.	c #5D2727",
"Q.	c #514545",
"R.	c #3D3D3D",
"S.	c #5B3131",
"T.	c #6F2222",
"U.	c #7A1313",
"V.	c #800909",
"W.	c #820202",
"X.	c #800000",
"Y.	c #7C0303",
"Z.	c #750A0A",
"`.	c #6D1717",
" +	c #632727",
".+	c #583939",
"++	c #6F6F6F",
"@+	c #797979",
"#+	c #7F7F7F",
"$+	c #6C6C6C",
"%+	c #7E7E7E",
"&+	c #6B6B6B",
"                                                                                                ",
"                                                                                                ",
"                                                                                                ",
"                                                                                                ",
"                                                                                                ",
"                                                                                                ",
"                                                                                                ",
"                                . .                                                             ",
"                              . . .                                                             ",
"                      . . .   . . .                                                             ",
"                      . . . . . .   + @ #                                                       ",
"                      . . . . . . $ % & *                                                       ",
"                      = . . . . . - ; > , '                                                     ",
"                    ) ! . . . . . . ~ { ] ^                                                     ",
"                    / . . . . . . . . ( _                                                       ",
"                  : . . . . . < . . [ } |                                                       ",
"                  1 . . . . > 2 . > ( 3 4 +                                                     ",
"                5 1 . . . 6 7 8 9 0 a } b c                                                     ",
"                d 1 e f - g h i j k l k m +                                                     ",
"              n 1 1 o p q r [ s t u   v $       .                                               ",
"              5 1 w x y z s A B C               .                                               ",
"              D 1 E F G H m I                   .                                               ",
"              J 1 K L M N O                     .                                               ",
"              ! 1 P Q R S                       .                                               ",
"              1 1 T U V W             . . . . . . . . . . .                                     ",
"              ! X Y Z `  .                      .                                               ",
"              J 1 e ..+.u                       .                                               ",
"              @.1 #.$.` I                       .                             . .               ",
"              %.1 &.*.=.W                       .                           . . .               ",
"              -.1 &.;.>.S                       .                   . . .   . . .               ",
"                ,.1 '.).!.'                                         . . . . . .   + _ ~.        ",
"                {.1 &.].^.W     . .                                 . . . . . . R A a /.        ",
"                  1 &.&.(._.  . . .                                   . . . . . ; :.; <.        ",
"                  [.X . . . }.. . . |.                                . . . . . . 1.2.3.        ",
"                    4.. . . . . . 5./.                              . . . . . . . . M u         ",
"                    6.. . . . . . ] %                           7.. . . . . 8.. . r R ^         ",
"                      9.. . . . . 0.W                         a.1 . . . . b.< . h c.M d.e.      ",
"                      $ . . . . . . f.g.                  h.i.1 1 . . . j.h k.l.c.] } ` m.      ",
"                      . . . . . . . . 1 1 n.o.p.  q.r.s.1 1 1 1 (.t.u.v.7 w.l.6 ` S x.% e.      ",
"                    . . . . . y.. . z.&.&.1 1 1 1 1 1 1 1 A.B.C.D.E.3 2.7 { c.<.I    .$         ",
"                    . . . . 2.F.. G.H.I.J.w A.&.K.L.M.e *.N.O.P.Q.3 3 ] 3 } t O                 ",
"                    . . . 0 M <.+.z R.S.T.U.V.W.X.Y.Z.`. +.+M 3 ] V x.++@+C                     ",
"                      t M a 4 #+C _ $+$+4 +.V R } M M M } R V +.d.~.+                           ",
"                      3.t l '             %+~.&+d.t k t d.&+~.%+                                ",
"                                                                                                ",
"                                                                                                ",
"                                                                                                ",
"                                                                                                "};
