/* XPM */
static char * coordinates_xpm[] = {
"48 48 6 1",
" 	c None",
".	c #000000",
"+	c #4B753F",
"@	c #AF002B",
"#	c #5A5A5A",
"$	c #676563",
"                                                ",
"                                                ",
"                                                ",
"       .                                        ",
"      ...                                       ",
"     .....                                      ",
"       .                                        ",
"       .                                        ",
"     ...                                        ",
"       .                                        ",
"       .                                        ",
"       .                                        ",
"     ...                      ..                ",
"       .                     ...                ",
"  +    .                 ... ...                ",
"  +++  .                 ......                 ",
"  ++++@@@@@@@@@@@@@@@@@@@...... # #             ",
"  +++  .                  .....# #              ",
"  +    .                  ......# #             ",
"       .                 ........#              ",
"     ...                ..... ..#               ",
"       .                .... #@# #              ",
"       .                ... # @ # #             ",
"       .                   # #@# #              ",
"     ...                  # # @ #               ",
"       .                   # #@                 ",
"       .                  $ # @                 ",
"       .                      @                 ",
"     ...                      @                 ",
"       .                      @                 ",
"       .                      @                 ",
"       .              .   .   @   .  .          ",
"     ...  ..   ..    .   .    @  .    .         ",
"       .  . . . .   .   .     @ .      .        ",
"       .  .  .  .   .    ..   @  ..    .        ",
"       .  .  .  .   .   .  .  . .  .   .        ",
"     ...  .     .   .   .  .  . .  .   .        ",
"       .  .     .    .   ..  .@  ..   .         ",
"       .              .       @      .    .     ",
"       .                      @           ..    ",
"  ............................@..............   ",
"       .  .   .   .   .   .   @   .   .   ..    ",
"       .  .   .   .   .   .   +   .   .   .     ",
"  ..   .                     +++                ",
" .  .  .                     +++                ",
" .  .  .                    +++++               ",
"  ..                                            ",
"                                                "};
