/* XPM */
static char * distance_xpm[] = {
"48 48 8 1",
" 	c None",
".	c #000000",
"+	c #BA936A",
"@	c #E2BE1B",
"#	c #969696",
"$	c #C1A113",
"%	c #917D22",
"&	c #494949",
"                                                ",
"                          .                     ",
"                           .                    ",
"                            .                   ",
"                             .                  ",
"                          ... .                 ",
"                           ..  .                ",
"                          . .   .               ",
"         .   ...         .       .              ",
"         .  .   .       .         .             ",
"         .  .   .      .           .            ",
"         .  .   .     .           .+.           ",
"         .   ...     .           .+++.          ",
"                    .           .+.+@@.         ",
"                   .           .++#.#@@.        ",
"                  .           .+.+. .@$%.       ",
"                 .           .+++@#.#$%.        ",
"                .           .+.+@@@@$%. &       ",
"               .           .+++@@@@$%. & &      ",
"              .           .+.+@@@@$%. & &       ",
"             .           .+++@@@@$%. & &        ",
"            .           .+.+@@@@$%. & &         ",
"   .       .           .+++@@@@$%. & &          ",
"    .   . .           .+.+@@@@$%. & &           ",
"     .  ..           .+++@@@@$%. & &            ",
"      . ...         .+.+@@@@$%. & &             ",
"       .           .+++@@@@$%. & &              ",
"        .         .+.+@@@@$%. & &               ",
"         .       .+++@@@@$%. & &                ",
"          .     .+.+@@@@$%. & &                 ",
"           .   .+++@@@@$%. & &                  ",
"            . .+.+@@@@$%. & &                   ",
"             .+++@@@@$%. & &                    ",
"            .+.+@@@@$%. & &                     ",
"           .+++@@@@$%. & &                      ",
"          .+.+@@@@$%. & &                       ",
"         .+++@@@@$%. & &                        ",
"          .+@@@@$%. & &                         ",
"         & .@@@$%. & &                          ",
"          & .@$%. & &                           ",
"           & .%. & &                            ",
"            & . & &                             ",
"             & & &                              ",
"              & &                               ",
"               &                                ",
"                                                ",
"                                                ",
"                                                "};
