/* XPM */
static char * eraser_xpm[] = {
"48 48 329 2",
"  	c None",
". 	c #48484D",
"+ 	c #101010",
"@ 	c #515154",
"# 	c #4A4B69",
"$ 	c #7677AB",
"% 	c #7577AA",
"& 	c #7072A7",
"* 	c #6F70A2",
"= 	c #6B6EA0",
"- 	c #686A9F",
"; 	c #696A9E",
"> 	c #67689C",
", 	c #65679C",
"' 	c #646599",
") 	c #65669A",
"! 	c #626593",
"~ 	c #494949",
"{ 	c #7678AB",
"] 	c #7475A9",
"^ 	c #7274A7",
"/ 	c #7073A7",
"( 	c #6F70A4",
"_ 	c #6C6DA1",
": 	c #66679B",
"< 	c #66669B",
"[ 	c #33344C",
"} 	c #6F6F6F",
"| 	c #7C7EB1",
"1 	c #7174A8",
"2 	c #6F72A6",
"3 	c #6E70A5",
"4 	c #6C6FA3",
"5 	c #6A6B9F",
"6 	c #67699E",
"7 	c #494A6E",
"8 	c #454566",
"9 	c #8184B6",
"0 	c #777AAE",
"a 	c #6F70A6",
"b 	c #6E70A3",
"c 	c #626397",
"d 	c #35354C",
"e 	c #66689B",
"f 	c #727399",
"g 	c #8485B5",
"h 	c #7D7FB2",
"i 	c #797BAE",
"j 	c #7376A8",
"k 	c #7173A6",
"l 	c #6D6FA2",
"m 	c #6B6CA0",
"n 	c #68699D",
"o 	c #46465F",
"p 	c #52527A",
"q 	c #7273A3",
"r 	c #585858",
"s 	c #575978",
"t 	c #8587B8",
"u 	c #8284B7",
"v 	c #7E7FB3",
"w 	c #7A7CAF",
"x 	c #7173A8",
"y 	c #7172A6",
"z 	c #6E6FA3",
"A 	c #6C6EA1",
"B 	c #646699",
"C 	c #63649A",
"D 	c #54557F",
"E 	c #3B3C52",
"F 	c #7474A5",
"G 	c #6E6FA1",
"H 	c #6C6C6C",
"I 	c #8384B8",
"J 	c #8183B6",
"K 	c #7E81B3",
"L 	c #7B7CB0",
"M 	c #7879AD",
"N 	c #7375A8",
"O 	c #6C6FA1",
"P 	c #676A9E",
"Q 	c #64659B",
"R 	c #636498",
"S 	c #2A2A37",
"T 	c #6E6F99",
"U 	c #7778A6",
"V 	c #696A9C",
"W 	c #31313E",
"X 	c #7C7DAB",
"Y 	c #7F81B4",
"Z 	c #7C7FB1",
"` 	c #7575A8",
" .	c #7273A7",
"..	c #6D6EA2",
"+.	c #464665",
"@.	c #4D4F6E",
"#.	c #7B7CA8",
"$.	c #5F608E",
"%.	c #2F2F42",
"&.	c #6D6E96",
"*.	c #8586B8",
"=.	c #7F82B6",
"-.	c #7C7EAF",
";.	c #7576AA",
">.	c #7072A5",
",.	c #6A6DA1",
"'.	c #666797",
").	c #2A2A39",
"!.	c #7576A6",
"~.	c #6D6EA0",
"{.	c #4F5078",
"].	c #616161",
"^.	c #555574",
"/.	c #8083B5",
"(.	c #7D80B2",
"_.	c #7C7DAF",
":.	c #6B6DA0",
"<.	c #6A6CA1",
"[.	c #7071A5",
"}.	c #37384E",
"|.	c #5F6088",
"1.	c #7879A7",
"2.	c #353535",
"3.	c #393A4C",
"4.	c #6E71A5",
"5.	c #56567B",
"6.	c #42435D",
"7.	c #7677A7",
"8.	c #7071A1",
"9.	c #3B3C54",
"0.	c #262631",
"a.	c #7E80B3",
"b.	c #7779AC",
"c.	c #2E2E38",
"d.	c #7475A1",
"e.	c #5C5C5F",
"f.	c #4F4F4F",
"g.	c #2F2F3C",
"h.	c #696A90",
"i.	c #8485B7",
"j.	c #797CAE",
"k.	c #7174A6",
"l.	c #5B5B80",
"m.	c #4C4D67",
"n.	c #6B6C9E",
"o.	c #616296",
"p.	c #3D3D50",
"q.	c #5D5E7E",
"r.	c #8486B7",
"s.	c #8183B4",
"t.	c #7D7DB0",
"u.	c #7A7CAB",
"v.	c #7576A8",
"w.	c #5B5D82",
"x.	c #25252E",
"y.	c #797AA2",
"z.	c #7374A4",
"A.	c #272728",
"B.	c #4F4F6E",
"C.	c #7475A5",
"D.	c #696B9E",
"E.	c #515278",
"F.	c #58585D",
"G.	c #CF788A",
"H.	c #C36E80",
"I.	c #C67183",
"J.	c #C77284",
"K.	c #C36C7D",
"L.	c #C46F81",
"M.	c #C16A7B",
"N.	c #C26B7E",
"O.	c #C36C7F",
"P.	c #C46D80",
"Q.	c #C77082",
"R.	c #CB7485",
"S.	c #CD7686",
"T.	c #403B3C",
"U.	c #686A9B",
"V.	c #797AA8",
"W.	c #5F5F92",
"X.	c #30303F",
"Y.	c #808080",
"Z.	c #231C1D",
"`.	c #C0697B",
" +	c #BB6676",
".+	c #BA6577",
"++	c #BC6978",
"@+	c #C06B7D",
"#+	c #BF6A7C",
"$+	c #BB6678",
"%+	c #BE697B",
"&+	c #C16A7A",
"*+	c #C26B7C",
"=+	c #C87383",
"-+	c #BC6F7D",
";+	c #252424",
">+	c #393A54",
",+	c #C57082",
"'+	c #C56E7F",
")+	c #CA7384",
"!+	c #CA7585",
"~+	c #CA7386",
"{+	c #C87181",
"]+	c #C56E81",
"^+	c #5E3F46",
"/+	c #3F3E3E",
"(+	c #5D5E8C",
"_+	c #424255",
":+	c #CF7888",
"<+	c #CC7586",
"[+	c #CB7686",
"}+	c #C87385",
"|+	c #CD7888",
"1+	c #D67E90",
"2+	c #D57C8F",
"3+	c #D37A8D",
"4+	c #D57C8D",
"5+	c #D47D8D",
"6+	c #CD788A",
"7+	c #251C1F",
"8+	c #C68391",
"9+	c #3E3F5D",
"0+	c #D98695",
"a+	c #D57E8E",
"b+	c #D2798C",
"c+	c #D27B8C",
"d+	c #D47B8C",
"e+	c #D17A8A",
"f+	c #D17889",
"g+	c #CF7687",
"h+	c #D27B8E",
"i+	c #D87F92",
"j+	c #D67F91",
"k+	c #B66F7E",
"l+	c #251E20",
"m+	c #E39EAB",
"n+	c #6C6E9F",
"o+	c #595A8A",
"p+	c #4B4849",
"q+	c #E68DA0",
"r+	c #E78EA1",
"s+	c #EA91A4",
"t+	c #E990A3",
"u+	c #E891A1",
"v+	c #E790A0",
"w+	c #E790A3",
"x+	c #E38A9D",
"y+	c #E2899C",
"z+	c #E1889B",
"A+	c #E58C9F",
"B+	c #6B4850",
"C+	c #E4ABB5",
"D+	c #E29BA8",
"E+	c #393954",
"F+	c #634248",
"G+	c #E897A8",
"H+	c #E5A0AD",
"I+	c #E69FAC",
"J+	c #E79CAA",
"K+	c #E899A8",
"L+	c #E796A5",
"M+	c #E895A5",
"N+	c #E897A6",
"O+	c #E996A5",
"P+	c #E996A7",
"Q+	c #E893A5",
"R+	c #36292C",
"S+	c #E5A2B0",
"T+	c #DD8C9C",
"U+	c #4B4B70",
"V+	c #545675",
"W+	c #8D5A65",
"X+	c #E794A4",
"Y+	c #E59EAD",
"Z+	c #E4A1AD",
"`+	c #E49FAC",
" @	c #E697A6",
".@	c #E89BAA",
"+@	c #E79CAC",
"@@	c #E69DAB",
"#@	c #E69BA9",
"$@	c #E69BAB",
"%@	c #E699A9",
"&@	c #E59AA8",
"*@	c #E49BA9",
"=@	c #E59CAA",
"-@	c #E79EAC",
";@	c #DF9AA7",
">@	c #C67A88",
",@	c #36364D",
"'@	c #895862",
")@	c #DB8295",
"!@	c #DB8293",
"~@	c #DA8394",
"{@	c #D88191",
"]@	c #D78091",
"^@	c #DA8194",
"/@	c #DC8595",
"(@	c #DE8596",
"_@	c #DE8797",
":@	c #E08B9D",
"<@	c #E18E9F",
"[@	c #E18C9E",
"}@	c #E18A9B",
"|@	c #DF8898",
"1@	c #E18697",
"2@	c #D78493",
"3@	c #68434A",
"4@	c #CC8391",
"5@	c #B86D7B",
"6@	c #6C454D",
"7@	c #DD8494",
"8@	c #D77E91",
"9@	c #C77080",
"0@	c #C66F81",
"a@	c #C66F80",
"b@	c #CC7384",
"c@	c #5F3C44",
"d@	c #B36473",
"e@	c #C47584",
"f@	c #744B54",
"g@	c #AF6877",
"h@	c #C46D7E",
"i@	c #BF6C7E",
"j@	c #BD6A7B",
"k@	c #C0697A",
"l@	c #BF6879",
"m@	c #54353B",
"n@	c #BD707E",
"                                                                                                ",
"                                                                                                ",
"                                                                                                ",
"                                                                                                ",
"                                                                                                ",
"                                                                                                ",
"                                                                                                ",
"                                                                                                ",
"                                                                                                ",
"                                                                                                ",
"                                      . + + + + + + + + + + + + + + + + +                       ",
"                                    @ # $ % % & * = - ; - > > , ' ' ) ! +                       ",
"                                  ~ + { ] ^ / ( _ - : < ) ) ) ' ' ' ' [ +                       ",
"                                } + | { ] 1 2 3 4 5 6 ) ) ) ) ' ' ' 7 8 +                       ",
"                                + 9 | 0 % 1 & a b * - > 6 < ' ' ' c d e +                       ",
"                              + f g h i % j & & k l m n : ' ' ' ' o p q +                       ",
"                            r s t u v w { ] x / y z A - : B ' C D E F G +                       ",
"                          H + t I J K L M ] N 1 k ( O 5 P , Q R S T U V +                       ",
"                          W X t t I Y Z i $ `  .^ k .._ - - 6 +.@.#.G $.+                       ",
"                        %.&.t t *.I =.K -.M ;.] y >..._ ,.,.'.).U !.~.{.+                       ",
"                      ].^.t t t t I J /.(._.M ]  .( :.<.A [.}.|.1.U ; + 2.                      ",
"                      3.u t t t t *.I u /.| i $ ^ 4._ ,.3 5.6.!.7.8.' 9.                        ",
"                    0.X t t t t t *.*.I u a.Z b.% y ..A  .c.d.!.!.: + e.f.                      ",
"                  g.h.t t t t t t t *.i.u u a.j.$  ./ k.l.m.1.F n.o.+ f.                        ",
"                p.q.t t u i.I t t t t t r.u s.t.u.v.j w.x.y.z.~.' + f.  f.                      ",
"              + + + + + + + + + + + + + + + + + + + + A.B.#.C.D.E.F.  f.                        ",
"              + G.H.I.J.H.K.H.L.M.K.N.H.O.L.P.Q.R.S.T.+ U.V.z.W.X.  f.  Y.                      ",
"            + Z.N.O.`. +.+++@+#+$+ +%+M.&+*+*+L.=+-+;++ 8.#.D.>+  f.  f.                        ",
"            + L.,+*+'+)+!+,+~+{+]+,+,+P.O.=+I.H.H.^+/++ !.V.(+_+f.  f.                          ",
"            + Q.Q.:+:+S.R.)+<+[+}+|+1+2+3+4+5+S.6+7+8++ F n.9+f.  f.  Y.                        ",
"          + 0+a+b+c+d+e+)+J.f+f+6+S.<+g+c+h+i+j+k+l+m++ n+o+p.  f.  f.                          ",
"          p+q+r+s+s+s+t+u+v+w+w+w+v+x+y+z+x+A+q+B+C+D++ ' E+  f.  f.                            ",
"          F+G+H+I+J+K+K+L+M+N+M+O+P+G+O+N+G+G+Q+R+S+T++ U+V+f.  f.                              ",
"          W+X+Y+Z+`+ @.@+@@@#@#@$@%@&@*@=@@@-@+@+ ;@>@+ ,@f.  f.  Y.                            ",
"          '@x+)@!@~@{@]@^@/@(@_@:@<@[@}@|@!@1@2@3@4@5@+ f.  f.  f.                              ",
"          6@7@8@a+:+9@,+0@a@!+<+~+)+b@)+I.Q.}+}+c@d@e@+   f.  f.                                ",
"          f@g@h@*+M.*+i@#+#+#+j@k@M.k@l@@+l@M.{+m@n@+   f.  f.                                  ",
"            + + + + + + + + + + + + + + + + + + + +   f.  f.  Y.                                ",
"            f.  f.  f.  f.  f.  f.  f.  f.  f.  f.  f.  f.  f.                                  ",
"              f.  f.  f.  f.  f.  f.  f.  f.  f.  f.  f.  f.                                    ",
"                f.  f.  f.  f.  f.  f.  f.  f.  f.  f.  f.                                      ",
"                                                                                                ",
"                                                                                                ",
"                                                                                                ",
"                                                                                                ",
"                                                                                                ",
"                                                                                                ",
"                                                                                                "};
