/* XPM */
static char * homothetie_xpm[] = {
"47 47 6 1",
" 	c None",
".	c #000000",
"+	c #636363",
"@	c #6E6C6A",
"#	c #4E7A3B",
"$	c #2F4C22",
"                                            .. ",
"                                           ... ",
"                                       ... ... ",
"                                       ......  ",
"                                       ......  ",
"                                     +  .....  ",
"                      .....         + + ...... ",
"                     .     .         + ........",
"                    .       .         ..... .. ",
"                   .                  .... +   ",
"                  .             ..    ... + + .",
"                 .             ...   + + + +  .",
"                .          ... ...  + + + + + .",
"               .           ......    + +      .",
"              .            ......   @ +       .",
"             .           +  .....             .",
"            .           + + ......           . ",
"           .   ...       + ........         .  ",
"          .   .   .       ..... ..         .   ",
"         .    .   .       .... +          .    ",
"        .        .        ... + ....     .     ",
"       .        .        + + + +...     .      ",
"      .        .        + + + + ...    .       ",
"     .        .          + +    .  ....        ",
"    .          ....     @ +                    ",
"   .                                           ",
"  .                                            ",
"  .                                            ",
"  .  .                                         ",
"   ...                                         ",
"   ...     #$                                  ",
"  ....    ##$                                  ",
"      $## #$$                                  ",
"      $####$                                   ",
"      $$###$                                   ",
"    +  $###$                                   ",
"   + + $#####                                  ",
"    + ###$$$##                                 ",
"     ####$ $$                                  ",
"     ##$$ +                                    ",
"     $$$ + +                                   ",
"    + + + +                                    ",
"   + + + +                                     ",
"    + +                                        ",
"   @ +                                         ",
"                                               ",
"                                               "};
