/* XPM */
static char * intersection_point_xpm[] = {
"48 48 188 2",
"  	c None",
". 	c #000000",
"+ 	c #F76F6F",
"@ 	c #BC2121",
"# 	c #DB2525",
"$ 	c #600D0D",
"% 	c #B38989",
"& 	c #C17272",
"* 	c #CD5F5F",
"= 	c #D55252",
"- 	c #DA4A4A",
"; 	c #DC4747",
"> 	c #CC5F5F",
", 	c #C07171",
"' 	c #B28989",
") 	c #D74F4F",
"! 	c #D64E4E",
"~ 	c #BE6F6F",
"{ 	c #595959",
"] 	c #CB4444",
"^ 	c #B44040",
"/ 	c #A03C3C",
"( 	c #913A3A",
"_ 	c #953A3A",
": 	c #A33C3C",
"< 	c #BA4040",
"[ 	c #D24545",
"} 	c #DA4747",
"| 	c #BA6F6F",
"1 	c #AD9191",
"2 	c #D44545",
"3 	c #973A3A",
"4 	c #7E3535",
"5 	c #6F4242",
"6 	c #6E4F4F",
"7 	c #6A5858",
"8 	c #675E5E",
"9 	c #6D5757",
"0 	c #764F4F",
"a 	c #854545",
"b 	c #A43D3D",
"c 	c #C14242",
"d 	c #D64646",
"e 	c #CB5555",
"f 	c #A48888",
"g 	c #903939",
"h 	c #743B3B",
"i 	c #6B5050",
"j 	c #645E5E",
"k 	c #616161",
"l 	c #656565",
"m 	c #696969",
"n 	c #6C6C6C",
"o 	c #6D6D6D",
"p 	c #6E6565",
"q 	c #7B5151",
"r 	c #A04242",
"s 	c #D94949",
"t 	c #A57979",
"u 	c #7C3535",
"v 	c #6A4F4F",
"w 	c #626262",
"x 	c #636363",
"y 	c #676767",
"z 	c #6E6E6E",
"A 	c #797979",
"B 	c #808080",
"C 	c #878787",
"D 	c #898989",
"E 	c #717171",
"F 	c #885454",
"G 	c #BF4242",
"H 	c #D14545",
"I 	c #9B7474",
"J 	c #685B5B",
"K 	c #6F6F6F",
"L 	c #7C7C7C",
"M 	c #8A8A8A",
"N 	c #939393",
"O 	c #8B8B8B",
"P 	c #816969",
"Q 	c #AA4848",
"R 	c #D84646",
"S 	c #C04444",
"T 	c #8F7878",
"U 	c #D05A5A",
"V 	c #646464",
"W 	c #949494",
"X 	c #8F8F8F",
"Y 	c #817D7D",
"Z 	c #B15151",
"` 	c #A44A4A",
" .	c #858585",
"..	c #C07474",
"+.	c #606060",
"@.	c #818181",
"#.	c #8B8686",
"$.	c #C95050",
"%.	c #CD4444",
"&.	c #8D5858",
"*.	c #737373",
"=.	c #9E7F7F",
"-.	c #AC3F3F",
";.	c #7E7373",
">.	c #909090",
",.	c #828282",
"'.	c #B56B6B",
").	c #C34343",
"!.	c #815151",
"~.	c #3D3D3D",
"{.	c #767676",
"].	c #8C8C8C",
"^.	c #D34E4E",
"/.	c #963F3F",
"(.	c #727272",
"_.	c #393939",
":.	c #6B6B6B",
"<.	c #353535",
"[.	c #B77171",
"}.	c #A83E3E",
"|.	c #755C5C",
"1.	c #655F5F",
"2.	c #747474",
"3.	c #4C4C4C",
"4.	c #BD4141",
"5.	c #794D4D",
"6.	c #757575",
"7.	c #714444",
"8.	c #666666",
"9.	c #868686",
"0.	c #505050",
"a.	c #C95E5E",
"b.	c #7F4343",
"c.	c #888888",
"d.	c #6F5050",
"e.	c #BB7575",
"f.	c #D54545",
"g.	c #823C3C",
"h.	c #686868",
"i.	c #B08989",
"j.	c #833838",
"k.	c #DA4646",
"l.	c #823636",
"m.	c #929292",
"n.	c #B18A8A",
"o.	c #7E3838",
"p.	c #D55151",
"q.	c #BE7878",
"r.	c #C94444",
"s.	c #7A3C3C",
"t.	c #CC6060",
"u.	c #754242",
"v.	c #704D4D",
"w.	c #919191",
"x.	c #B18888",
"y.	c #8A3838",
"z.	c #695757",
"A.	c #707070",
"B.	c #BE4141",
"C.	c #753939",
"D.	c #9A3B3B",
"E.	c #6B4C4C",
"F.	c #6A6A6A",
"G.	c #AE8F8F",
"H.	c #7A3535",
"I.	c #655E5E",
"J.	c #827E7E",
"K.	c #8F3939",
"L.	c #694D4D",
"M.	c #6D3F3F",
"N.	c #787878",
"O.	c #AF9090",
"P.	c #645858",
"Q.	c #B46A6A",
"R.	c #BF7676",
"S.	c #D65151",
"T.	c #B18989",
"U.	c #7B7B7B",
"V.	c #2F2F2F",
"W.	c #4A4A4A",
"X.	c #763A3A",
"Y.	c #764343",
"Z.	c #444444",
"`.	c #848484",
" +	c #7F7F7F",
".+	c #565656",
"++	c #585858",
"@+	c #959595",
"                                                                                                ",
"                          .                                                                     ",
"                          .                                                                     ",
"                          .                                                                     ",
"                          .                                                                     ",
"            +         . . . . .                                                                 ",
"          @ # +         . . .                                                                   ",
"          $ @ # +       . . .         % & * = - ; - = > , '                                     ",
"            $ @ # +       .       & ) ; ; ; ; ; ; ; ; ; ; ; ! ~                                 ",
"          {   $ @ # +         . . ; ; ; ] ^ / ( _ : < [ } } ; ; ; |                             ",
"        {   {   $ @ # +   1 . . . 2 < 3 4 5 6 7 8 9 0 a b c d } } ; e f                         ",
"          {   {   $ . . . - . . . g h i j k k l m n o n p q r ] } } ; s t                       ",
"            {   {   . . . . . . u v w k x y z A B C D C B A E F G 2 } } H I                     ",
"              {   { . . . . . . J k k m K L M N           N O B P Q [ } R S T                   ",
"                {   U . . . . . k l y V L W                     X Y Z R } 2 `  .                ",
"                  ..; . . . . . . K +.w @.                          #.$.; } %.&.D               ",
"                  ; . . . . . . . . { +.*.O                           =.; } } -.;.>.            ",
"                & . . . . . l . . # + w m ,.                            '.; } ).!.B             ",
"                ) . . . . w ~.. $ @ # + {.].                              ^.; R /.(.].          ",
"              % ; . . . k _.:.<.E $ @ # +                                 [.; } }.|.B           ",
"              & ; ] 4 1.w l _.2.3.  $ @ # +                                 ; } 4.5.6.>.        ",
"              * ; ^ 7.k 8.6.9.0.  {   $ @ # +                               a.; ] b.o c.        ",
"              = ; / d.w K M     {   {   $ @ # +                             e.; f.g.h.B         ",
"              - ; ( 7 l A N       {   {   $ @ # +                           i.; } j.l A W       ",
"              ; ; _ 8 m B           {   {   $ @ # +                           ; k.l.x 6.m.      ",
"              - ; : 9 :.9.            {   {   $ @ # +                       n.; 2 o.w (.>.      ",
"              p.; < 0 o D               {   {   $ @ # +                     q.; r.s.w E >.      ",
"              > ; [ a :.C                 {   {   $ @ # +                   t.; < u.w (.>.      ",
"              , ; } b p B                   {   {   $ @ # +                 ; ; b v.w 2.w.      ",
"              x.; } c q A N                   {   {   $ @ # +             q.; f.y.z.x E >.      ",
"                ! ; d r A.O                     {   {   $ @ # +           . . B.C.w y z O       ",
"                ~ ; } ] F B                       {   {   $ @ # +       . . . D.E.k F.K ].      ",
"                  ; } } G P X                       { . {   $ @ . . . G.. . . H.I.w n 2.m.      ",
"                  | ; } 2 Q J.                        . . .   $ . . . . . . K.L.k 8.:.@.        ",
"                    e ; } [ Z #.        . . . . . . . . . . .   . . . . . . M.k w A.N.O         ",
"                    f s } } R $.=.                    . . .   { O.. . . . . P.k F.n o C         ",
"                      t H R } ; ; Q.                  .     { R.; . . . . . . x z w 8.N.X       ",
"                        I S 2 } } ; ^.[.                  q.S.; . . . . . . . . +.8.h.A.9.      ",
"                          T ` %.} } ; ; ; a.e.T.  n.q.t.; ; ; . . . . . $ . . + z L 6.U.X       ",
"                             .&.-.).R } } ; ; ; ; ; ; ; ; f.B.. . . . V.W.. @ # + >.c.X         ",
"                              D ;.!./.}.4.] f.} k.2 r.< b y.X.. . . <.w <.V $ @ # +             ",
"                                >.B (.|.5.b.g.j.l.o.s.Y.v.z.w k x h.E Z.`.3.W $ @ # +           ",
"                                    ].B 6.o h.l x w w w x l h.o 6. +].  .+  ++  $ @ # +         ",
"                                        >.c.B A 6.(.E (.6.A B c.>.        {   {   $ @ #         ",
"                                              @+m.w.>.w.m.@+                {   {   $           ",
"                                                                              {   {             ",
"                                                                                {               ",
"                                                                                                "};
