/* XPM */
static char * line_menu_xpm[] = {
"48 48 8 1",
" 	c None",
".	c #F76F6F",
"+	c #BC2121",
"@	c #DB2525",
"#	c #600D0D",
"$	c #5E5E5E",
"%	c #000000",
"&	c #10CE53",
"                                                ",
"                                                ",
"                                                ",
"                                                ",
"                                                ",
"                                                ",
"                                                ",
"                                                ",
"         .                                      ",
"        +@.                                     ",
"        #+@.                                    ",
"         #+@.                                   ",
"        $ #+@.                                  ",
"       $ $ #+@.                                 ",
"        $ $ #+@.                                ",
"         $ $ #+@.                               ",
"          $ $ #+@.                              ",
"           $ $ #+@.                             ",
"            $ $ #+@.                            ",
"             $ $ #+@.                           ",
"              $ $ #+@.                          ",
"               $ $ #+@.                         ",
"                $ $ #+@.                        ",
"                 $ $ #+@.                       ",
"                  $ $ #+@.                      ",
"                   $ $ #+@.                     ",
"                    $ $ #+@.                    ",
"                     $ $ #+@.                   ",
"                      $ $ #+@.                  ",
"                       $ $ #+@.                 ",
"                        $ $ #+@.                ",
"                         $ $ #+@.               ",
"                          $ $ #+@.              ",
"                           $ $ #+@.             ",
"                            $ $ #+@.            ",
"                             $ $ #+@.           ",
"                              $ $ #+@.          ",
"                               $ $ #+@.         ",
"                                $ $ #+@         ",
"                                 $ $ # $        ",
"                                  $ $ $         ",
"                                   $ $          ",
"                                    $  %%%%%%%%%",
"                                       %&&&&&&&%",
"                                        %&&&&&% ",
"                                         %&&&%  ",
"                                          %&%   ",
"                                           %    "};
