/* XPM */
static char * line_xpm[] = {
"48 48 10 1",
" 	c None",
".	c #FFA8A8",
"+	c #BC2121",
"@	c #DB2525",
"#	c #F76F6F",
"$	c #600D0D",
"%	c #5E5E5E",
"&	c #000000",
"*	c #636363",
"=	c #6E6C6A",
"                                                ",
"  .                                             ",
" +@.                                            ",
"  +@#                                           ",
"  $+@#                                          ",
" % $+@#    &&                                   ",
"% % $+@#  &&&                                   ",
" % % $&&& &&&                                   ",
"  % % &&&&&&                                    ",
"   % %&&&&&&                                    ",
"    % %&&&&&* *                                 ",
"     % &&&&&&*                                  ",
"      &&&&&&&&*                                 ",
"     &&&&& &&@#                                 ",
"     &&&& * $+@#                                ",
"     &&& * * $+@#                               ",
"        * * * $+@#                              ",
"       * * * * $+@#                             ",
"      * * * * % $+@#                            ",
"       * *   % % $+@#                           ",
"      = *     % % $+@#                          ",
"               % % $+@.                         ",
"                % % $+@.                        ",
"                 % % $+@#                       ",
"                  % % $+@#                      ",
"                   % % $+@#                     ",
"                    % % $+@#                    ",
"                     % % $+@#                   ",
"                      % % $+@#                  ",
"                       % % $+@#                 ",
"                        % % $+@#                ",
"                         % % $+@#               ",
"                          % % $+@#    &&        ",
"                           % % $+@#  &&&        ",
"                            % % $&&& &&&        ",
"                             % % &&&&&&         ",
"                              % %&&&&&& *       ",
"                               % *&&&&&*        ",
"                                * &&&&&&*       ",
"                                 &&&&&&&&       ",
"                                &&&&& &&@#      ",
"                                &&&& * $+@#     ",
"                                &&& * * $+@#    ",
"                                 * * * * $+@#   ",
"                                * * * * * $+@.  ",
"                                 * *       $+   ",
"                                = *             ",
"                                                "};
