/* XPM */
static char * macro_menu_xpm[] = {
"48 48 945 2",
"  	c None",
". 	c #4E4E55",
"+ 	c #414244",
"@ 	c #484849",
"# 	c #595958",
"$ 	c #848594",
"% 	c #767884",
"& 	c #515258",
"* 	c #3A393D",
"= 	c #6D6E78",
"- 	c #81838F",
"; 	c #878996",
"> 	c #838692",
", 	c #56575C",
"' 	c #565656",
") 	c #6D6E77",
"! 	c #9C9FAC",
"~ 	c #9B9DAB",
"{ 	c #A2A6B6",
"] 	c #6E7079",
"^ 	c #656464",
"/ 	c #545453",
"( 	c #30302E",
"_ 	c #333331",
": 	c #434342",
"< 	c #3B3B3C",
"[ 	c #474A4D",
"} 	c #585A61",
"| 	c #818494",
"1 	c #5F626A",
"2 	c #848693",
"3 	c #898996",
"4 	c #7D7F8C",
"5 	c #4E4E52",
"6 	c #6A6A6D",
"7 	c #68686A",
"8 	c #525355",
"9 	c #9B9EAE",
"0 	c #9495A3",
"a 	c #9195A3",
"b 	c #979BA8",
"c 	c #5B5D65",
"d 	c #504F4F",
"e 	c #4A4A49",
"f 	c #444346",
"g 	c #8F92A0",
"h 	c #B6B9CA",
"i 	c #9CA0AD",
"j 	c #57585D",
"k 	c #353536",
"l 	c #454646",
"m 	c #484A4F",
"n 	c #74767E",
"o 	c #7F818C",
"p 	c #7B7B87",
"q 	c #545359",
"r 	c #565757",
"s 	c #565655",
"t 	c #313131",
"u 	c #585960",
"v 	c #7B7E89",
"w 	c #858794",
"x 	c #898B98",
"y 	c #9194A1",
"z 	c #898B99",
"A 	c #737683",
"B 	c #56575F",
"C 	c #6C6D78",
"D 	c #9799A9",
"E 	c #9EA0AF",
"F 	c #9A9CAB",
"G 	c #9B9DAD",
"H 	c #9D9FAE",
"I 	c #6F707B",
"J 	c #3E3F42",
"K 	c #444447",
"L 	c #6D6E79",
"M 	c #9797A7",
"N 	c #A8ABBB",
"O 	c #ACAEC0",
"P 	c #A9ABBC",
"Q 	c #A1A1B2",
"R 	c #57575C",
"S 	c #3E3D3D",
"T 	c #55545D",
"U 	c #4C4D53",
"V 	c #63656D",
"W 	c #777982",
"X 	c #7D7D89",
"Y 	c #7F808C",
"Z 	c #7A7D88",
"` 	c #64656F",
" .	c #686973",
"..	c #80838F",
"+.	c #898C9A",
"@.	c #878995",
"#.	c #686A74",
"$.	c #525357",
"%.	c #4D4F56",
"&.	c #504F56",
"*.	c #4D4E56",
"=.	c #4A4D52",
"-.	c #4C4C51",
";.	c #4F4F55",
">.	c #56585F",
",.	c #757780",
"'.	c #A1A3B3",
").	c #AFB3C4",
"!.	c #B1B3C5",
"~.	c #ACAFC1",
"{.	c #A4A7B6",
"].	c #A3A6B5",
"^.	c #9193A0",
"/.	c #161615",
"(.	c #646671",
"_.	c #A8ABBF",
":.	c #63636E",
"<.	c #9B9FB1",
"[.	c #757784",
"}.	c #5D5E66",
"|.	c #787A84",
"1.	c #777984",
"2.	c #787B86",
"3.	c #7D7F8A",
"4.	c #848692",
"5.	c #797C85",
"6.	c #4A4B52",
"7.	c #393A3C",
"8.	c #38393C",
"9.	c #4A4A50",
"0.	c #737681",
"a.	c #9093A0",
"b.	c #9FA2AD",
"c.	c #BBBCC2",
"d.	c #CBCCCF",
"e.	c #C2C1C6",
"f.	c #9EA0AC",
"g.	c #979AA7",
"h.	c #46484B",
"i.	c #39393C",
"j.	c #3A3B3E",
"k.	c #4E4F56",
"l.	c #9293A3",
"m.	c #A2A6B5",
"n.	c #A3A5B6",
"o.	c #9EA0B0",
"p.	c #4A4850",
"q.	c #7F8190",
"r.	c #878A99",
"s.	c #55565C",
"t.	c #515254",
"u.	c #636467",
"v.	c #A3A7BA",
"w.	c #858796",
"x.	c #62646C",
"y.	c #80828E",
"z.	c #7A7B86",
"A.	c #7A7C86",
"B.	c #7C7E87",
"C.	c #7B7D88",
"D.	c #353537",
"E.	c #1F1E1D",
"F.	c #A2A5B4",
"G.	c #C2C6DB",
"H.	c #BDC0D5",
"I.	c #B9BCD1",
"J.	c #BABCCE",
"K.	c #D5D8E3",
"L.	c #F4F5FC",
"M.	c #FFFFFF",
"N.	c #F6F7FE",
"O.	c #D6D6E2",
"P.	c #CDCFDD",
"Q.	c #C0C2D5",
"R.	c #BEC1D6",
"S.	c #C0C4D9",
"T.	c #9EA1B1",
"U.	c #21201F",
"V.	c #363538",
"W.	c #989AA8",
"X.	c #ABACBD",
"Y.	c #A0A2B2",
"Z.	c #727680",
"`.	c #8B8E9B",
" +	c #A5A7B9",
".+	c #BEC2D5",
"++	c #555556",
"@+	c #494949",
"#+	c #62616A",
"$+	c #71727D",
"%+	c #696872",
"&+	c #63646D",
"*+	c #696B73",
"=+	c #7E808C",
"-+	c #828390",
";+	c #80828F",
">+	c #55585E",
",+	c #3A393B",
"'+	c #333234",
")+	c #383939",
"!+	c #575964",
"~+	c #737384",
"{+	c #888791",
"]+	c #96979C",
"^+	c #A09FA3",
"/+	c #9D9DA2",
"(+	c #83868E",
"_+	c #7F818B",
":+	c #5D5E67",
"<+	c #38383B",
"[+	c #343537",
"}+	c #62656D",
"|+	c #A4A5B7",
"1+	c #A4A7B7",
"2+	c #A5A8B7",
"3+	c #A8AABB",
"4+	c #9597A5",
"5+	c #8E909E",
"6+	c #ABAEC1",
"7+	c #B5B8CB",
"8+	c #AEB0C2",
"9+	c #303030",
"0+	c #2E2E2E",
"a+	c #595A62",
"b+	c #797A85",
"c+	c #5C5D65",
"d+	c #676773",
"e+	c #5F616A",
"f+	c #737580",
"g+	c #81818E",
"h+	c #828490",
"i+	c #888A97",
"j+	c #8E8F9E",
"k+	c #90939F",
"l+	c #7B7D87",
"m+	c #696A72",
"n+	c #606168",
"o+	c #5A5D64",
"p+	c #5A5B65",
"q+	c #5C5D67",
"r+	c #606069",
"s+	c #64666E",
"t+	c #6E6F7A",
"u+	c #888A99",
"v+	c #A7ABBB",
"w+	c #ACB0BF",
"x+	c #A7AABB",
"y+	c #A2A5B5",
"z+	c #A1A4B3",
"A+	c #A8A9BA",
"B+	c #7C7E88",
"C+	c #3F3D43",
"D+	c #5D5F68",
"E+	c #3F3F43",
"F+	c #676873",
"G+	c #252523",
"H+	c #747681",
"I+	c #4B4C54",
"J+	c #323133",
"K+	c #80818F",
"L+	c #A9ABBE",
"M+	c #A2A4B8",
"N+	c #8A8E9D",
"O+	c #575760",
"P+	c #63656F",
"Q+	c #818390",
"R+	c #878A96",
"S+	c #838491",
"T+	c #767985",
"U+	c #797986",
"V+	c #9496A3",
"W+	c #9698A8",
"X+	c #9898A7",
"Y+	c #989BAA",
"Z+	c #9A9DAC",
"`+	c #A0A4B1",
" @	c #A3A5B5",
".@	c #8D8F9E",
"+@	c #757984",
"@@	c #9EA2B1",
"#@	c #A0A3B2",
"$@	c #AAABBC",
"%@	c #7F7F8B",
"&@	c #9FA1B4",
"*@	c #8E90A2",
"=@	c #848697",
"-@	c #48484C",
";@	c #B2B5C8",
">@	c #3B3C3E",
",@	c #AFB2C2",
"'@	c #A9ADBE",
")@	c #9FA1B3",
"!@	c #71727E",
"~@	c #3F3F45",
"{@	c #71747E",
"]@	c #848691",
"^@	c #797C87",
"/@	c #4E4F55",
"(@	c #44454B",
"_@	c #4A4C52",
":@	c #47474F",
"<@	c #4D4F54",
"[@	c #9195A2",
"}@	c #90929F",
"|@	c #9194A2",
"1@	c #9193A3",
"2@	c #898A97",
"3@	c #4D4C54",
"4@	c #36373A",
"5@	c #393A3E",
"6@	c #404045",
"7@	c #595A61",
"8@	c #A6A9B9",
"9@	c #ABADBE",
"0@	c #A5A8B8",
"a@	c #515359",
"b@	c #878999",
"c@	c #858898",
"d@	c #848897",
"e@	c #6B6D7B",
"f@	c #BFC3D6",
"g@	c #454548",
"h@	c #C8CBDD",
"i@	c #ABADBD",
"j@	c #A2A5B8",
"k@	c #4C4C54",
"l@	c #4D4D54",
"m@	c #888996",
"n@	c #8B8D99",
"o@	c #7A7C8A",
"p@	c #49494F",
"q@	c #3D3E43",
"r@	c #696B77",
"s@	c #696C74",
"t@	c #57595F",
"u@	c #292928",
"v@	c #9597A6",
"w@	c #91939F",
"x@	c #9193A1",
"y@	c #73757F",
"z@	c #2B2B2C",
"A@	c #51525A",
"B@	c #52535C",
"C@	c #45464D",
"D@	c #1F1F1E",
"E@	c #3B3B3E",
"F@	c #858895",
"G@	c #AEB1C3",
"H@	c #A5A7B8",
"I@	c #71737C",
"J@	c #373739",
"K@	c #414147",
"L@	c #828494",
"M@	c #808293",
"N@	c #666875",
"O@	c #838593",
"P@	c #BFC2D5",
"Q@	c #3D3D40",
"R@	c #CACEDF",
"S@	c #AAADBD",
"T@	c #9DA0B2",
"U@	c #414346",
"V@	c #434449",
"W@	c #333236",
"X@	c #333334",
"Y@	c #3F3F42",
"Z@	c #383A3D",
"`@	c #6F707A",
" #	c #8B8C9A",
".#	c #8B8D9B",
"+#	c #888A96",
"@#	c #37383B",
"##	c #4E4F57",
"$#	c #9FA1AF",
"%#	c #9EA1B0",
"&#	c #A0A2B3",
"*#	c #383A3C",
"=#	c #414246",
"-#	c #393A3D",
";#	c #323335",
">#	c #3F4042",
",#	c #70717C",
"'#	c #787A88",
")#	c #676976",
"!#	c #939395",
"~#	c #868897",
"{#	c #C0C2D6",
"]#	c #CACCDE",
"^#	c #797A84",
"/#	c #48494F",
"(#	c #3E3F43",
"_#	c #7E808D",
":#	c #A5A9BD",
"<#	c #8F92A1",
"[#	c #494B4F",
"}#	c #666771",
"|#	c #5F606A",
"1#	c #6F717B",
"2#	c #8B8D9A",
"3#	c #656771",
"4#	c #1C1C1B",
"5#	c #303032",
"6#	c #313234",
"7#	c #292A2A",
"8#	c #696B72",
"9#	c #999AA9",
"0#	c #9395A3",
"a#	c #9A9CAA",
"b#	c #9496A4",
"c#	c #39383A",
"d#	c #494B51",
"e#	c #797B85",
"f#	c #3C3C41",
"g#	c #7E7F8B",
"h#	c #757882",
"i#	c #4D4E54",
"j#	c #2E2E30",
"k#	c #424348",
"l#	c #8B8E9C",
"m#	c #C0C3D6",
"n#	c #313132",
"o#	c #47484B",
"p#	c #4B4B4F",
"q#	c #787982",
"r#	c #7C7D89",
"s#	c #505156",
"t#	c #6D6F79",
"u#	c #55575E",
"v#	c #595C65",
"w#	c #838592",
"x#	c #858793",
"y#	c #747580",
"z#	c #61626C",
"A#	c #5B5C64",
"B#	c #7C7D8A",
"C#	c #9396A4",
"D#	c #989BA9",
"E#	c #848592",
"F#	c #262627",
"G#	c #3C3C3F",
"H#	c #9294A3",
"I#	c #AFB2C4",
"J#	c #B5B9CA",
"K#	c #BDC0D4",
"L#	c #B4B7C9",
"M#	c #38393A",
"N#	c #9194A4",
"O#	c #838590",
"P#	c #353739",
"Q#	c #4F5056",
"R#	c #80828C",
"S#	c #7B7E88",
"T#	c #686972",
"U#	c #5A5C63",
"V#	c #3D3F43",
"W#	c #414045",
"X#	c #72747F",
"Y#	c #8C8E9C",
"Z#	c #8D8F9C",
"`#	c #8C8E9B",
" $	c #8F929F",
".$	c #7F808E",
"+$	c #848795",
"@$	c #9598A8",
"#$	c #989CAA",
"$$	c #A6A7B7",
"%$	c #8B8F9B",
"&$	c #989BA8",
"*$	c #A8A9BB",
"=$	c #3F3E42",
"-$	c #5F5F68",
";$	c #9A9DAF",
">$	c #616168",
",$	c #9092A4",
"'$	c #595961",
")$	c #6B6E78",
"!$	c #787A83",
"~$	c #7E818B",
"{$	c #858893",
"]$	c #9394A3",
"^$	c #666971",
"/$	c #505056",
"($	c #45464B",
"_$	c #323336",
":$	c #343437",
"<$	c #414146",
"[$	c #46464A",
"}$	c #525153",
"|$	c #5B5A5A",
"1$	c #565555",
"2$	c #414247",
"3$	c #3B3D40",
"4$	c #2D2D2D",
"5$	c #3D3C41",
"6$	c #5F5F67",
"7$	c #686971",
"8$	c #A2A5B6",
"9$	c #AAACBC",
"0$	c #838492",
"a$	c #2A292B",
"b$	c #A5A9BC",
"c$	c #AEB1C6",
"d$	c #6B6C76",
"e$	c #535353",
"f$	c #57585E",
"g$	c #59595F",
"h$	c #AAAEC2",
"i$	c #6E707C",
"j$	c #787986",
"k$	c #7A7C87",
"l$	c #7E7E8A",
"m$	c #2E2F31",
"n$	c #2B2C2C",
"o$	c #989AA7",
"p$	c #9FA1B2",
"q$	c #A3A7B6",
"r$	c #B1B5C9",
"s$	c #B9BCCE",
"t$	c #CFD1DE",
"u$	c #F0F1FA",
"v$	c #FBFCFF",
"w$	c #DDDEE9",
"x$	c #C8CADA",
"y$	c #C1C3D4",
"z$	c #9CA0AF",
"A$	c #A0A4B2",
"B$	c #201F20",
"C$	c #A8ABBA",
"D$	c #6E707A",
"E$	c #52545A",
"F$	c #4B4C52",
"G$	c #5A5A63",
"H$	c #A9AEBC",
"I$	c #5A5958",
"J$	c #454545",
"K$	c #444445",
"L$	c #424346",
"M$	c #828593",
"N$	c #5C5C64",
"O$	c #7D7F89",
"P$	c #81828E",
"Q$	c #7F808B",
"R$	c #7E8089",
"S$	c #2B2A2B",
"T$	c #56575D",
"U$	c #575960",
"V$	c #999BB1",
"W$	c #B4B8CF",
"X$	c #D4D5E5",
"Y$	c #FCFDFF",
"Z$	c #FCFBFF",
"`$	c #DFE1ED",
" %	c #CFD0E1",
".%	c #B5B7C8",
"+%	c #54565C",
"@%	c #57575E",
"#%	c #303033",
"$%	c #4D4E53",
"%%	c #A4A6B7",
"&%	c #AFB1C2",
"*%	c #BABDD0",
"=%	c #C3C7DA",
"-%	c #C2C6DA",
";%	c #BCC0D3",
">%	c #B6BACD",
",%	c #C1C5D9",
"'%	c #302F30",
")%	c #373736",
"!%	c #505157",
"~%	c #72747D",
"{%	c #61626B",
"]%	c #47474C",
"^%	c #5A5B64",
"/%	c #70737D",
"(%	c #80828D",
"_%	c #787984",
":%	c #515257",
"<%	c #313032",
"[%	c #2D2C2E",
"}%	c #2D2C2D",
"|%	c #2C2C2E",
"1%	c #2B2C2D",
"2%	c #2C2C2D",
"3%	c #2B2C2E",
"4%	c #2D2E2F",
"5%	c #303031",
"6%	c #414248",
"7%	c #757782",
"8%	c #A8AABA",
"9%	c #46484C",
"0%	c #3B3B40",
"a%	c #49484A",
"b%	c #424147",
"c%	c #46474A",
"d%	c #66676F",
"e%	c #727682",
"f%	c #8C8D9E",
"g%	c #9D9FB1",
"h%	c #666773",
"i%	c #434248",
"j%	c #797B88",
"k%	c #868895",
"l%	c #8C8D99",
"m%	c #9396A3",
"n%	c #9A9EAC",
"o%	c #9B9EAD",
"p%	c #9D9FAF",
"q%	c #9FA0B0",
"r%	c #A3A7B5",
"s%	c #A8ABBC",
"t%	c #AFB3C3",
"u%	c #AEB2C2",
"v%	c #A9ABBB",
"w%	c #A3A6B6",
"x%	c #A1A4B1",
"y%	c #A2A4B4",
"z%	c #ADAFC0",
"A%	c #3E3E44",
"B%	c #6B6C78",
"C%	c #999CAE",
"D%	c #6E6E7A",
"E%	c #58585F",
"F%	c #323332",
"G%	c #4F5053",
"H%	c #BDC1D7",
"I%	c #BEC0D3",
"J%	c #A0A2B5",
"K%	c #6F717C",
"L%	c #39393D",
"M%	c #81838D",
"N%	c #858792",
"O%	c #6B6C75",
"P%	c #3E4045",
"Q%	c #3F4045",
"R%	c #9294A2",
"S%	c #9294A1",
"T%	c #9192A0",
"U%	c #9397A5",
"V%	c #9B9DAC",
"W%	c #8B8C99",
"X%	c #5F6069",
"Y%	c #2C2D30",
"Z%	c #9EA2B0",
"`%	c #A5A7B6",
" &	c #AEB0C1",
".&	c #585962",
"+&	c #858998",
"@&	c #8D91A3",
"#&	c #494A4C",
"$&	c #B9BDD1",
"%&	c #C0C4D5",
"&&	c #A5A6B7",
"*&	c #A2A6B9",
"=&	c #36363A",
"-&	c #8E8F9D",
";&	c #51535A",
">&	c #7A7C89",
",&	c #7F818F",
"'&	c #343337",
")&	c #666670",
"!&	c #9698A5",
"~&	c #9799A7",
"{&	c #424347",
"]&	c #7C7E8D",
"^&	c #838696",
"/&	c #6B6D76",
"(&	c #AEB2C3",
"_&	c #B2B4C6",
":&	c #A4A9B7",
"<&	c #494A4B",
"[&	c #B8BBD1",
"}&	c #7A7B85",
"|&	c #C2C4D6",
"1&	c #A5A8B9",
"2&	c #A7AABE",
"3&	c #191816",
"4&	c #47474A",
"5&	c #55585D",
"6&	c #5E5F68",
"7&	c #797982",
"8&	c #9D9FAC",
"9&	c #9FA3B5",
"0&	c #A1A5B8",
"a&	c #44464C",
"b&	c #9B9DAE",
"c&	c #989AA9",
"d&	c #9FA1B0",
"e&	c #797B87",
"f&	c #8E91A0",
"g&	c #999CAF",
"h&	c #8F93A2",
"i&	c #797A8A",
"j&	c #4F4F57",
"k&	c #65666F",
"l&	c #5B5C62",
"m&	c #363539",
"n&	c #8A8C9C",
"o&	c #818595",
"p&	c #B7BBD1",
"q&	c #C3C5D6",
"r&	c #A4A8BC",
"s&	c #363537",
"t&	c #A1A5B6",
"u&	c #848694",
"v&	c #61626A",
"w&	c #1F201F",
"x&	c #B4B6C2",
"y&	c #B9BBC9",
"z&	c #A6AABB",
"A&	c #9C9FB0",
"B&	c #999DAE",
"C&	c #858797",
"D&	c #212121",
"E&	c #5A5B62",
"F&	c #B6B9CD",
"G&	c #9597A8",
"H&	c #888A9A",
"I&	c #838494",
"J&	c #71737F",
"K&	c #3A3C3E",
"L&	c #9496A5",
"M&	c #AFB1C3",
"N&	c #44454A",
"O&	c #8F91A3",
"P&	c #818593",
"Q&	c #B9BBD0",
"R&	c #C4C5D6",
"S&	c #A3A6BA",
"T&	c #363638",
"U&	c #BABED2",
"V&	c #A5A9B9",
"W&	c #B2B4C8",
"X&	c #505259",
"Y&	c #B8BCC8",
"Z&	c #BDBECB",
"`&	c #9DA0B0",
" *	c #9699AB",
".*	c #888998",
"+*	c #6B6D77",
"@*	c #61636A",
"#*	c #62636B",
"$*	c #656770",
"%*	c #4E4E53",
"&*	c #C5C7DB",
"**	c #9395A6",
"=*	c #868998",
"-*	c #7F8290",
";*	c #6F727F",
">*	c #5C5C62",
",*	c #B8BBCE",
"'*	c #ABAEBF",
")*	c #ACAFC0",
"!*	c #404245",
"~*	c #9192A5",
"{*	c #4C4D4F",
"]*	c #787A85",
"^*	c #A1A4B8",
"/*	c #323233",
"(*	c #A3A4B5",
"_*	c #B3B6C9",
":*	c #B7B9C5",
"<*	c #C0C1CD",
"[*	c #A4A7B8",
"}*	c #9FA0B1",
"|*	c #989BAC",
"1*	c #5A5A61",
"2*	c #BDC0D3",
"3*	c #B3B6C7",
"4*	c #BDC1D3",
"5*	c #37373A",
"6*	c #C8C9E1",
"7*	c #9397A8",
"8*	c #87899B",
"9*	c #7E818F",
"0*	c #6E6F7C",
"a*	c #5B5B62",
"b*	c #A7AABA",
"c*	c #A4A6B6",
"d*	c #3F4146",
"e*	c #8F92A3",
"f*	c #818393",
"g*	c #868893",
"h*	c #504F51",
"i*	c #BBBDD3",
"j*	c #7A7C88",
"k*	c #C1C4D7",
"l*	c #A3A6B9",
"m*	c #303034",
"n*	c #B4B8C9",
"o*	c #505057",
"p*	c #B6B8C6",
"q*	c #C2C2D0",
"r*	c #9DA0B1",
"s*	c #9699AA",
"t*	c #56565C",
"u*	c #A6A9BA",
"v*	c #A6A8BA",
"w*	c #B7BACC",
"x*	c #333436",
"y*	c #C9CDE3",
"z*	c #9498AA",
"A*	c #878A9A",
"B*	c #6C6F7B",
"C*	c #9293A6",
"D*	c #818493",
"E*	c #58595A",
"F*	c #A1A4B6",
"G*	c #CBCEE0",
"H*	c #B2B4C7",
"I*	c #363639",
"J*	c #B5B7C9",
"K*	c #B4B8C4",
"L*	c #C1C3D2",
"M*	c #9DA0AF",
"N*	c #A6A9BB",
"O*	c #A6ABBA",
"P*	c #343435",
"Q*	c #7F8191",
"R*	c #6C6F7C",
"S*	c #A6A8B8",
"T*	c #A6A8B9",
"U*	c #9D9FB3",
"V*	c #363739",
"W*	c #6E6F78",
"X*	c #A2A4B3",
"Y*	c #67686F",
"Z*	c #57585C",
"`*	c #B9BBCF",
" =	c #A8ACBC",
".=	c #B3B7C3",
"+=	c #C2C4D3",
"@=	c #54545C",
"#=	c #A5A8BB",
"$=	c #A7ABBC",
"%=	c #B6B7CB",
"&=	c #C6CAE0",
"*=	c #9899AA",
"==	c #878B99",
"-=	c #5A5B61",
";=	c #B5B8CA",
">=	c #ABAEBE",
",=	c #A9ACBC",
"'=	c #272625",
")=	c #67686D",
"!=	c #7F828F",
"~=	c #1B1B17",
"{=	c #6B6C6F",
"]=	c #3D3E40",
"^=	c #B5B9CB",
"/=	c #4E4E54",
"(=	c #B2B4C2",
"_=	c #C9CAD9",
":=	c #ADB1C2",
"<=	c #A3A6B8",
"[=	c #9C9FB2",
"}=	c #55545C",
"|=	c #A5A8BC",
"1=	c #B6B8CB",
"2=	c #C9CDE4",
"3=	c #A7A9BD",
"4=	c #9A9EB0",
"5=	c #8A8C9E",
"6=	c #717582",
"7=	c #57595E",
"8=	c #B4B6C8",
"9=	c #AAACBD",
"0=	c #ABAFBF",
"a=	c #41413F",
"b=	c #363636",
"c=	c #949494",
"d=	c #444444",
"e=	c #4B4C50",
"f=	c #BCBED2",
"g=	c #ADAFBF",
"h=	c #53535A",
"i=	c #ABADBB",
"j=	c #9E9FAB",
"k=	c #61636B",
"l=	c #676871",
"m=	c #868795",
"n=	c #898D9D",
"o=	c #56565E",
"p=	c #A4A6BA",
"q=	c #A4A7BC",
"r=	c #9699A8",
"s=	c #494A4D",
"t=	c #56575B",
"u=	c #ADB0C0",
"v=	c #B8BBCD",
"w=	c #50504E",
"x=	c #919191",
"y=	c #909090",
"z=	c #3C3C3E",
"A=	c #BEC2D7",
"B=	c #62646D",
"C=	c #626264",
"D=	c #515151",
"E=	c #5E5E66",
"F=	c #5B5D64",
"G=	c #B3B6C8",
"H=	c #A4A7BA",
"I=	c #A5A8BD",
"J=	c #BABBD0",
"K=	c #474749",
"L=	c #5B5B5F",
"M=	c #6A6C75",
"N=	c #C9CCE1",
"O=	c #4E4F54",
"P=	c #3C3C40",
"Q=	c #31302F",
"R=	c #535251",
"S=	c #3C3C3A",
"T=	c #323234",
"U=	c #5A5959",
"V=	c #9A9A9A",
"W=	c #464646",
"X=	c #404040",
"Y=	c #646570",
"Z=	c #BCC0D6",
"`=	c #B8BACF",
" -	c #B5B9CD",
".-	c #B2B7CB",
"+-	c #BABED3",
"@-	c #6A6A69",
"#-	c #464747",
"$-	c #2D2E2D",
"%-	c #353534",
"&-	c #32312F",
"*-	c #737374",
"=-	c #4E4E4F",
"--	c #242321",
";-	c #353635",
">-	c #30312F",
",-	c #2E2F2E",
"'-	c #313231",
")-	c #2F2E2C",
"!-	c #979899",
"~-	c #474747",
"{-	c #959697",
"]-	c #4A4A4B",
"^-	c #959596",
"/-	c #484949",
"(-	c #949495",
"_-	c #000000",
":-	c #10CE53",
"                                                                                                ",
"                                                                                                ",
"                                                . . . .                                         ",
"                            + . . . @         # . $ % & *                                       ",
"                          . = - ; > ,         ' ) ! ~ { ] ^     / ( _ :                         ",
"              < [ }       . | 1 2 3 4 5 6   7 8 9 0 a b c d   e f g h i j k                     ",
"          l m n o p q r s t u v w x y z A B C D E F G H I J K L M N O P Q R S                   ",
"        . T U V W X Y Z `  ...+.@.#.$.U %.&.*.=.-.;.>.,.'.).!.~.{.].^./.(._.:.                  ",
"        . <.[.}.|.1.2.3.4.5.6.7.8.9.0.a.b.c.d.e.f.g.1.h.i.j.k.l.m.n.o.p.q.r.s.t.u.              ",
"        . v.w.x.y.z.A.B.C.D.E.F.G.H.I.J.K.L.M.N.O.P.Q.R.S.T.U.V.W.F.X.Y.o Z.`. +.+++            ",
"    . @+#+` $+%+&+*+3.=+-+;+>+,+'+)+!+~+{+]+^+/+(+_+:+<+[+J }+|+1+2+3+4+z 5+6+7+8+9+            ",
"    . 0+a+b+c+k.d+e+. f+g+h+i+j+k+l+m+n+c+o+p+q+r+s+t+u+v+w+x+y+z+A+B+C+D+E+. . F+G+            ",
"    . H+I+J+K+L+M+N+O+P+Q+- 2 R+S+T+U+V+W.W+X+Y+Z+`+ @.@+@h+@@y+#@$@%@D+&@*@=@. -@              ",
"    . K+;@>@,@'@)@!@~@{@-+]@^@/@(@_@:@<@w.[@}@|@1@2@3@4@5@6@7@8@2+9@0@a@b@c@d@e@.               ",
"    . y.f@g@h@i@j@k@l@m@n@o@p@q@r@s@t@u@r+v@w@x@y@z@A@B@C@D@E@F@G@H@I@J@K@L@M@N@.               ",
"    . O@P@Q@R@S@T@U@V@W@X@Y@Z@`@ #.#+#@###$#%#&#_+V@ @~ F @.*#=#-#;#X@>#X@,#'#)#. !#            ",
"    . ~#{#<+]#^#/#(#_#:#<#[#}#|#1#2 2#3#4#J+5#6#7#8#9#0#a#b#c#d#2#e#f#g#h#i#j#k#.               ",
"    . l#m#n#o#p#q#r#s#t#l#u#& v#w#x#@.}@y#z#A#6.B#Z+4+C#D#E#8.F#G#& H#I#J#K#L#M#.               ",
"    . N#O#P#Q#R#S#B+]@T#U#V#W#X#Y#Z#`#2# $.@.$+$@$0 4+#$%#$$v@%$&$*$0@0@^.=$-$r.k#              ",
"    . ;$>$,$'$q@)$!$p ~${$`#]$^$/$($_$:$<$[$}$|$1$o#2$3$4$5$6$7$8$9$F.0@0$a$b$c$/@d$e$          ",
"    . f$g$h$_.i$|.B+j$k$3.l$m$n$o$p$q$r$s$t$u$M.v$w$x$y$O z$A$& B$y@].q$C$D$E$F$G$w H$I$        ",
"    J$K$L$i$M$N$O$P$Q$R$o y.s.S$T$U$L V$W$X$u$Y$Z$`$ %.%4.+%@%#%$%n@{.%%&%*%=%-%;%>%,%'%        ",
"      )%!%C.~%{%]%U ^%/%O#h+i+h+(%_%:%<%[%}%|%1%2%3%4%5%6%7%W.a#8%0@].9@- 9%E+0%k$L+.#.         ",
"    J$a%b%c%d%e%f%g%h%i%j%g+h+k%l%m%n%%#E o%G p%q%'.r%s%8+t%u%v%w%x%y%z%A%B%C%D%E%/$F%.         ",
"      G%H%-@. I%%%J%K%L%`.M%N%w O%E$P%Q%L R%S%T%R%U%V%W%X%Y%4%X%Z%`%y% &x#.&;$+&@&. x .         ",
"    J$#&$&3.. %&&&*&=&d%-&2@2 ^%;&>&~#,&'&)&!&^.H#~&4+{&*.]&^&. /&(&!._&:&5$,&=@^&. x#.         ",
"      <&[&}&. |&1&2&3&4@4&5&6&7&8&6+9&0&$+a&b&X+c&d&e&<$f&g&h&i&j&k&l&m&[+s#{&n&o&. @..         ",
"    J$<&p&e#. q&1+r&s&t&u&v&w&x&y&z&A&B&C&D&C.^#A.(%E&a@F&G&H&I&J&K&L&D#&%M&N&O&P&. @..         ",
"      <&Q&}&. R& +S&T&U&V&W&X&Y&Z&H@`& *.*5%+*@*#*$*1#%*&***=*-*;*>*,*'*)*&&!*~*P&. {$.         ",
"    J${*Q&]*. |&2+^*/*s$(*_*Q#:*<*[*}*|*=*1*2*3*3*3*4*5*6*7*8*9*0*a*L#b*S@c*d*e*f*. g*.         ",
"      h*i*j*. k*&&l*m*>%$$n*o*p*q*1+r*s*+$t*_*u*v*u*w*x*y*z*A*9*B*a*L#b*S@c*<$C*D*. {$.         ",
"    J$E*F*]@. G*H*I#I*w*b*J*. K*L* +M*s*+$t*_*C$N*O*w*P*y*s*A*Q*R*a*L#S*S@T*/#U*r.. . .         ",
"      J$V*W*. X*Y*Z*D.`* =J#/@.=+=V&`& *+$@=_*8%#=$=%=X@&=*===-*B*-=;=8@>=,='=)=!=. 7.J$        ",
"    J$  J$~=. {=J$J$]=s$9$^=/=(=_=:=<=[==*}=_*C$v.|=1=D.2=3=4=5=6=7=8=8@9=0=a=J$b=u@J$          ",
"      J$  J$  J$c=d=e=f=g=.%h=i=j=k=l=m=n=o=L#N p=q=>%J@r=s=<&t=i$1*;=u=v=O w=J$x=J$y=J$        ",
"    J$  J$  J$  J$  z=h+A=-%B=, C=J$J$D=E=F=G=b*H=I=J=2%K=J$J$J$L=M=N=Y.O=P=Q=  J$  J$          ",
"      J$  J$  J$  J$  R=S=< T=U=V=W=  J$X=Y=Z=`= -.-+-5%@-J$  #-: $-%-&-*-=-  J$  J$  J$        ",
"        J$  J$      J$  J$  J$  J$  J$  J$--;->-,-'-7.)-J$  J$  J$  J$!-J$  J$  J$  J$          ",
"                      J$  J$  J$  J$  J$  ~-{-]-^-/-(-J$  J$  J$  J$  J$  J$                    ",
"                    J$  J$  J$          J$  J$  J$  J$  J$      J$  J$  J$  J$                  ",
"                      J$  J$              J$  J$  J$  J$          J$  J$                        ",
"                                            J$  J$  J$                                          ",
"                                                                              _-_-_-_-_-_-_-_-_-",
"                                                                              _-:-:-:-:-:-:-:-_-",
"                                                                                _-:-:-:-:-:-_-  ",
"                                                                                  _-:-:-:-_-    ",
"                                                                                    _-:-_-      ",
"                                                                                      _-        "};
