/* XPM */
static char * segment_xpm[] = {
"48 48 9 1",
" 	c None",
".	c #000000",
"+	c #636363",
"@	c #5E5E5E",
"#	c #DB2525",
"$	c #F76F6F",
"%	c #600D0D",
"&	c #BC2121",
"*	c #6E6C6A",
"                                                ",
"                                                ",
"                                                ",
"                                                ",
"                                                ",
"           ..                                   ",
"          ...                                   ",
"      ... ...                                   ",
"      ......            .                       ",
"      ......            .                       ",
"       .....+ +       @ .                       ",
"       ......+        @ .                       ",
"      ........+       @ .                       ",
"     ..... ..#$       @ .                       ",
"     .... + %&#$      @ .                       ",
"     ... + + %&#$   @ .....                     ",
"        + + + %&#$   @ ...                      ",
"       + + + + %&#$   @...                      ",
"      + + + + @ %&#$  @ .                       ",
"       + +   @ @ %&#$  @   .                    ",
"      * +     @ @ %&#$    ..                    ",
"               @ @ %&#$  ..                     ",
"                @ @ %&#$.. @                    ",
"                 @ @ %&.. @                     ",
"                  @ @ ..#$                      ",
"                   @ ..%&#$                     ",
"                    ..@ %&#$                    ",
"                   ..@ @ %&#$                   ",
"                  ..@ @ @ %&#$                  ",
"                   @ @ @ @ %&#$                 ",
"                    @   @ @ %&#$                ",
"                         @ @ %&#$               ",
"                          @ @ %&#$    ..        ",
"                           @ @ %&#$  ...        ",
"                            @ @ %... ...        ",
"                             @ @ ......         ",
"                              @ @...... +       ",
"                               @ +.....+        ",
"                                + ......+       ",
"                                 ........       ",
"                                ..... ..        ",
"                                .... + +        ",
"                                ... + + +       ",
"                                 + + + +        ",
"                                + + + + +       ",
"                                 + +            ",
"                                * +             ",
"                                                "};
