/* XPM */
static char * move_xpm[] = {
"48 48 5 1",
" 	c None",
".	c #4B4B4B",
"+	c #000000",
"@	c #595959",
"#	c #646260",
"                                                ",
"                                                ",
"                                                ",
"                                                ",
"                                                ",
"                                                ",
"      .                                  .      ",
"      ....                            ....      ",
"      ......                        ......      ",
"      .....                          .....      ",
"      ....                            ....      ",
"      .. ..                          .. ..      ",
"      .   ..                        ..   .      ",
"          ...                      ...          ",
"           ...                    ...           ",
"           ....                  ....           ",
"            ....                ....            ",
"             ....        ++    ....             ",
"              ....      +++   ....              ",
"               ..   +++ +++    ..               ",
"                    ++++++                      ",
"                    ++++++@                     ",
"                   @ +++++                      ",
"                  @ @++++++                     ",
"                   @++++++++                    ",
"                   +++++@++                     ",
"                   ++++@ +                      ",
"                   +++@ @ @                     ",
"              ..   @ @ @ @  ..                  ",
"             .... @ @ @ @  ....                 ",
"            ....   @ @      ....                ",
"           ....   # @        ....               ",
"          ....                ....              ",
"          ...                  ...              ",
"         ...                    ...             ",
"     .   ..                      ..   .         ",
"     .. ..                        .. ..         ",
"     ....                          ....         ",
"     .....                        .....         ",
"     ......                      ......         ",
"     ....                          ....         ",
"     .                                .         ",
"                                                ",
"                                                ",
"                                                ",
"                                                ",
"                                                ",
"                                                "};
