/* XPM */
static char * numeric_menu_xpm[] = {
"48 48 298 2",
"  	c None",
". 	c #000000",
"+ 	c #BA936A",
"@ 	c #E2BE1B",
"# 	c #969696",
"$ 	c #C1A113",
"% 	c #917D22",
"& 	c #0E2122",
"* 	c #585E53",
"= 	c #143131",
"- 	c #343730",
"; 	c #A48A67",
"> 	c #706E5E",
", 	c #1B2F2D",
"' 	c #494949",
") 	c #181F1C",
"! 	c #BA9B72",
"~ 	c #C8B394",
"{ 	c #574E3A",
"] 	c #080505",
"^ 	c #836748",
"/ 	c #AB8B66",
"( 	c #A38867",
"_ 	c #2C2217",
": 	c #4D4636",
"< 	c #987A56",
"[ 	c #D9B689",
"} 	c #AF9472",
"| 	c #4A4C3E",
"1 	c #2E3E3D",
"2 	c #876D4C",
"3 	c #AD8D67",
"4 	c #D9B487",
"5 	c #B39D7F",
"6 	c #3E473C",
"7 	c #4A493D",
"8 	c #8F7250",
"9 	c #BF9D77",
"0 	c #D6BA95",
"a 	c #81755C",
"b 	c #756147",
"c 	c #9A7C56",
"d 	c #D1B188",
"e 	c #C1A686",
"f 	c #61604B",
"g 	c #384844",
"h 	c #7F6545",
"i 	c #BE9D73",
"j 	c #DBBB93",
"k 	c #B49D7E",
"l 	c #3D443A",
"m 	c #372B1E",
"n 	c #9A805C",
"o 	c #CEAC82",
"p 	c #D4B48D",
"q 	c #7E6A4E",
"r 	c #4F5E51",
"s 	c #100C09",
"t 	c #635741",
"u 	c #A68662",
"v 	c #DABA90",
"w 	c #CBAF8B",
"x 	c #5D5641",
"y 	c #0D1413",
"z 	c #58432F",
"A 	c #886C4A",
"B 	c #B5956C",
"C 	c #DDBF99",
"D 	c #C1AB8E",
"E 	c #404337",
"F 	c #252017",
"G 	c #312A1F",
"H 	c #201B14",
"I 	c #615640",
"J 	c #A2845D",
"K 	c #C9A67A",
"L 	c #DEC4A1",
"M 	c #A19779",
"N 	c #5F604B",
"O 	c #988564",
"P 	c #61523E",
"Q 	c #1E1812",
"R 	c #1B1C14",
"S 	c #7D6548",
"T 	c #BA996F",
"U 	c #DCB88C",
"V 	c #DBBC92",
"W 	c #8E7C60",
"X 	c #BCA783",
"Y 	c #988160",
"Z 	c #3F3323",
"` 	c #54422E",
" .	c #957A5B",
"..	c #94795A",
"+.	c #67543E",
"@.	c #211C13",
"#.	c #483A29",
"$.	c #C4A077",
"%.	c #B0916C",
"&.	c #DFC2A1",
"*.	c #B49A77",
"=.	c #A99881",
"-.	c #C1A886",
";.	c #6C573D",
">.	c #0A0E0E",
",.	c #1F211D",
"'.	c #342C21",
").	c #635038",
"!.	c #76624C",
"~.	c #84735D",
"{.	c #B29570",
"].	c #B6A07F",
"^.	c #BC996F",
"/.	c #AE8F68",
"(.	c #DABF9F",
"_.	c #E5CDAF",
":.	c #B6A28A",
"<.	c #C7B69F",
"[.	c #B39E84",
"}.	c #090704",
"|.	c #313D39",
"1.	c #443929",
"2.	c #282A25",
"3.	c #292519",
"4.	c #4B3C27",
"5.	c #877155",
"6.	c #E1C4A0",
"7.	c #DFC098",
"8.	c #D4B88D",
"9.	c #B09069",
"0.	c #BC9E77",
"a.	c #E2CCAD",
"b.	c #D9BC97",
"c.	c #BCAC97",
"d.	c #C2AB8B",
"e.	c #5B4831",
"f.	c #4C5E57",
"g.	c #816E53",
"h.	c #87755A",
"i.	c #525249",
"j.	c #3C2F20",
"k.	c #AF8E67",
"l.	c #CDAA7E",
"m.	c #CFAF89",
"n.	c #E0C7A7",
"o.	c #C3A177",
"p.	c #C7A57A",
"q.	c #E8D3BB",
"r.	c #DBB68A",
"s.	c #C0A787",
"t.	c #DBCEBE",
"u.	c #87745C",
"v.	c #18201F",
"w.	c #483D2C",
"x.	c #6A563F",
"y.	c #85725D",
"z.	c #CFAD84",
"A.	c #D6B68E",
"B.	c #C6A57E",
"C.	c #B3936C",
"D.	c #E7D7C3",
"E.	c #DBB88E",
"F.	c #D5B184",
"G.	c #E6D2B7",
"H.	c #E0C4A2",
"I.	c #D3C5B0",
"J.	c #A99276",
"K.	c #978652",
"L.	c #1F2725",
"M.	c #26251F",
"N.	c #12100C",
"O.	c #302B1F",
"P.	c #9E805C",
"Q.	c #CEAA7E",
"R.	c #DAB588",
"S.	c #E1C3A0",
"T.	c #BD9D72",
"U.	c #D0B697",
"V.	c #E7D0B3",
"W.	c #DBB688",
"X.	c #E6CCAC",
"Y.	c #EBDCC8",
"Z.	c #E8D3B7",
"`.	c #D1B796",
" +	c #AB977F",
".+	c #9D8758",
"++	c #1E201A",
"@+	c #3C3528",
"#+	c #32291D",
"$+	c #33372D",
"%+	c #897B63",
"&+	c #A08565",
"*+	c #C1A47F",
"=+	c #E3C9AB",
"-+	c #D4B186",
";+	c #DAB587",
">+	c #DEBC94",
",+	c #E7D1B4",
"'+	c #E3C6A3",
")+	c #E4CBAB",
"!+	c #EFE0CD",
"~+	c #D9B78D",
"{+	c #B6A084",
"]+	c #786645",
"^+	c #1F241F",
"/+	c #71674F",
"(+	c #7B6245",
"_+	c #9B8160",
":+	c #D2AF83",
"<+	c #CFB18D",
"[+	c #AD8F6A",
"}+	c #C8AB83",
"|+	c #E7D0B5",
"1+	c #DFBF97",
"2+	c #E0C39E",
"3+	c #E9D4BA",
"4+	c #E2C6A2",
"5+	c #EEDDCA",
"6+	c #E8D0B3",
"7+	c #DCC09E",
"8+	c #8E7D58",
"9+	c #7A6244",
"0+	c #8A7050",
"a+	c #968263",
"b+	c #CDAB7F",
"c+	c #C2A076",
"d+	c #D4B083",
"e+	c #E6CDAF",
"f+	c #DFC19A",
"g+	c #E4CAA8",
"h+	c #E4C9A7",
"i+	c #E7D0B4",
"j+	c #ECDAC3",
"k+	c #E5CBAA",
"l+	c #D9BF97",
"m+	c #70593F",
"n+	c #7F6648",
"o+	c #B0906B",
"p+	c #B5956D",
"q+	c #BB9970",
"r+	c #D6B184",
"s+	c #D6B285",
"t+	c #E5D3B7",
"u+	c #DEBE95",
"v+	c #DABC91",
"w+	c #E2C7A3",
"x+	c #E9D2B6",
"y+	c #625843",
"z+	c #624E37",
"A+	c #907654",
"B+	c #9E8360",
"C+	c #A0835F",
"D+	c #D0AE82",
"E+	c #C09D73",
"F+	c #D9B486",
"G+	c #DCC3A2",
"H+	c #E2C9A8",
"I+	c #DBB98D",
"J+	c #E7D0B2",
"K+	c #E8D2B5",
"L+	c #020100",
"M+	c #2D2316",
"N+	c #876F4F",
"O+	c #816A4B",
"P+	c #927957",
"Q+	c #9F7E59",
"R+	c #D0AC7F",
"S+	c #BF9D73",
"T+	c #DCB98D",
"U+	c #BFA17C",
"V+	c #D7B385",
"W+	c #E0C19A",
"X+	c #E7CEB0",
"Y+	c #E2C5A1",
"Z+	c #181817",
"`+	c #221E16",
" @	c #5A4833",
".@	c #7E684B",
"+@	c #806A4D",
"@@	c #745D42",
"#@	c #484848",
"$@	c #595958",
"%@	c #28231C",
"&@	c #352B1F",
"*@	c #705B43",
"=@	c #826A4B",
"-@	c #10CE53",
";@	c #615B54",
">@	c #463A2E",
",@	c #3E3428",
"'@	c #463B2D",
")@	c #3C3B39",
"!@	c #3F3A34",
"~@	c #63503B",
"{@	c #DEBD94",
"]@	c #45413D",
"^@	c #806B52",
"/@	c #DEBC92",
"                                                                                                ",
"                                                    .                                           ",
"                                                      .                                         ",
"                                                        .                                       ",
"                                                          .                                     ",
"                                                    . . .   .                                   ",
"                                                      . .     .                                 ",
"                                                    .   .       .                               ",
"                  .       . . .                   .               .                             ",
"                  .     .       .               .                   .                           ",
"                  .     .       .             .                       .                         ",
"                  .     .       .           .                       . + .                       ",
"                  .       . . .           .                       . + + + .                     ",
"                                        .                       . + . + @ @ .                   ",
"                                      .                       . + + # . # @ @ .                 ",
"                                    .                       . + . + .   . @ $ % .               ",
"                                  .                       . & * = @ # . # $ % .                 ",
"                                .                       . + - ; > , @ @ $ % .   '               ",
"                              .                       . + + ) ! ~ { . $ % .   '   '             ",
"                            .                       . + . + ] ^ / ( _ % .   '   '               ",
"                          .                       . + + + @ @ : < [ } |   '   '                 ",
"                        .                       . + . + @ @ @ 1 2 3 4 5 6   '                   ",
"      .               .                       . + + + @ @ @ @ $ 7 8 9 0 a 7                     ",
"        .       .   .                       . + . + @ @ @ @ $ % 7 b c d e f                     ",
"          .     . .                       . + + + @ @ @ @ $ % .   g h i j k l                   ",
"            .   . . .                   . + . + @ @ @ @ $ % .   '   m n o p q r                 ",
"              .                       . + + + @ @ @ @ $ % .   '   ' s t u v w x                 ",
"                .                   . + . + @ @ @ @ $ % .   '   y z . 7 A B C D E 7 7           ",
"                  .               . + + + @ @ @ @ $ % .   '   F G H . z I J K L M N O 7         ",
"                    .           . + . + @ @ @ @ $ % .   '   '   P z Q z R S T U V W X Y         ",
"                      .       . + + + @ @ @ @ $ % .   '   ' . Z `  ...+.@.#.$.%.&.*.=.-.;.      ",
"                        .   . + . + @ @ @ @ $ % .   '   '   >.,.'.).!.~.{.].^./.(._.:.<.[.}.    ",
"                          . + + + @ @ @ @ $ % .   '   '   ' |.1.2.3.4.5.6.7.8.9.0.a.b.c.d.e.    ",
"                        . + . + @ @ @ @ $ % .   '   '   '   f.g.h.i.j.k.l.m.n.o.p.q.r.s.t.u.    ",
"                      . + + + @ @ @ @ $ % .   '   '   '   ' v.w.x.y.z.A.B.C.D.E.F.G.q.H.I.J.K.  ",
"                    . + . + @ @ @ @ $ % .   '   '       ' L.M.N.O.P.Q.R.S.T.U.V.W.X.Y.Z.`. +.+  ",
"                  . + + + @ @ @ @ $ % .   '   '       '   ++@+#+$+%+&+*+=+-+;+>+,+'+)+!+~+{+]+  ",
"                    . + @ @ @ @ $ % .   '   '       '   ' ^+/+(+_+:+<+[+}+|+1+W.2+3+4+5+6+7+8+  ",
"                  '   . @ @ @ $ % .   '   '           '   z z 9+0+a+b+c+d+W.e+f+W.g+h+i+j+k+l+  ",
"                    '   . @ $ % .   '   '               '   z z m+n+o+p+q+r+s+t+u+v+1+w+Z.x+W.  ",
"                      '   . % .   '   '               '   '   z y+z+A+B+C+D+E+F+G+H+W.I+J+K+W.  ",
"                        '   .   '   '                   '   '   L+M+z N+O+P+Q+R+S+T+U+V+W+X+Y+  ",
"                          '   '   '                       '   '   Z+`+ @.@+@@@. . . . . . . . . ",
"                            '   '                           #@  '   $@%@&@*@=@. -@-@-@-@-@-@-@. ",
"                              '                               '   '   ' ;@>@,@'@. -@-@-@-@-@.   ",
"                                                                '   '   '   )@!@~@. -@-@-@. {@  ",
"                                                                      '   '   ' ]@^@. -@. W./@  ",
"                                                                                      .         "};
