/* XPM */
static char * parallel_xpm[] = {
"48 48 12 1",
" 	c None",
".	c #A0C5B2",
"+	c #5D7E6D",
"@	c #6A957E",
"#	c #284336",
"$	c #7E7E7E",
"%	c #000000",
"&	c #F76F6F",
"*	c #BC2121",
"=	c #DB2525",
"-	c #600D0D",
";	c #5E5E5E",
"                                                ",
"                                                ",
"              .                                 ",
"             +@.                                ",
"             #+@.                               ",
"              #+@.                              ",
"             $ #+@.                             ",
"            $ $ #+@.                            ",
"             $ $ #+@.                           ",
"              $%% #+@.                          ",
"             %%%%$ #+@.                         ",
"              %%$ $ #+@.                        ",
"   &         % % $ $ #+@.                       ",
"  *=&       %     $ $ #+@.                      ",
"  -*=&     %       $ $ #+@.                     ",
"   -*=&   %         $ $ #+@.                    ",
"  ; -*=& %           $ $ #+@.                   ",
" ; ; -*=&             $ $ #+@.                  ",
"  ; ; -*=&             $ $ #+@.                 ",
"   ; ; -*=&             $ $ #+@.                ",
"    ; ; -*=&             $ $ #+@.               ",
"     ; ; -*=&             $ $ #+@.              ",
"      ; ; -*=&             $ $ #+@.             ",
"       ; ; -*=&             $ $ #+@.            ",
"        ; ; -*=&             $ $ #+@.           ",
"         ; ; -*=&             $ $ #+@.          ",
"          ; ; -*=&             $ $ #+@.         ",
"           ; ; -*=&             $ $ #+@.        ",
"            ; ; -*=&             $ $ #+@.       ",
"             ; ; -*=&             $%% #+@.      ",
"              ; ; -*=&           %%%%$ #+@.     ",
"               ; ; -*=&           %%$ $ #+@.    ",
"                ; ; -*=&         % % $ $ #+@    ",
"                 ; ; -*=&       %     $ $ # $   ",
"                  ; ; -*=&     %       $ $ $    ",
"                   ; ; -*=&   %         $ $     ",
"                    ; ; -*=& %           $      ",
"                     ; ; -*=&                   ",
"                      ; ; -*=&                  ",
"                       ; ; -*=&                 ",
"                        ; ; -*=&                ",
"                         ; ; -*=&               ",
"                          ; ; -*=               ",
"                           ; ; - ;              ",
"                            ; ; ;               ",
"                             ; ;                ",
"                              ;                 ",
"                                                "};
