/* XPM */
static char * perpendicular_xpm[] = {
"48 48 13 1",
" 	c None",
".	c #F76F6F",
"+	c #BC2121",
"@	c #DB2525",
"#	c #A0C5B2",
"$	c #600D0D",
"%	c #000000",
"&	c #6A957E",
"*	c #5D7E6D",
"=	c #284336",
"-	c #5E5E5E",
";	c #7E7E7E",
">	c #414141",
"                                                ",
"                                                ",
"                                                ",
"                                                ",
"                                                ",
"                                                ",
"                                                ",
"                                                ",
"                                                ",
"                                                ",
"                                                ",
"                                                ",
"   .                                            ",
"  +@.                                       #   ",
"  $+@.                  %                  #&*  ",
"   $+@.                 %                 #&*=  ",
"  - $+@.                %                #&*=   ",
" - - $+@.               %               #&*= ;  ",
"  - - $+@.              %              #&*= ; ; ",
"   - - $+@.           %%%%%           #&*= ; ;  ",
"    - - $+@.           %%%           #&*= ; ;   ",
"     - - $+@.           %           #&*= ; ;    ",
"      - - $+@.                     #&*= ; ;     ",
"       - - $+@.                   #&*= ; ;      ",
"        - - $+@.                 #&*= ; ;       ",
"         - - $+@.       %       #&*= ; ;        ",
"          - - $+@.     % %     #&*= ; ;         ",
"           - - $+@.   %   %   #&*= ; ;          ",
"            - - $+@. %     % #&*= ; ;           ",
"             - - $+@.       #&*= ; ;            ",
"              - - $+@.     #&*= ; ;             ",
"               - - $+@.   #&*= ; ;              ",
"                - - $+@. #&*= ; ;               ",
"                 - - $+@#&*= ; ;                ",
"                  - - $#&*= ; ;                 ",
"                   - -#&*=.; ;                  ",
"                    -#&*=+@.;                   ",
"                    #&*= $+@.                   ",
"                   #&*= > $+@.                  ",
"                  #&*= > > $+@.                 ",
"                 #&*= ; > - $+@.                ",
"                #&*= ; ; - - $+@.               ",
"               #&*= ; ;   - - $+@               ",
"               &*= ; ;     - - $ -              ",
"              ; = ; ;       - - -               ",
"               ; ; ;         - -                ",
"                ; ;           -                 ",
"                 ;                              "};
