/* XPM */
static char * point_menu_xpm[] = {
"48 48 4 1",
" 	c None",
".	c #000000",
"+	c #181410",
"@	c #10CE53",
"                                                ",
"                                                ",
"                                                ",
"                                                ",
"                                                ",
"                                                ",
"                                                ",
"                                                ",
"                                                ",
"                                                ",
"                                                ",
"                                                ",
"                                                ",
"                                                ",
"                                                ",
"                                                ",
"                                                ",
"                                                ",
"                                                ",
"                                                ",
"                                                ",
"                                                ",
"                                                ",
"                                                ",
"                                                ",
"                                                ",
"                                                ",
"                                                ",
"                       ..                       ",
"                      ...                       ",
"                  ... ...                       ",
"                  ......   . .                  ",
"                  ......  . .                   ",
"                   .....   . .                  ",
"                   ...... . .                   ",
"                  ........ .                    ",
"                 ..... .. . .                   ",
"                 ....  . . . .                  ",
"                 ...  . . . .                   ",
"                     . . . . .                  ",
"                      . .                       ",
"                     + .                        ",
"                                       .........",
"                                       .@@@@@@@.",
"                                        .@@@@@. ",
"                                         .@@@.  ",
"                                          .@.   ",
"                                           .    "};
