/* XPM */
static char * polygon_xpm[] = {
"48 48 247 2",
"  	c None",
". 	c #600D0D",
"+ 	c #8B1616",
"@ 	c #AF2323",
"# 	c #EA5E5E",
"$ 	c #821313",
"% 	c #B11E1E",
"& 	c #D23434",
"* 	c #E95252",
"= 	c #691010",
"- 	c #D23636",
"; 	c #DE4141",
"> 	c #F05C5C",
", 	c #801D1D",
"' 	c #AA1E1E",
") 	c #CF3636",
"! 	c #D24343",
"~ 	c #B42424",
"{ 	c #E54747",
"] 	c #AF2222",
"^ 	c #D63636",
"/ 	c #EF6969",
"( 	c #961B1B",
"_ 	c #DA2D2D",
": 	c #F76E6E",
"< 	c #881818",
"[ 	c #AF2121",
"} 	c #DD2D2D",
"| 	c #C55757",
"1 	c #63AEF9",
"2 	c #881616",
"3 	c #D02424",
"4 	c #EE5757",
"5 	c #C02222",
"6 	c #DB3F3F",
"7 	c #EA4E4E",
"8 	c #5E5656",
"9 	c #C62424",
"0 	c #EE5656",
"a 	c #751212",
"b 	c #BB1F1F",
"c 	c #DB3D3D",
"d 	c #EC5555",
"e 	c #AD1D1D",
"f 	c #E44545",
"g 	c #8F1A1A",
"h 	c #B42323",
"i 	c #DA3838",
"j 	c #951818",
"k 	c #DB2929",
"l 	c #F56969",
"m 	c #991919",
"n 	c #BC2828",
"o 	c #DE3C3C",
"p 	c #D02727",
"q 	c #EF5959",
"r 	c #8B1717",
"s 	c #BC2626",
"t 	c #E33A3A",
"u 	c #EE5A5A",
"v 	c #EF5A5A",
"w 	c #921818",
"x 	c #C82525",
"y 	c #E34A4A",
"z 	c #EC5353",
"A 	c #E54343",
"B 	c #871515",
"C 	c #BB2121",
"D 	c #DF4141",
"E 	c #F16060",
"F 	c #981919",
"G 	c #DB2828",
"H 	c #F36565",
"I 	c #9E1C1C",
"J 	c #BB2929",
"K 	c #CD3535",
"L 	c #D12A2A",
"M 	c #661818",
"N 	c #A21B1B",
"O 	c #C92E2E",
"P 	c #E24444",
"Q 	c #F66F6F",
"R 	c #C72323",
"S 	c #EF5B5B",
"T 	c #742020",
"U 	c #8D1717",
"V 	c #C72929",
"W 	c #E74646",
"X 	c #E54141",
"Y 	c #9C1B1B",
"Z 	c #CF2A2A",
"` 	c #E85252",
" .	c #9B1A1A",
"..	c #DC2E2E",
"+.	c #751717",
"@.	c #CC2929",
"#.	c #E44A4A",
"$.	c #F56C6C",
"%.	c #E95E5E",
"&.	c #741111",
"*.	c #AA1D1D",
"=.	c #CB3131",
"-.	c #E43E3E",
";.	c #B82020",
">.	c #E95B5B",
",.	c #751818",
"'.	c #AB1D1D",
").	c #D23535",
"!.	c #E94E4E",
"~.	c #AE1D1D",
"{.	c #E53F3F",
"].	c #9D1A1A",
"^.	c #D12C2C",
"/.	c #EB4F4F",
"(.	c #A01B1B",
"_.	c #DC3232",
":.	c #8F1717",
"<.	c #A81F1F",
"[.	c #D63131",
"}.	c #EB5656",
"|.	c #891616",
"1.	c #D22D2D",
"2.	c #F46767",
"3.	c #771212",
"4.	c #A91C1C",
"5.	c #D43333",
"6.	c #E74E4E",
"7.	c #C32121",
"8.	c #7E1313",
"9.	c #B21F1F",
"0.	c #D53A3A",
"a.	c #E84646",
"b.	c #B01E1E",
"c.	c #821818",
"d.	c #B31E1E",
"e.	c #D83B3B",
"f.	c #EE5959",
"g.	c #A31C1C",
"h.	c #DC3636",
"i.	c #8C1B1B",
"j.	c #AB1F1F",
"k.	c #D82F2F",
"l.	c #EE5858",
"m.	c #851515",
"n.	c #D22C2C",
"o.	c #951919",
"p.	c #B62424",
"q.	c #DD3A3A",
"r.	c #ED5959",
"s.	c #ED5555",
"t.	c #B81F1F",
"u.	c #DC3C3C",
"v.	c #BB2222",
"w.	c #DC4141",
"x.	c #A41C1C",
"y.	c #DD3939",
"z.	c #F56A6A",
"A.	c #C13131",
"B.	c #E65050",
"C.	c #F26363",
"D.	c #D32B2B",
"E.	c #F76F6F",
"F.	c #AE4B4B",
"G.	c #F46868",
"H.	c #EC5252",
"I.	c #B51F1F",
"J.	c #CD2626",
"K.	c #D93434",
"L.	c #E43D3D",
"M.	c #B71F1F",
"N.	c #E64242",
"O.	c #C52222",
"P.	c #E34040",
"Q.	c #EA4B4B",
"R.	c #B62020",
"S.	c #C22121",
"T.	c #D42626",
"U.	c #DF3E3E",
"V.	c #EA4C4C",
"W.	c #821414",
"X.	c #D32929",
"Y.	c #F66C6C",
"Z.	c #A61C1C",
"`.	c #C42222",
" +	c #CF2323",
".+	c #DD3535",
"++	c #F46666",
"@+	c #781212",
"#+	c #C42121",
"$+	c #EB5050",
"%+	c #9B1919",
"&+	c #BD2121",
"*+	c #DA2525",
"=+	c #D64141",
"-+	c #E85C5C",
";+	c #F05D5D",
">+	c #731111",
",+	c #BB2020",
"'+	c #E84747",
")+	c #A81D1D",
"!+	c #C62626",
"~+	c #D72D2D",
"{+	c #E23939",
"]+	c #A11B1B",
"^+	c #DE3B3B",
"/+	c #791212",
"(+	c #AA1C1C",
"_+	c #D32E2E",
":+	c #E03535",
"<+	c #E94B4B",
"[+	c #831414",
"}+	c #8E1717",
"|+	c #D02929",
"1+	c #E64343",
"2+	c #C62222",
"3+	c #701010",
"4+	c #7C1313",
"5+	c #A51C1C",
"6+	c #BA2020",
"7+	c #CB2323",
"8+	c #DA3535",
"9+	c #E64646",
"0+	c #F66D6D",
"a+	c #BF2222",
"b+	c #E84A4A",
"c+	c #961818",
"d+	c #C82222",
"e+	c #D72929",
"f+	c #E34343",
"g+	c #EB5151",
"h+	c #E25C5C",
"i+	c #D06A6A",
"j+	c #9F1B1B",
"k+	c #8C1616",
"l+	c #C72424",
"m+	c #D42424",
"n+	c #E03A3A",
"o+	c #EC5454",
"p+	c #E05454",
"q+	c #BF4242",
"r+	c #E33F3F",
"s+	c #C32222",
"t+	c #D12929",
"u+	c #DD2B2B",
"v+	c #E94C4C",
"w+	c #9E1A1A",
"x+	c #B42020",
"                                                                                                ",
"                                                            . .                                 ",
"                                                          . . + @ #                             ",
"                                                      . . . $ % & *                             ",
"                                                      . . = % - ; >                             ",
"                                                  . . . , ' ) ! ~ {                             ",
"                                                . . . . ] ^ / . ( _ :                           ",
"                                              . . . < [ } | 1 . 2 3 4                           ",
"                                            . . . + 5 6 7 1 . 8 . 9 0                           ",
"                                          . . . a b c d 1 1 . . . e f                           ",
"                                        . . . g h i 4 1 . . 1 1 . j k l                         ",
"                                      . . . m n o : 1 1 . . 1 1 . . p q                         ",
"                                    . . . r s t u 1 . . 1 1 . . 1 . 9 v                         ",
"                                  . . . w x y z 1 1 . . 1 1 . . 1 . e A                         ",
"                                . . . B C D E 1 . . 1 1 . . 1 1 . . F G H                       ",
"                              . . . I J K   1 1 . . 1 1 . . 1 1 . . . L >                       ",
"                            . . M N O P Q 1 . . 1 1 . . 1 1 . . 1 1 . R S                       ",
"                          . . T U V W   1 1 . . 1 1 . . 1 1 . . 1 1 . e X                       ",
"                        . . . Y Z ` 1 1 . . 1 1 . . 1 1 . . 1 1 . . .  ...                      ",
"                      . . +.m @.#.$.1 1 . . 1 1 . . 1 1 . . 1 1 . . . . V %.                    ",
"                    . . &.*.=.-.1 1 . . 1 1 . . 1 1 . . 1 1 . . 1 1 . . ;.>.                    ",
"                  . . ,.'.).!.. 1 1 . . 1 1 . . 1 1 . . 1 1 . . 1 1 . . ~.{.                    ",
"                . . , ].^./.1 1 . . 1 1 . . 1 1 . . 1 1 . . 1 1 . . 1 . (._.                    ",
"              . . :.<.[.}.. 1 1 . . 1 1 . . 1 1 . . 1 1 . . 1 1 . . 1 . |.1.2.                  ",
"            . . 3.4.5.6.1 1 . . 1 1 . . 1 1 . . 1 1 . . 1 1 . . 1 1 . . . 7.v                   ",
"          . . 8.9.0.a.. 1 1 . . 1 1 . . 1 1 . . 1 1 . . 1 1 . . 1 1 . . . b.-.                  ",
"        . . c.d.e.f.1 1 . . 1 1 . . 1 1 . . 1 1 . . 1 1 . . 1 1 . . 1 1 . g.h.                  ",
"      . . i.j.k.l.. 1 1 . . 1 1 . . 1 1 . . 1 1 . . 1 1 . . 1 1 . . 1 1 . m.n.:                 ",
"    . . o.p.q.r.1 1 . . 1 1 . . 1 1 . . 1 1 . . 1 1 . . 1 1 . . 1 1 . . . . 7.s.                ",
"  . . 8.t.u.. . 1 1 . . 1 1 . . 1 1 . . 1 1 . . 1 1 . . 1 1 . . 1 1 . .   . d.{.                ",
". . 2 v.w.. 1 1 . . 1 1 . . 1 1 . . 1 1 . . 1 1 . . 1 1 . . 1 1 . . 1 1 . . x.y.z.              ",
". . A.B.C.. 1 1 . . 1 1 . . 1 1 . . 1 1 . . 1 1 . . 1 1 . . 1 1 . . 1 1 . . . D.E.              ",
". . F.W G.1 . . 1 1 . . 1 1 . . 1 1 . . 1 1 . . 1 1 . . 1 1 . . 1 1 . . 1   . 7.H.              ",
"  . . I.J.K.L.l.E.  . . 1 1 . . 1 1 . . 1 1 . . 1 1 . . 1 1 . . 1 1 . . 1 . . M.N.              ",
"    . . . ].d.O.[.P.Q.l . . 1   . . 1 1 . . 1 1 . . 1 1 . . 1 1 . . 1 1 . . . g.q.E.            ",
"        . . . . . R.S.T.U.V.q E.. .   1 . . 1 1 . . 1 1 . . 1 1 . . 1 1 . . . W.X.Y.            ",
"                . . . . Z.`. +.+!.s.++. 1 1 . . 1 1 . . 1 1 . . 1 1 . . 1 1 . @+#+$+            ",
"                      . . . . %+&+J.*+=+-+;+. . 1 1 . . 1 1 . . 1 1 . . 1 1 . >+,+'+            ",
"                            . . . . . )+!+~+{+v C.. 1 1 . . 1 1 . . 1 1 . . . . ]+^+E.          ",
"                                    . . /+F (+7._+:+<+E.G.. 1 1 . . 1 1 . . 1 . [+T.2.          ",
"                                        . . . . }+*.,+|+y.1+> E.    . . 1 1 . . . 2+$+          ",
"                                              . . . 3+4+5+6+7+8+9+$+0+    1 . . . a+b+          ",
"                                                    . . . . 3.c+&+d+e+f+g+h+i+1 . j+^+E.        ",
"                                                          . . . . . k+e l+m+n+o+p+q+r+          ",
"                                                                  . . . . r N s+t+u+v+          ",
"                                                                        . . . . . w+x+          ",
"                                                                                                ",
"                                                                                                "};
