/* XPM */
static char * preferences_xpm[] = {
"48 48 396 2",
"  	c None",
". 	c #000000",
"+ 	c #8C8C8C",
"@ 	c #AAAAAA",
"# 	c #A7A7A6",
"$ 	c #999999",
"% 	c #121212",
"& 	c #020202",
"* 	c #262626",
"= 	c #969696",
"- 	c #B5B5B5",
"; 	c #B2B2B2",
"> 	c #B1B1B0",
", 	c #AFAFAE",
"' 	c #AEAEAD",
") 	c #4D4D4C",
"! 	c #161616",
"~ 	c #6B6B6B",
"{ 	c #9F9F9F",
"] 	c #B9B9B8",
"^ 	c #B8B8B7",
"/ 	c #B6B6B5",
"( 	c #B4B4B4",
"_ 	c #B0B0B0",
": 	c #AFAFAF",
"< 	c #ADADAC",
"[ 	c #989897",
"} 	c #181818",
"| 	c #9D9D9D",
"1 	c #AAAAA9",
"2 	c #ACACAB",
"3 	c #B0B0AF",
"4 	c #B8B8B8",
"5 	c #B7B7B7",
"6 	c #B6B6B6",
"7 	c #B5B5B4",
"8 	c #B4B4B3",
"9 	c #B2B2B1",
"0 	c #ADADAD",
"a 	c #252525",
"b 	c #D3D3D3",
"c 	c #7A7A7A",
"d 	c #878787",
"e 	c #A8A8A7",
"f 	c #B3B3B3",
"g 	c #B1B1B1",
"h 	c #878786",
"i 	c #D5D5D5",
"j 	c #E1E1E0",
"k 	c #7F7F7F",
"l 	c #808080",
"m 	c #ABABAB",
"n 	c #B3B3B2",
"o 	c #AEAEAE",
"p 	c #131313",
"q 	c #A0A0A0",
"r 	c #DDDDDD",
"s 	c #DBDBDB",
"t 	c #CBCBCB",
"u 	c #5A5A59",
"v 	c #787878",
"w 	c #999998",
"x 	c #A4A4A4",
"y 	c #ACACAC",
"z 	c #868686",
"A 	c #191919",
"B 	c #D4D4D4",
"C 	c #DFDFDF",
"D 	c #525252",
"E 	c #727272",
"F 	c #909090",
"G 	c #9D9D9C",
"H 	c #A6A6A5",
"I 	c #E4E4E4",
"J 	c #626261",
"K 	c #4D4D4D",
"L 	c #5D5D5D",
"M 	c #6F6F6F",
"N 	c #8D8D8D",
"O 	c #989898",
"P 	c #9E9E9E",
"Q 	c #A5A5A5",
"R 	c #ADACAC",
"S 	c #ADA8A8",
"T 	c #AEA3A3",
"U 	c #ABA8A8",
"V 	c #646464",
"W 	c #5C5C5C",
"X 	c #535353",
"Y 	c #616161",
"Z 	c #707070",
"` 	c #747474",
" .	c #8F8F8F",
"..	c #A7A7A7",
"+.	c #949191",
"@.	c #775B5A",
"#.	c #7E5454",
"$.	c #815252",
"%.	c #865857",
"&.	c #9F8080",
"*.	c #AFA0A0",
"=.	c #ADABAB",
"-.	c #141414",
";.	c #424242",
">.	c #777777",
",.	c #8B8B8B",
"'.	c #929292",
").	c #9D9C9B",
"!.	c #A3A1A0",
"~.	c #ADABAA",
"{.	c #A09D9D",
"].	c #7B5B5B",
"^.	c #A64545",
"/.	c #AC3333",
"(.	c #B13232",
"_.	c #B4302F",
":.	c #9D2828",
"<.	c #892D2D",
"[.	c #9C6F6E",
"}.	c #B1ACAC",
"|.	c #888888",
"1.	c #1A1A1A",
"2.	c #8E8E8E",
"3.	c #828281",
"4.	c #949494",
"5.	c #726F6F",
"6.	c #4D4343",
"7.	c #4E3B3B",
"8.	c #623E3E",
"9.	c #482E2E",
"0.	c #8C5756",
"a.	c #B54444",
"b.	c #C03D3D",
"c.	c #C64343",
"d.	c #CB2F2F",
"e.	c #CF1313",
"f.	c #C91010",
"g.	c #902120",
"h.	c #9F8382",
"i.	c #B7B7B6",
"j.	c #272727",
"k.	c #030303",
"l.	c #A8A8A8",
"m.	c #A2A2A2",
"n.	c #686666",
"o.	c #483D3D",
"p.	c #7B5656",
"q.	c #953D3D",
"r.	c #CA2727",
"s.	c #521111",
"t.	c #803C3C",
"u.	c #C55353",
"v.	c #D06161",
"w.	c #D07676",
"x.	c #D06B6B",
"y.	c #CF3636",
"z.	c #C91212",
"A.	c #BE1A1A",
"B.	c #815B5B",
"C.	c #B9B9B9",
"D.	c #8F8F8E",
"E.	c #BCBCBC",
"F.	c #828282",
"G.	c #524646",
"H.	c #673131",
"I.	c #AD3C3B",
"J.	c #C22727",
"K.	c #CD2020",
"L.	c #601919",
"M.	c #CC4747",
"N.	c #CB6A6A",
"O.	c #CE7B7B",
"P.	c #D08383",
"Q.	c #D07D7D",
"R.	c #D04F4F",
"S.	c #C71616",
"T.	c #B12222",
"U.	c #907676",
"V.	c #BCBBBB",
"W.	c #BBBBBB",
"X.	c #292929",
"Y.	c #C2C2C2",
"Z.	c #BFBFBE",
"`.	c #3B3737",
" +	c #672F2F",
".+	c #AD1717",
"++	c #B71818",
"@+	c #C72D2D",
"#+	c #CF3131",
"$+	c #6E1E1E",
"%+	c #A41818",
"&+	c #CF2B2B",
"*+	c #CC6A6A",
"=+	c #CD8282",
"-+	c #CF7C7C",
";+	c #CD4242",
">+	c #C21414",
",+	c #951E1E",
"'+	c #B69E9D",
")+	c #C0BDBC",
"!+	c #C0C0BF",
"~+	c #BFBFBF",
"{+	c #BDBDBD",
"]+	c #CDCDCD",
"^+	c #C8C8C8",
"/+	c #838181",
"(+	c #5D3D3D",
"_+	c #AA1919",
":+	c #A40F0F",
"<+	c #BA1D1D",
"[+	c #CD4545",
"}+	c #D04B4B",
"|+	c #C34A4A",
"1+	c #712222",
"2+	c #A02E2E",
"3+	c #CC4D4D",
"4+	c #C97373",
"5+	c #CD7373",
"6+	c #C43232",
"7+	c #B01313",
"8+	c #8E2525",
"9+	c #C3A8A8",
"0+	c #C4C4C4",
"a+	c #C2C2C1",
"b+	c #C1C1C0",
"c+	c #7D7D7C",
"d+	c #505050",
"e+	c #D8D8D8",
"f+	c #605858",
"g+	c #9E5656",
"h+	c #A10F0F",
"i+	c #B31F1F",
"j+	c #C94848",
"k+	c #D05353",
"l+	c #D14B4B",
"m+	c #CD5C5C",
"n+	c #C15858",
"o+	c #C84E4E",
"p+	c #C96565",
"q+	c #C95252",
"r+	c #B82424",
"s+	c #A01C1C",
"t+	c #924D4D",
"u+	c #C8BCBC",
"v+	c #C6C6C6",
"w+	c #C5C5C5",
"x+	c #C3C3C2",
"y+	c #151514",
"z+	c #E3E3E3",
"A+	c #E0E0DF",
"B+	c #665B5B",
"C+	c #8F4C4C",
"D+	c #A71212",
"E+	c #AD1515",
"F+	c #BC2929",
"G+	c #C93333",
"H+	c #CE3838",
"I+	c #CB4242",
"J+	c #C64040",
"K+	c #C64A4A",
"L+	c #CB6767",
"M+	c #C53C3C",
"N+	c #B82525",
"O+	c #913F3F",
"P+	c #BFA5A5",
"Q+	c #CDCBCA",
"R+	c #CCCCCB",
"S+	c #CACAC9",
"T+	c #C7C7C7",
"U+	c #E8E8E8",
"V+	c #B4AFAF",
"W+	c #523131",
"X+	c #B12626",
"Y+	c #AF1616",
"Z+	c #B41B1B",
"`+	c #B92020",
" @	c #BE2121",
".@	c #C62929",
"+@	c #CB3434",
"@@	c #C83939",
"#@	c #C85050",
"$@	c #CB5E5E",
"%@	c #C22E2E",
"&@	c #8F2A2A",
"*@	c #705555",
"=@	c #D2D1D1",
"-@	c #D1D1D1",
";@	c #CFCFCF",
">@	c #CECECE",
",@	c #CBCBCA",
"'@	c #C9C9C8",
")@	c #2A2A2A",
"!@	c #C9C9C9",
"~@	c #F0F0F0",
"{@	c #EBEBEB",
"]@	c #665F5F",
"^@	c #634242",
"/@	c #7E4141",
"(@	c #B63232",
"_@	c #BE2D2D",
":@	c #BB2020",
"<@	c #BE1F1F",
"[@	c #BC1616",
"}@	c #C01717",
"|@	c #C72C2C",
"1@	c #C73535",
"2@	c #BA1818",
"3@	c #722E2D",
"4@	c #B3B0AF",
"5@	c #D7D7D6",
"6@	c #D2D2D2",
"7@	c #C7C7C6",
"8@	c #7B7B7B",
"9@	c #F4F4F4",
"0@	c #F1F1F1",
"a@	c #DBDADA",
"b@	c #938E8E",
"c@	c #675F5F",
"d@	c #443939",
"e@	c #502929",
"f@	c #6D2929",
"g@	c #8C2929",
"h@	c #B11818",
"i@	c #BB2929",
"j@	c #961616",
"k@	c #794848",
"l@	c #DCDCDC",
"m@	c #DADADA",
"n@	c #D8D8D7",
"o@	c #D6D6D5",
"p@	c #D4D4D3",
"q@	c #A0A09F",
"r@	c #1C1C1C",
"s@	c #F9F9F9",
"t@	c #F6F6F6",
"u@	c #F3F3F3",
"v@	c #F1F1F0",
"w@	c #ECECEC",
"x@	c #A9A9A9",
"y@	c #A29B9B",
"z@	c #CBB9B9",
"A@	c #765E5E",
"B@	c #693D3D",
"C@	c #6F3232",
"D@	c #8E3737",
"E@	c #B44646",
"F@	c #7B2020",
"G@	c #BC8E8E",
"H@	c #D6D6D6",
"I@	c #D2D2D1",
"J@	c #D0D0CF",
"K@	c #FAFAFA",
"L@	c #F7F7F7",
"M@	c #F5F5F5",
"N@	c #EFEFEE",
"O@	c #EDEDED",
"P@	c #DFDDDD",
"Q@	c #BEB5B5",
"R@	c #6B5757",
"S@	c #673D3D",
"T@	c #744A4A",
"U@	c #E0DFDE",
"V@	c #DFDFDE",
"W@	c #BABABA",
"X@	c #FCFCFC",
"Y@	c #FBFBFB",
"Z@	c #F2F2F2",
"`@	c #817B7B",
" #	c #494545",
".#	c #E4E1E1",
"+#	c #E1E1E1",
"@#	c #DDDDDC",
"##	c #DBDBDA",
"$#	c #171717",
"%#	c #444444",
"&#	c #383838",
"*#	c #FEFEFE",
"=#	c #FDFDFD",
"-#	c #F8F8F8",
";#	c #EEEEEE",
">#	c #ECECEB",
",#	c #6A6A6A",
"'#	c #E5E5E5",
")#	c #FFFFFF",
"!#	c #FBFBFA",
"~#	c #EAEAEA",
"{#	c #E8E8E7",
"]#	c #E6E6E5",
"^#	c #A3A3A3",
"/#	c #BEBEBE",
"(#	c #F7F7F6",
"_#	c #7D7D7D",
":#	c #F3F3F2",
"<#	c #343434",
"[#	c #E2E2E2",
"}#	c #373737",
"                                                                                                ",
"                                                                                                ",
"                                                                                                ",
"                                                                                                ",
"                                                                                                ",
"                                                                                                ",
"                                                                                                ",
"                                                                                                ",
"                                                      . .                                       ",
"                                                  . . + + .                                     ",
"                                              . . + @ # $ %                                     ",
"                                    . . . & * = - ; > , ' ) .                                   ",
"                            . . ! ! ~ { ] ^ ^ / ( ; _ : < [ .                                   ",
"                          } | 1 2 3 4 4 4 5 6 7 8 9 > , 0 0 a                                   ",
"                        . b c d { e > 8 - ( ( f ; g 3 ' ' < h .                                 ",
"                      . i j k ~ l { m _ 9 n > 9 : _ o 0 0 < < p                                 ",
"                    . q r s t u v w x y : : : , , o 0 0 0 y 0 z .                               ",
"                    A B C r b D E F G H y 0 0 0 0 0 < < 2 < < 0 p                               ",
"                  . m I # J K L M N O P Q 2 y ' R S T U y < ' , h .                             ",
"                  . V W X D Y Z `  .$ | ..y +.@.#.$.%.&.*.=.: _ g -.                            ",
"                  . ;.k >.>.v v ,.'.).!.~.{.].^./.(._.:.<.[.}.; f |..                           ",
"                    1.2.[ 3. .k 4.5.6.7.8.9.0.a.b.c.d.e.f.g.h.7 / i.j.                          ",
"                    k.g l.m.{ G n.o.p.q.r.s.t.u.v.w.x.y.z.A.B.C.] ] D..                         ",
"                    . E.6 ( g F.G.H.I.J.K.L.M.N.O.P.Q.R.S.T.U.V.E.W.W.X.                        ",
"                    . W.Y.Z.W.`. +.+++@+#+$+%+&+*+=+-+;+>+,+'+)+!+~+{+l..                       ",
"                    . o ]+^+/+(+_+:+<+[+}+|+1+2+3+4+5+6+7+8+9+0+0+a+b+!+c+.                     ",
"                    . d+e+B f+g+:+h+i+j+k+l+m+n+o+p+q+r+s+t+u+^+v+w+0+x+a+y+                    ",
"                      . z+A+B+C+D+D+E+F+G+H+I+J+K+L+M+N+O+P+Q+R+S+^+T+v+0+P .                   ",
"                      . r U+V+W+X+Y+Z+`+ @.@+@@@#@$@%@&@*@=@-@;@>@R+,@'@v+0+)@                  ",
"                      . !@~@{@]@^@/@(@_@:@<@[@}@|@1@2@3@4@5@B 6@-@;@]+t '@7@' .                 ",
"                      . 8@9@0@a@b@c@d@e@f@g@T.h@2@i@j@k@l@m@n@o@p@-@;@]+t !@T+q@.               ",
"                        r@s@t@u@v@w@x@y@z@A@B@C@D@E@F@G@r l@m@e+H@p@I@J@]+t 0+F .               ",
"                        . s K@L@M@u@0@N@O@w@P@Q@R@S@T@z+U@V@l@m@e+H@B 6@J@'.! .                 ",
"                        . W@X@Y@s@L@M@u@Z@~@N@O@{@`@ #.#z++#C @###e+H@0 $#.   %#                ",
"                          &#*#=#=#K@-#t@M@u@Z@~@;#>#,#I '#z++#C r 3 $#. %#  %#                  ",
"                          . )#)#*#*#X@!#-#t@9@Z@~@;#w@~#{#]#i ^#. .   %#  %#  %#                ",
"                          . /#)#)#)#)#=#Y@s@(#9@Z@~@;#w@v+= . . %#  %#  %#  %#  %#              ",
"                          . _#)#)#)#)#)#=#Y@s@L@M@:#q <#. .   %#  %#  %#  %#  %#                ",
"                            . )#)#)#)#)#)#=#Y@;@ .. .   %#  %#  %#  %#  %#                      ",
"                            . /#)#)#)#)#[#..}#. . %#  %#  %#  %#                                ",
"                              &#)#[#W._#. . %#  %#  %#  %#                                      ",
"                              . . . . .   %#  %#  %#                                            ",
"                                .   %#  %#  %#                                                  ",
"                                                                                                ",
"                                                                                                ",
"                                                                                                ",
"                                                                                                ",
"                                                                                                "};
