/* XPM */
static char * properties_xpm[] = {
"48 48 156 2",
"  	c None",
". 	c #000000",
"+ 	c #3F3F3F",
"@ 	c #3E3E3E",
"# 	c #3D3D3D",
"$ 	c #0F0F0F",
"% 	c #EEEEEE",
"& 	c #FEFEFE",
"* 	c #FDFDFD",
"= 	c #FCFCFC",
"- 	c #FBFBFB",
"; 	c #FAFAFA",
"> 	c #F9F9F9",
", 	c #F8F8F8",
"' 	c #F7F7F7",
") 	c #F6F6F6",
"! 	c #F5F5F5",
"~ 	c #F4F4F4",
"{ 	c #F3F3F3",
"] 	c #B6B6B6",
"^ 	c #2D2D2D",
"/ 	c #F1F1F1",
"( 	c #F2F2F2",
"_ 	c #E2E2E2",
": 	c #E4E4E4",
"< 	c #E5E5E5",
"[ 	c #E6E6E6",
"} 	c #E7E7E7",
"| 	c #E8E8E8",
"1 	c #E9E9E9",
"2 	c #EAEAEA",
"3 	c #EBEBEB",
"4 	c #ECECEC",
"5 	c #EDEDED",
"6 	c #EFEFEF",
"7 	c #F0F0F0",
"8 	c #E1E1E1",
"9 	c #939393",
"0 	c #3B3B3B",
"a 	c #0E0E0E",
"b 	c #C1C1C1",
"c 	c #E0E0E0",
"d 	c #2C2C2C",
"e 	c #1D1D1D",
"f 	c #5F5F5F",
"g 	c #C2C2C2",
"h 	c #D1D1D1",
"i 	c #BFBFBF",
"j 	c #1C1C1C",
"k 	c #8B8B8B",
"l 	c #FFFFFF",
"m 	c #CFCFCF",
"n 	c #7F7F7F",
"o 	c #DCDCDC",
"p 	c #787878",
"q 	c #1F1F1F",
"r 	c #CACACA",
"s 	c #D3D3D3",
"t 	c #D6D6D6",
"u 	c #5A5A5A",
"v 	c #878787",
"w 	c #0D0D0D",
"x 	c #B8B8B8",
"y 	c #D9D9D9",
"z 	c #515151",
"A 	c #545454",
"B 	c #535353",
"C 	c #737373",
"D 	c #696969",
"E 	c #595959",
"F 	c #7E7E7E",
"G 	c #C3C3C3",
"H 	c #B7B7B7",
"I 	c #7A7A7A",
"J 	c #C7C7C7",
"K 	c #BDBDBD",
"L 	c #888888",
"M 	c #989898",
"N 	c #3A3A3A",
"O 	c #4B4B4B",
"P 	c #2F2F2F",
"Q 	c #AFAFAF",
"R 	c #A4A4A4",
"S 	c #C9C9C9",
"T 	c #4C4C4C",
"U 	c #5B5B5B",
"V 	c #979797",
"W 	c #323232",
"X 	c #CBCBCB",
"Y 	c #CECECE",
"Z 	c #959595",
"` 	c #D4D4D4",
" .	c #4F4F4F",
"..	c #4A4A4A",
"+.	c #DBDBDB",
"@.	c #CDCDCD",
"#.	c #494949",
"$.	c #DFDFDF",
"%.	c #D8D8D8",
"&.	c #666666",
"*.	c #9B9B9B",
"=.	c #585858",
"-.	c #DEDEDE",
";.	c #858585",
">.	c #4D4D4D",
",.	c #393939",
"'.	c #686868",
").	c #777777",
"!.	c #999999",
"~.	c #1E1E1E",
"{.	c #8C8C8C",
"].	c #969696",
"^.	c #2E2E2E",
"/.	c #9F9F9F",
"(.	c #BABABA",
"_.	c #3C3C3C",
":.	c #B5B5B5",
"<.	c #B0B0B0",
"[.	c #5C5C5C",
"}.	c #DDDDDD",
"|.	c #D2D2D2",
"1.	c #ABABAB",
"2.	c #D5D5D5",
"3.	c #CCCCCC",
"4.	c #A6A6A6",
"5.	c #0C0C0C",
"6.	c #313131",
"7.	c #C6C6C6",
"8.	c #A1A1A1",
"9.	c #C0C0C0",
"0.	c #B1B1B1",
"a.	c #848484",
"b.	c #9C9C9C",
"c.	c #B4B4B4",
"d.	c #242424",
"e.	c #B9B9B9",
"f.	c #AAAAAA",
"g.	c #AEAEAE",
"h.	c #232323",
"i.	c #656565",
"j.	c #B3B3B3",
"k.	c #A9A9A9",
"l.	c #A8A8A8",
"m.	c #222222",
"n.	c #767676",
"o.	c #757575",
"p.	c #747474",
"q.	c #727272",
"r.	c #636363",
"s.	c #0B0B0B",
"t.	c #8D8D8D",
"u.	c #ADADAD",
"v.	c #A2A2A2",
"w.	c #202020",
"x.	c #0A0A0A",
"y.	c #151515",
"                                                                                                ",
"                                                                                                ",
"          . . . . . . . . . . . . . . . . . . . . . . . . . . . . . . . . . . .                 ",
"        . . + + + + + + + + + + + + + @ @ @ @ @ @ @ @ @ @ # # # # # # # # # $ . .               ",
"      . . % & & & & & & & * * * = = - - - ; ; > > > , , ' ' ) ) ) ! ! ~ ~ ~ { ] ^ .             ",
"      . . & ' / / / / / / / / / / / / / / / / / / / / / / / / / / / / / / / / ( _ ^ .           ",
"      . . & / : : : : : < < < [ [ } } } | | 1 1 1 2 2 3 3 3 4 4 5 5 5 % % 6 6 7 ( _ ^ .         ",
"      . . & / : : : : < < < [ [ } } } | | 1 1 1 2 2 3 3 3 4 4 5 5 5 % % 6 6 6 7 7 / 8 ^ .       ",
"      . . & / : : : < < < [ [ } } } | | 1 1 1 2 2 3 3 3 4 9 0 . a b % 6 6 6 7 7 / / 7 c d .     ",
"      . . & / : : < < < [ [ } } } | | 1 1 1 2 2 3 3 3 9 e . $ f $ a g 6 6 7 7 / / ( / 6 h . .   ",
"      . . & / : < < < [ [ } } } | | 1 1 1 2 2 3 3 i d . j k 6 l m $ a g 7 7 / / ( ( ( 7 % 0 .   ",
"      . . & / < < < [ [ } } } | | 1 1 1 2 2 3 3 i a . n 4 4 o m ! m . p 7 / / ( ( ( { 7 % 0 .   ",
"      . . * / < < [ [ } } } | | 1 1 1 2 2 3 3 i a q r : s s s s t u . v / / ( ( ( { { / 5 0 .   ",
"      . . * / < [ [ } } } | | 1 1 1 2 2 3 3 4 0 w x y y y y y y z . u / / ( ( ( { { ~ 7 5 0 .   ",
"      . . = / [ [ } } } | | 1 1 1 2 2 3 3 4 4 . A c c c c c c B . u / / ( ( ( { { ~ ~ 7 5 0 .   ",
"      . . = / [ } } } | | 1 1 1 2 2 3 3 4 4 4 . C } } } } } D . u / / ( ( ( { { ~ ~ ~ / 4 0 .   ",
"      . . = / } } } | | 1 1 1 2 2 3 3 4 4 4 5 . E % % % % % F . G / ( ( ( { { H I J ! 7 4 0 .   ",
"      . . - / } } | | 1 1 1 2 2 3 3 4 4 4 5 5 e ^ ~ ~ ~ ~ ~ K . L ( ( ( { { M . . $ J / 3 N .   ",
"      . . - / | | | 1 1 1 2 2 3 3 4 4 4 5 5 % E . y } } } } > . O ( ( { { M . P Q $ $ g 3 N .   ",
"      . . ; / | | 1 1 2 2 2 3 3 4 4 4 5 5 % % R . F S S S S / T $ U V : M . P 6 - m $ a o N .   ",
"      . . ; / | 1 1 2 2 2 3 3 4 4 4 5 5 % % % 6 a W X X X X | i P . . . . P 6 4 Y ! n . Q N .   ",
"      . . ; / 1 1 2 2 2 3 3 4 4 4 5 5 % % % 6 Z . P : ` ` ` y 5 ; 6 Q f  .6 6 ` ` t ..a 2 N .   ",
"      . . > / 1 2 2 2 3 3 4 4 4 5 5 % % % 6 Z . P 6 _ +.+.+.+.+.+.c 3 , l ( +.+.+.@.. #.1 N .   ",
"      . . > / 2 2 2 3 3 4 4 4 5 5 % % % 6 Z . P 6 > 8 8 8 8 8 8 8 8 8 8 < 8 8 8 8 F . 9 1 N .   ",
"      . . , / 2 2 3 3 4 4 4 5 5 % % % 6 g . $ $.; | [ [ [ [ [ [ [ [ [ [ [ [ [ [ %.j q / | N .   ",
"      . . , / 2 3 3 4 4 4 5 5 % % % 6 g $ $ m - 3 2 2 2 2 2 2 2 2 2 2 2 2 2 2 2 &.. *.7 | N .   ",
"      . . , / 3 3 4 4 4 5 5 % % % 6 g $ $ m - % 5 5 5 5 5 5 =.#.9 -.5 5 5 5 5 ;.. >.> 7 | ,..   ",
"      . . ' / 3 4 4 4 5 5 % % % 6 g $ $ m = 7 6 6 6 6 6 6 E . . . . 0 '.).).d . @ 1 > / } ,..   ",
"      . . ' / 4 4 4 5 5 % % % 6 g $ $ m > 7 7 7 7 7 7 7 D . T [ !.>.~.. . . q {.> > ; 7 } ,..   ",
"      . . ) / 4 4 5 5 % % % 6 g $ $ m > / / / / / / / ].. ^.[ ) ) ' ' ' , , > > > ; ; / [ ,..   ",
"      . . ) / 5 5 5 % % % 6 c ~.. Q ; ( ( ( ( ( ( ( V . ^.[ ) ) ' ' ' , , > > > ; ; - 7 [ ,..   ",
"      . . ! / 5 5 % % 6 6 c ^ . /.; ( ( ( ( ( ( ( V . ^.[ ) ) ' ' ' , , > > > ; ; - - 7 < ,..   ",
"      . . ! / 5 % % 6 6 c ^ . /.; ( ( ( ( ( ( ( V . ^.[ ) ) ' ' ' , , > > > ; ; - - - 7 < ,..   ",
"      . . ! / % % 6 6 c ^ . /.! 7 7 7 7 7 7 7 ].. ^.[ ) ) ' ' ' , , > > > ; ; - - - = 7 < ,..   ",
"      . . ~ / % 6 6 c ^ . /.( 3 3 3 3 3 3 3 9 . ^.[ ) ) ' ' , , , > > > ; ; - - - = = / : ,..   ",
"      . . ~ / 6 6 c ^ . /.% : : : : : : : (.a $ J ) ) ' ' , , , > > ; ; ; - - - = = * 7 : ,..   ",
"      . . { / 6 6 _.. n 2 -.-.-.-.-.-.-.:.a $ J ) ) ' ' , , , > > ; ; ; - - = = = * * 7 : ,..   ",
"      . . { / 6 u . f [ %.%.%.%.%.%.%.<.w $ J ) ) ' ' , , , > > ; ; ; - - = = = * * & / : ,..   ",
"      . . ( / u . [.}.|.|.|.|.|.|.|.1.w $ J ) ) ' ' , , , > > ; ; ; - - = = = * * & & / : ,..   ",
"      . . ( p . [.2.3.3.3.3.3.3.3.4.5.$ J ) ) ' ' , , , > > ; ; ; - - = = = * * & & & / : ,..   ",
"      . . _ . 6.S 7.7.7.7.7.7.7.8.5.$ J ) ) ' ' , , , > > ; ; ; - - = = = * * & & & & / : ,..   ",
"      . . :.. ).9.0.a.b.9.9.9.c.d.. V { { ~ ~ ~ ~ ~ ! ! ! ! ! ) ) ) ) ) ' ) ' ' ' ' ' 5 : ,..   ",
"      . . c.. k e.f.F v e.e.g.h.. 9 4 3 3 2 2 1 1 1 | | } } } [ [ < < < : : : : : : : : : ,..   ",
"      . . _.. i.j.j.k.f.j.l.m.. d n.o.o.o.o.o.p.p.p.p.p.C C C C C q.q.q.q.q.q.q.q.q.q.q.r.. .   ",
"        . . . s.t.u.u.u.v.w.. . . . . . . . . . . . . . . . . . . . . . . . . . . . . . . .     ",
"              . x...D A y..                                                                     ",
"                . . . . .                                                                       ",
"                                                                                                "};
