/* XPM */
static char * quit_xpm[] = {
"48 48 492 2",
"  	c None",
". 	c #525252",
"+ 	c #383838",
"@ 	c #363636",
"# 	c #272728",
"$ 	c #656565",
"% 	c #444444",
"& 	c #323232",
"* 	c #353535",
"= 	c #555555",
"- 	c #797979",
"; 	c #B1B1B3",
"> 	c #3B3C41",
", 	c #969696",
"' 	c #696969",
") 	c #454545",
"! 	c #333333",
"~ 	c #474747",
"{ 	c #666666",
"] 	c #868686",
"^ 	c #ACACAE",
"/ 	c #BABBBD",
"( 	c #B7B7B8",
"_ 	c #B2B3B5",
": 	c #9A9A9A",
"< 	c #6C6C6C",
"[ 	c #414141",
"} 	c #303030",
"| 	c #898989",
"1 	c #C8C8C9",
"2 	c #C4C4C6",
"3 	c #C0C0C1",
"4 	c #BCBCBE",
"5 	c #B7B8B9",
"6 	c #B4B4B6",
"7 	c #AFB0B2",
"8 	c #36373A",
"9 	c #505050",
"0 	c #636363",
"a 	c #888888",
"b 	c #D5D5D6",
"c 	c #D1D1D2",
"d 	c #CDCDCF",
"e 	c #C9C9CA",
"f 	c #C5C5C7",
"g 	c #C1C1C2",
"h 	c #BDBDBF",
"i 	c #B9B9BB",
"j 	c #B5B6B7",
"k 	c #ADAEAF",
"l 	c #979797",
"m 	c #3B3B3B",
"n 	c #3A3B40",
"o 	c #E2E2E3",
"p 	c #DEDEDF",
"q 	c #DADADB",
"r 	c #D6D6D8",
"s 	c #D2D2D3",
"t 	c #CECFD0",
"u 	c #CACACB",
"v 	c #C6C7C8",
"w 	c #C2C2C4",
"x 	c #BEBFC0",
"y 	c #BABABC",
"z 	c #B2B2B4",
"A 	c #AFAFB0",
"B 	c #AAABAD",
"C 	c #262626",
"D 	c #2B2B2B",
"E 	c #443F3F",
"F 	c #9E9D9D",
"G 	c #484848",
"H 	c #6A6666",
"I 	c #362F2F",
"J 	c #E0E0E1",
"K 	c #DBDBDC",
"L 	c #D8D8D9",
"M 	c #D3D3D5",
"N 	c #D0D0D1",
"O 	c #CBCCCD",
"P 	c #C8C8C8",
"Q 	c #C3C4C5",
"R 	c #BBBCBD",
"S 	c #B7B7B9",
"T 	c #B3B4B6",
"U 	c #AFAFB1",
"V 	c #A7A7AA",
"W 	c #1F1E1E",
"X 	c #5F3D3D",
"Y 	c #483232",
"Z 	c #5C4949",
"` 	c #A19B9B",
" .	c #403535",
"..	c #B96767",
"+.	c #2B2424",
"@.	c #A09B9B",
"#.	c #DCDDDE",
"$.	c #D9D9D9",
"%.	c #D1D1D1",
"&.	c #CDCDCE",
"*.	c #C8C8CA",
"=.	c #C5C5C6",
"-.	c #C0C1C2",
";.	c #B8B9BA",
">.	c #B5B5B7",
",.	c #B0B1B3",
"'.	c #ADADAF",
").	c #A8A9AB",
"!.	c #A5A5A7",
"~.	c #3B3030",
"{.	c #764444",
"].	c #995B5B",
"^.	c #402D2D",
"/.	c #312727",
"(.	c #342E2E",
"_.	c #514C4C",
":.	c #222020",
"<.	c #B16969",
"[.	c #B56D6D",
"}.	c #2D2323",
"|.	c #D9DADA",
"1.	c #D6D6D7",
"2.	c #D1D2D3",
"3.	c #CECECF",
"4.	c #C9CACB",
"5.	c #C6C6C8",
"6.	c #C2C2C3",
"7.	c #BEBEC0",
"8.	c #B6B7B7",
"9.	c #AEAFB0",
"0.	c #AAAAAC",
"a.	c #A6A6A8",
"b.	c #A2A2A5",
"c.	c #5C5454",
"d.	c #4E3535",
"e.	c #D07E7E",
"f.	c #CC7B7B",
"g.	c #B46B6B",
"h.	c #935858",
"i.	c #624343",
"j.	c #443333",
"k.	c #403737",
"l.	c #392E2E",
"m.	c #704545",
"n.	c #D07C7C",
"o.	c #C57474",
"p.	c #392929",
"q.	c #2A2627",
"r.	c #D7D7D8",
"s.	c #D3D3D4",
"t.	c #CFD0D1",
"u.	c #CBCBCC",
"v.	c #C7C8C8",
"w.	c #C3C3C5",
"x.	c #BFC0C0",
"y.	c #BBBBBD",
"z.	c #B3B3B5",
"A.	c #ABACAE",
"B.	c #A7A7A9",
"C.	c #A3A4A6",
"D.	c #9F9FA2",
"E.	c #362D2D",
"F.	c #CE7676",
"G.	c #D07B7B",
"H.	c #CF7979",
"I.	c #CF7878",
"J.	c #CF7676",
"K.	c #CC7272",
"L.	c #C86D6D",
"M.	c #764C4C",
"N.	c #482F2F",
"O.	c #D27F7F",
"P.	c #C17676",
"Q.	c #2F2727",
"R.	c #3B3A3A",
"S.	c #CCCCCE",
"T.	c #C4C5C6",
"U.	c #C0C0C2",
"V.	c #BCBDBE",
"W.	c #B8B8BA",
"X.	c #B4B5B7",
"Y.	c #B0B0B2",
"Z.	c #ACADAF",
"`.	c #A8A8AB",
" +	c #A5A5A6",
".+	c #A0A1A3",
"++	c #9D9D9F",
"@+	c #2E2B2B",
"#+	c #C66666",
"$+	c #C86969",
"%+	c #C56666",
"&+	c #BB6464",
"*+	c #B86464",
"=+	c #B66161",
"-+	c #BC6161",
";+	c #A25555",
">+	c #362626",
",+	c #C96767",
"'+	c #D17F7F",
")+	c #B86E6E",
"!+	c #5C4040",
"~+	c #322E2E",
"{+	c #585657",
"]+	c #C6C6C7",
"^+	c #C1C1C3",
"/+	c #B9BABB",
"(+	c #B6B6B7",
"_+	c #B1B2B4",
":+	c #AEAEAF",
"<+	c #A9AAAC",
"[+	c #A1A2A4",
"}+	c #9E9EA0",
"|+	c #999A9D",
"1+	c #3D3232",
"2+	c #C35F5F",
"3+	c #B75C5C",
"4+	c #A45757",
"5+	c #995353",
"6+	c #945252",
"7+	c #985353",
"8+	c #9E5353",
"9+	c #8F4F4F",
"0+	c #272020",
"a+	c #C66262",
"b+	c #C66565",
"c+	c #BF6B6B",
"d+	c #B05E5E",
"e+	c #7C4747",
"f+	c #1D1D1D",
"g+	c #4A4A4A",
"h+	c #BFBFC0",
"i+	c #ABABAD",
"j+	c #A6A7A9",
"k+	c #A3A3A6",
"l+	c #9E9FA1",
"m+	c #9B9B9E",
"n+	c #96979A",
"o+	c #585858",
"p+	c #4F3737",
"q+	c #B35C5C",
"r+	c #9C5454",
"s+	c #935151",
"t+	c #985454",
"u+	c #654343",
"v+	c #352C2C",
"w+	c #2F2626",
"x+	c #4B3E3E",
"y+	c #2E2222",
"z+	c #BF6060",
"A+	c #B85D5D",
"B+	c #A75858",
"C+	c #995454",
"D+	c #925050",
"E+	c #322727",
"F+	c #3B3839",
"G+	c #B7B8BA",
"H+	c #ACACAF",
"I+	c #A8A8AA",
"J+	c #A4A5A6",
"K+	c #A0A0A3",
"L+	c #9C9D9E",
"M+	c #98989B",
"N+	c #949597",
"O+	c #2F2B2B",
"P+	c #764242",
"Q+	c #965252",
"R+	c #7F4747",
"S+	c #332929",
"T+	c #3A3838",
"U+	c #4E4545",
"V+	c #482D2D",
"W+	c #975353",
"X+	c #8E5050",
"Y+	c #6B3F3F",
"Z+	c #342B2B",
"`+	c #524B4B",
" @	c #BDBEBF",
".@	c #A9A9AC",
"+@	c #A5A6A7",
"@@	c #A1A1A4",
"#@	c #999A9C",
"$@	c #959598",
"%@	c #919294",
"&@	c #231E1E",
"*@	c #945151",
"=@	c #955252",
"-@	c #673C3C",
";@	c #332828",
">@	c #2F2929",
",@	c #6E3F3F",
"'@	c #8F5050",
")@	c #884E4E",
"!@	c #4F3333",
"~@	c #392A2B",
"{@	c #4B4849",
"]@	c #BABBBC",
"^@	c #A6A6A9",
"/@	c #A2A3A5",
"(@	c #9E9EA1",
"_@	c #9A9B9D",
":@	c #969699",
"<@	c #929395",
"[@	c #8E8F91",
"}@	c #5F5D5D",
"|@	c #4B3333",
"1@	c #7A4444",
"2@	c #2C2424",
"3@	c #9D9B9B",
"4@	c #201F1F",
"5@	c #864B4B",
"6@	c #7A4747",
"7@	c #402C2C",
"8@	c #4F4141",
"9@	c #A7A8AA",
"0@	c #A4A4A6",
"a@	c #9FA0A2",
"b@	c #9C9C9E",
"c@	c #97989A",
"d@	c #949496",
"e@	c #8F9093",
"f@	c #8C8D8E",
"g@	c #504F4F",
"h@	c #504242",
"i@	c #7E4E4E",
"j@	c #2E2626",
"k@	c #292222",
"l@	c #7F4848",
"m@	c #3B2929",
"n@	c #4B3737",
"o@	c #393A3F",
"p@	c #B8B9BB",
"q@	c #A9A9AB",
"r@	c #A1A1A3",
"s@	c #9D9E9F",
"t@	c #99999C",
"u@	c #959597",
"v@	c #919194",
"w@	c #8D8D90",
"x@	c #89898C",
"y@	c #585757",
"z@	c #363535",
"A@	c #373434",
"B@	c #443E3E",
"C@	c #483434",
"D@	c #503D3D",
"E@	c #B6B7B8",
"F@	c #8E8E91",
"G@	c #8A8B8D",
"H@	c #868689",
"I@	c #545454",
"J@	c #232323",
"K@	c #4E4E4E",
"L@	c #B3B4B5",
"M@	c #9B9C9E",
"N@	c #97979A",
"O@	c #939496",
"P@	c #8F9092",
"Q@	c #8C8C8E",
"R@	c #87888B",
"S@	c #848486",
"T@	c #9C9C9C",
"U@	c #29292C",
"V@	c #5F5F5F",
"W@	c #98999B",
"X@	c #909194",
"Y@	c #8D8D8F",
"Z@	c #88898C",
"`@	c #858588",
" #	c #808184",
".#	c #202021",
"+#	c #595959",
"@#	c #717171",
"##	c #A2A2A4",
"$#	c #9A9A9D",
"%#	c #959698",
"&#	c #929295",
"*#	c #8D8E91",
"=#	c #8A8A8D",
"-#	c #858689",
";#	c #828285",
">#	c #7D7E81",
",#	c #1F1F1F",
"'#	c #747474",
")#	c #939495",
"!#	c #8F8F92",
"~#	c #8B8C8E",
"{#	c #87878A",
"]#	c #838486",
"^#	c #7F7F83",
"/#	c #7B7C7E",
"(#	c #626262",
"_#	c #909093",
":#	c #8C8D8F",
"<#	c #858587",
"[#	c #7C7C80",
"}#	c #78797C",
"|#	c #A6A6A7",
"1#	c #919295",
"2#	c #898A8D",
"3#	c #858589",
"4#	c #818285",
"5#	c #797A7D",
"6#	c #757679",
"7#	c #969799",
"8#	c #939395",
"9#	c #8E8F92",
"0#	c #8B8B8D",
"a#	c #86878A",
"b#	c #838386",
"c#	c #7E7F82",
"d#	c #76777B",
"e#	c #737476",
"f#	c #97989B",
"g#	c #949596",
"h#	c #88888B",
"i#	c #848587",
"j#	c #808084",
"k#	c #7C7C7F",
"l#	c #78787C",
"m#	c #747478",
"n#	c #707174",
"o#	c #7D7D81",
"p#	c #797A7C",
"q#	c #757579",
"r#	c #717274",
"s#	c #6D6D71",
"t#	c #86868A",
"u#	c #828385",
"v#	c #7A7B7D",
"w#	c #76777A",
"x#	c #727376",
"y#	c #6E6F72",
"z#	c #6B6B6E",
"A#	c #7F8083",
"B#	c #77787B",
"C#	c #747477",
"D#	c #6F7074",
"E#	c #6B6C6F",
"F#	c #67686B",
"G#	c #98999C",
"H#	c #818184",
"I#	c #7C7D80",
"J#	c #79797C",
"K#	c #747578",
"L#	c #717174",
"M#	c #6C6D71",
"N#	c #696A6C",
"O#	c #646569",
"P#	c #76767A",
"Q#	c #727375",
"R#	c #6E6E72",
"S#	c #6A6B6E",
"T#	c #66666A",
"U#	c #626366",
"V#	c #737477",
"W#	c #6F7073",
"X#	c #6B6B6F",
"Y#	c #636367",
"Z#	c #5F6063",
"`#	c #909193",
" $	c #6C6D70",
".$	c #68696C",
"+$	c #606164",
"@$	c #5C5D61",
"#$	c #39393E",
"$$	c #515151",
"%$	c #767676",
"&$	c #7A7A7D",
"*$	c #727275",
"=$	c #6D6E72",
"-$	c #6A6B6D",
";$	c #65666A",
">$	c #5D5E62",
",$	c #5A5A5E",
"'$	c #282828",
")$	c #6D6D6D",
"!$	c #6F6F73",
"~$	c #67676B",
"{$	c #5A5B5F",
"]$	c #57585B",
"^$	c #494949",
"/$	c #292929",
"($	c #646468",
"_$	c #5C5C61",
":$	c #58595C",
"<$	c #545559",
"[$	c #636366",
"}$	c #424242",
"|$	c #313131",
"1$	c #393939",
"2$	c #525256",
"3$	c #28282A",
"                                                                                                ",
"                                                                                                ",
"                                                                                                ",
"                                                                                                ",
"                                                                                                ",
"                                                                  . + @ #                       ",
"                                                          $ % & * = - ; >                       ",
"                                                  , ' ) ! ~ { ] ^ / ( _ >                       ",
"                                            : < [ } % $ | 1 2 3 4 5 6 7 >                       ",
"          :                             8 9 ) 0 a b c d e f g h i j ; k >                       ",
"          [   l             m &         n o p q r s t u v w x y ( z A B >                       ",
"          C D E   F         G H I       > J K L M N O P Q 3 R S T U ^ V >                       ",
"            W X Y Z `          ...+.  @.> #.$.b %.&.*.=.-.h ;.>.,.'.).!.>                       ",
"            ~.{.].^./.(._.    :.<.[.}.  > |.1.2.3.4.5.6.7.y 8.z 9.0.a.b.>                       ",
"            c.d.e.f.g.h.i.j.k.l.m.n.o.p.q.r.s.t.u.v.w.x.y.S z.U A.B.C.D.>                       ",
"              E.F.G.H.I.J.K.L.M.N.J.O.P.Q.R.%.S.1 T.U.V.W.X.Y.Z.`. +.+++>                       ",
"              @+#+$+%+&+*+=+-+;+>+,+F.'+)+!+~+{+]+^+7./+(+_+:+<+a.[+}+|+>                       ",
"              1+2+3+4+5+6+7+8+9+0+a+b+L.c+d+e+f+g+h+y.( z.U i+j+k+l+m+n+>                       ",
"            o+p+q+r+s+t+u+v+w+x+y+z+A+B+C+D+E+F+3 4 G+6 Y.H+I+J+K+L+M+N+>                       ",
"            O+P+r+Q+R+S+T+    U+V+B+W+X+Y+Z+`+^+ @i j ; k .@+@@@}+#@$@%@>                       ",
"            &@*@=@-@;@        >@,@'@)@!@~@{@w h+]@( _ A B ^@/@(@_@:@<@[@>                       ",
"          }@|@=@1@2@        3@4@5@6@7@8@> Q 3 4 S 6 7 ^ 9@0@a@b@c@d@e@f@>                       ",
"          g@h@i@j@            k@l@m@n@  o@-.h p@>.,.'.q@+@r@s@t@u@v@w@x@>                       ",
"          y@z@A@            m B@C@D@  F > x y E@z 9.0.a.b.}+_@:@<@F@G@H@>                       ",
"          I@                J@K@    F   > y.S L@U A.B.C.D.M@N@O@P@Q@R@S@>                       ",
"                              T@      | U@0 V@Y.'.). +.+++W@u@X@Y@Z@`@ #>                       ",
"                                      9 .#. +#@#<+a.##}+$#%#&#*#=#-#;#>#>                       ",
"                                      0 ,#+ K@'#j+k+l+m+N@)#!#~#{#]#^#/#>                       ",
"                                        o@'#(#I+J+K+L+M+N+_#:#Z@<# #[#}#>                       ",
"                                        > :+<+|#[+}+#@$@1#w@2#3#4#>#5#6#>                       ",
"                                        > B ^@/@l+m+7#8#9#0#a#b#c#/#d#e#>                       ",
"                                        > 9@0@a@b@f#g#_#:#h#i#j#k#l#m#n#>                       ",
"                                        > +@@@s@t@$@v@w@2#`@4#o#p#q#r#s#>                       ",
"                                        > /@(@_@:@<@F@G@t#u#c#v#w#x#y#z#>                       ",
"                                        > D.b@c@d@e@Q@R@S@A#k#B#C#D#E#F#>                       ",
"                                        > ++G#u@X@Y@x@`@H#I#J#K#L#M#N#O#>                       ",
"                                        > $#%#&#*#=#-#u#>#v#P#Q#R#S#T#U#>                       ",
"                                        > N@)#!#~#{#]#^#/#B#V#W#X#F#Y#Z#>                       ",
"                                        > u@`#Y@Z@<# #[#}#m#n# $.$O#+$@$>                       ",
"                                        #$$$%$2#-#;#>#&$6#*$=$-$;$U#>$,$>                       ",
"                                $$  $$  $$  [ '$@ )$/#d#e#!$X#~$Y#Z#{$]$>                       ",
"                              $$  $$  $$  $$  $$  ^$} /$[ $ X#($+$_$:$<$>                       ",
"                            $$  $$  $$  [$  $$  $$  $$  $$}$* } |$1$:$2$>                       ",
"                          $$  [$  $$  $$  $$  $$  $$  $$  $$  $$  $$^$/$3$                      ",
"                            $$  $$  $$  $$  $$  $$  $$  $$  $$  $$  $$  $$                      ",
"                                                                                                ",
"                                                                                                ",
"                                                                                                "};
