/* XPM */
static char * rotation_xpm[] = {
"48 48 18 1",
" 	c None",
".	c #000000",
"+	c #636363",
"@	c #909090",
"#	c #272727",
"$	c #2E2E2E",
"%	c #343434",
"&	c #4A4A4A",
"*	c #6D6D6D",
"=	c #6E6C6A",
"-	c #898989",
";	c #0B0B0B",
">	c #585858",
",	c #5F5F5F",
"'	c #111111",
")	c #020202",
"!	c #4E7A3B",
"~	c #2F4C22",
"                                                ",
"                                                ",
"                 ..                             ",
"                ...                             ",
"            ... ...                             ",
"      ....  ......                              ",
"     .      ......                              ",
"    .     +  .....                              ",
"   .     + + ......                             ",
"   .      + ........                            ",
"   .       ..... ..                             ",
"   .       .... +  .....                        ",
"   .       ... + + ...@                         ",
"   .      + + + +  ..#.$                        ",
"   .     + + + + + ..  %.&                   .  ",
"   .      + +      ..   *.$                 . . ",
"   .     = +        .    -;$                . . ",
"   .                      -.&     .  .  ...  .  ",
"   .                       *.     .  .  .       ",
"   .                        %$    .  .  ..      ",
"   .                        -.    .  .    .     ",
"   .                         #>   .  .    .     ",
"   .                         ,$   .  .  ...     ",
"   .              ..         -'                 ",
"    .  ..        ...          )                 ",
"     . ...   ... ...          )                 ",
"      .....  ......          -'                 ",
"       ...   ......          ,$                 ",
"       ..  +  .....          #>                 ",
"          + + ......        -.                  ",
"           + ........    .  %$                  ",
"            ..... ..     ..*.           !~      ",
"            .... +       ...&          !!~      ",
"            ... + +  .   .;$..     ~!! !~~      ",
"           + + + +    ..           ~!!!!~       ",
"          + + + + +     ..         ~~!!!~       ",
"           + +            ..     +  ~!!!~       ",
"          = +               .. .. + ~!!!!!      ",
"                              ...+ !!!~~~!!     ",
"                             .... !!!!~ ~~      ",
"                             .... !!~~ +        ",
"                                  ~~~ + +       ",
"                                 + + + +        ",
"                                + + + +         ",
"                                 + +            ",
"                                = +             ",
"                                                ",
"                                                "};
