/* XPM */
static char * round_empty_xpm[] = {
"16 16 4 1",
" 	c None",
".	c #F16F6F",
"+	c #E91515",
"@	c #E80909",
"                ",
"                ",
"                ",
"                ",
"                ",
"      .++.      ",
"     .@  @.     ",
"     +    +     ",
"     +    +     ",
"     .@  @.     ",
"      .++.      ",
"                ",
"                ",
"                ",
"                ",
"                "};
