/* XPM */
static char * run_macro_xpm[] = {
"48 48 761 2",
"  	c None",
". 	c #3D3D3D",
"+ 	c #161616",
"@ 	c #151514",
"# 	c #10110F",
"$ 	c #383C34",
"% 	c #3C3E3B",
"& 	c #545D48",
"* 	c #333B29",
"= 	c #21271A",
"- 	c #2B3421",
"; 	c #28301F",
"> 	c #303925",
", 	c #272F1E",
"' 	c #2D3424",
") 	c #272C22",
"! 	c #2F3528",
"~ 	c #414838",
"{ 	c #3D4337",
"] 	c #4A4E44",
"^ 	c #0C0D0A",
"/ 	c #A7BC87",
"( 	c #A4BB87",
"_ 	c #131511",
": 	c #3E3F3C",
"< 	c #60625D",
"[ 	c #474C3F",
"} 	c #252A1F",
"| 	c #2C3324",
"1 	c #434F34",
"2 	c #768A5C",
"3 	c #9CB778",
"4 	c #9AB877",
"5 	c #9EB97A",
"6 	c #99B776",
"7 	c #93B26F",
"8 	c #94B271",
"9 	c #9BB776",
"0 	c #97B474",
"a 	c #95B372",
"b 	c #4B583B",
"c 	c #060705",
"d 	c #A1BC7D",
"e 	c #A0BB7E",
"f 	c #9AB379",
"g 	c #10120D",
"h 	c #070806",
"i 	c #111211",
"j 	c #2D2F2B",
"k 	c #525A45",
"l 	c #414A35",
"m 	c #8CA36C",
"n 	c #8FAE6B",
"o 	c #8EAE69",
"p 	c #8AAC63",
"q 	c #88A960",
"r 	c #89A960",
"s 	c #85A75A",
"t 	c #85A758",
"u 	c #84A859",
"v 	c #87A75E",
"w 	c #89A861",
"x 	c #88A95E",
"y 	c #8BAA63",
"z 	c #8DAA67",
"A 	c #778E5D",
"B 	c #1B2214",
"C 	c #90AF6C",
"D 	c #8FAD6D",
"E 	c #8AA667",
"F 	c #242820",
"G 	c #090909",
"H 	c #30312E",
"I 	c #59634C",
"J 	c #9DB47C",
"K 	c #9BB578",
"L 	c #83A655",
"M 	c #80A352",
"N 	c #7CA051",
"O 	c #7C9D4E",
"P 	c #78974C",
"Q 	c #76924A",
"R 	c #759149",
"S 	c #77944A",
"T 	c #79964C",
"U 	c #79974D",
"V 	c #7E9C53",
"W 	c #3B472A",
"X 	c #212B17",
"Y 	c #86AC5D",
"Z 	c #81A655",
"` 	c #7C9E51",
" .	c #7C994E",
"..	c #7B9B4F",
"+.	c #22261C",
"@.	c #191B16",
"#.	c #74865A",
"$.	c #90AA6B",
"%.	c #86A457",
"&.	c #77964B",
"*.	c #647B3F",
"=.	c #3A4727",
"-.	c #252C19",
";.	c #161910",
">.	c #262C1D",
",.	c #202419",
"'.	c #33392A",
").	c #39402F",
"!.	c #24291D",
"~.	c #343B28",
"{.	c #2F3525",
"].	c #292F21",
"^.	c #090A06",
"/.	c #455A2D",
"(.	c #7D9F50",
"_.	c #769249",
":.	c #708845",
"<.	c #1E2413",
"[.	c #303922",
"}.	c #0F100D",
"|.	c #829E5B",
"1.	c #728F49",
"2.	c #495C2F",
"3.	c #1F2615",
"4.	c #11140D",
"5.	c #22241D",
"6.	c #484C42",
"7.	c #12160D",
"8.	c #748E47",
"9.	c #1A1F10",
"0.	c #1F2415",
"a.	c #3D3D3C",
"b.	c #151613",
"c.	c #586644",
"d.	c #232B1A",
"e.	c #444E37",
"f.	c #161913",
"g.	c #455330",
"h.	c #28311B",
"i.	c #2E2E2D",
"j.	c #40423E",
"k.	c #292A28",
"l.	c #353831",
"m.	c #2E2E31",
"n.	c #494B53",
"o.	c #575966",
"p.	c #3B3C3F",
"q.	c #3A3A3A",
"r.	c #1B1B1B",
"s.	c #333437",
"t.	c #323238",
"u.	c #232328",
"v.	c #060606",
"w.	c #3C3C3D",
"x.	c #1D1D1D",
"y.	c #6B6D7B",
"z.	c #8F93A9",
"A.	c #9296AC",
"B.	c #85899C",
"C.	c #222124",
"D.	c #676767",
"E.	c #2E2D32",
"F.	c #9B9FB6",
"G.	c #8D90A6",
"H.	c #8A8EA2",
"I.	c #727586",
"J.	c #121212",
"K.	c #2B2B2B",
"L.	c #232323",
"M.	c #4E4E4E",
"N.	c #5D5D5D",
"O.	c #2A2A2A",
"P.	c #17181A",
"Q.	c #646568",
"R.	c #424247",
"S.	c #464953",
"T.	c #676878",
"U.	c #85889D",
"V.	c #8C8FA5",
"W.	c #52535C",
"X.	c #454545",
"Y.	c #434343",
"Z.	c #55555F",
"`.	c #8E91A7",
" +	c #82859A",
".+	c #86899E",
"++	c #828497",
"@+	c #141417",
"#+	c #595959",
"$+	c #212121",
"%+	c #595961",
"&+	c #57595F",
"*+	c #313132",
"=+	c #282828",
"-+	c #464646",
";+	c #656565",
">+	c #1C1C1C",
",+	c #343437",
"'+	c #828498",
")+	c #6E7281",
"!+	c #18191A",
"~+	c #545555",
"{+	c #2E2F31",
"]+	c #3E404B",
"^+	c #7D8093",
"/+	c #878A9F",
"(+	c #8E91A8",
"_+	c #626472",
":+	c #3F414A",
"<+	c #393A43",
"[+	c #24252A",
"}+	c #656675",
"|+	c #8C8FA4",
"1+	c #84879C",
"2+	c #84879B",
"3+	c #878A9E",
"4+	c #6D6F81",
"5+	c #19191B",
"6+	c #1F1F1F",
"7+	c #2F3033",
"8+	c #7A7D8F",
"9+	c #9396AD",
"0+	c #9A9EB5",
"a+	c #9DA0B7",
"b+	c #9397AD",
"c+	c #19181A",
"d+	c #1B1B1D",
"e+	c #2F3238",
"f+	c #9B9EB7",
"g+	c #8E92A8",
"h+	c #4E505C",
"i+	c #3F3F47",
"j+	c #393A3E",
"k+	c #222327",
"l+	c #1E1F23",
"m+	c #5E606E",
"n+	c #9295AC",
"o+	c #9093AA",
"p+	c #8C90A6",
"q+	c #8D8FA4",
"r+	c #9094AA",
"s+	c #777B8D",
"t+	c #818196",
"u+	c #9597AD",
"v+	c #898CA2",
"w+	c #8B8EA4",
"x+	c #8D91A6",
"y+	c #9296AE",
"z+	c #7E8295",
"A+	c #75798A",
"B+	c #808497",
"C+	c #8F92A7",
"D+	c #888BA0",
"E+	c #727587",
"F+	c #17171B",
"G+	c #43454E",
"H+	c #7C7E8E",
"I+	c #232224",
"J+	c #3E3E3E",
"K+	c #828597",
"L+	c #3A3B43",
"M+	c #15171A",
"N+	c #747689",
"O+	c #8A8DA2",
"P+	c #9497AE",
"Q+	c #9A9EB6",
"R+	c #9CA0B9",
"S+	c #5E6170",
"T+	c #434550",
"U+	c #33333A",
"V+	c #0F0E10",
"W+	c #181818",
"X+	c #1D1D21",
"Y+	c #1A1A21",
"Z+	c #222528",
"`+	c #2D2D30",
" @	c #2A292B",
".@	c #1E1E20",
"+@	c #1D1E22",
"@@	c #161719",
"#@	c #242426",
"$@	c #46474F",
"%@	c #4B4D59",
"&@	c #8F92A8",
"*@	c #0C0C0C",
"=@	c #989CB2",
"-@	c #A3A7C0",
";@	c #2D2E2E",
">@	c #646464",
",@	c #3B3B3B",
"'@	c #9B9EB4",
")@	c #979AB2",
"!@	c #51535F",
"~@	c #555663",
"{@	c #828599",
"]@	c #83869A",
"^@	c #7F8397",
"/@	c #0A0B0B",
"(@	c #030303",
"_@	c #828595",
":@	c #8C8EA1",
"<@	c #9597A9",
"[@	c #A8ABC2",
"}@	c #AEB2C7",
"|@	c #C9CBDB",
"1@	c #F1F2FB",
"2@	c #FFFFFF",
"3@	c #FDFFFF",
"4@	c #DADBE9",
"5@	c #C1C5D7",
"6@	c #B6B9CD",
"7@	c #9EA2B6",
"8@	c #8A8D9D",
"9@	c #8E90A3",
"0@	c #34353C",
"a@	c #020202",
"b@	c #565764",
"c@	c #85889C",
"d@	c #86899D",
"e@	c #515360",
"f@	c #34363E",
"g@	c #2E3037",
"h@	c #818493",
"i@	c #3E3F42",
"j@	c #52545F",
"k@	c #686A7C",
"l@	c #535563",
"m@	c #7F8195",
"n@	c #898CA1",
"o@	c #86889D",
"p@	c #84879D",
"q@	c #41434B",
"r@	c #111111",
"s@	c #333538",
"t@	c #36383E",
"u@	c #51535D",
"v@	c #8C8FA9",
"w@	c #A7AAC5",
"x@	c #CBCDE0",
"y@	c #EDEEF9",
"z@	c #F9FAFF",
"A@	c #F9F9FF",
"B@	c #D9DDE8",
"C@	c #C7CADC",
"D@	c #A8AABC",
"E@	c #707180",
"F@	c #37373F",
"G@	c #3B3B42",
"H@	c #0F0F10",
"I@	c #2E2F34",
"J@	c #6D7181",
"K@	c #9599B0",
"L@	c #9B9FB7",
"M@	c #979BB1",
"N@	c #9CA0B7",
"O@	c #34353A",
"P@	c #828698",
"Q@	c #565966",
"R@	c #27282E",
"S@	c #2C2E35",
"T@	c #3C3D44",
"U@	c #636675",
"V@	c #8D91A7",
"W@	c #84869A",
"X@	c #818597",
"Y@	c #727485",
"Z@	c #39393B",
"`@	c #131317",
" #	c #0C0C0F",
".#	c #0C0C0E",
"+#	c #101014",
"@#	c #111212",
"##	c #151517",
"$#	c #0B0B0E",
"%#	c #0B0D11",
"&#	c #0D0D10",
"*#	c #232429",
"=#	c #5F6370",
"-#	c #898C9E",
";#	c #84869B",
">#	c #6A6B7A",
",#	c #282A2F",
"'#	c #1E2024",
")#	c #1F2025",
"!#	c #5B5D69",
"~#	c #85879D",
"{#	c #6C707D",
"]#	c #252525",
"^#	c #222227",
"/#	c #2B2C2F",
"(#	c #51515D",
"_#	c #585A68",
":#	c #747889",
"<#	c #8A8EA4",
"[#	c #4A4C56",
"}#	c #686A7B",
"|#	c #969AB1",
"1#	c #9EA2BA",
"2#	c #A1A4BD",
"3#	c #9C9FB7",
"4#	c #999DB4",
"5#	c #A2A5BC",
"6#	c #A1A5BA",
"7#	c #989BB2",
"8#	c #9A9DB5",
"9#	c #9699B0",
"0#	c #2A2C30",
"a#	c #555764",
"b#	c #888CA1",
"c#	c #585C67",
"d#	c #3E4049",
"e#	c #313138",
"f#	c #171717",
"g#	c #B5B9D5",
"h#	c #27282D",
"i#	c #202024",
"j#	c #B2B6CB",
"k#	c #9598AD",
"l#	c #141418",
"m#	c #868A9F",
"n#	c #888A9F",
"o#	c #5C5E6C",
"p#	c #33333B",
"q#	c #1F1F23",
"r#	c #202226",
"s#	c #5C5D6A",
"t#	c #85899D",
"u#	c #8A8DA1",
"v#	c #898CA0",
"w#	c #8B8EA2",
"x#	c #8E92A7",
"y#	c #727385",
"z#	c #43454F",
"A#	c #0C0C0D",
"B#	c #0A0A0D",
"C#	c #3F404A",
"D#	c #878BA1",
"E#	c #717488",
"F#	c #7C7F94",
"G#	c #6E707E",
"H#	c #B1B5CF",
"I#	c #696B77",
"J#	c #6E707A",
"K#	c #B7BACE",
"L#	c #9598AA",
"M#	c #9194AB",
"N#	c #7B7E91",
"O#	c #3E3E48",
"P#	c #31323A",
"Q#	c #626473",
"R#	c #6A6C7E",
"S#	c #4C4E56",
"T#	c #8B8FA4",
"U#	c #8F92A6",
"V#	c #9598AC",
"W#	c #86879B",
"X#	c #303139",
"Y#	c #6F7383",
"Z#	c #4E4F5C",
"`#	c #9598AF",
" $	c #9094AB",
".$	c #7D8193",
"+$	c #18181D",
"@$	c #6B6D7F",
"#$	c #6E7184",
"$$	c #6F7283",
"%$	c #6A6C78",
"&$	c #B1B4CC",
"*$	c #636470",
"=$	c #696B76",
"-$	c #B8BBD1",
";$	c #9699AC",
">$	c #000000",
",$	c #121215",
"'$	c #36363F",
")$	c #454751",
"!$	c #42424C",
"~$	c #5E606B",
"{$	c #8A8C9D",
"]$	c #9DA0B6",
"^$	c #9093A8",
"/$	c #5B5D6C",
"($	c #26272C",
"_$	c #9194AA",
":$	c #9194A9",
"<$	c #999CB1",
"[$	c #9EA1B7",
"}$	c #656977",
"|$	c #1F2126",
"1$	c #7A7D8E",
"2$	c #7C7F92",
"3$	c #626575",
"4$	c #32343C",
"5$	c #474853",
"6$	c #36383F",
"7$	c #16161A",
"8$	c #141416",
"9$	c #2E2E32",
"0$	c #26282F",
"a$	c #74778A",
"b$	c #6C6F82",
"c$	c #6C6E79",
"d$	c #B0B4CD",
"e$	c #646571",
"f$	c #B9BCD0",
"g$	c #9698AB",
"h$	c #979BB2",
"i$	c #111115",
"j$	c #6D707F",
"k$	c #44454E",
"l$	c #A3A7B5",
"m$	c #ADB0C0",
"n$	c #989BB0",
"o$	c #707385",
"p$	c #666877",
"q$	c #686B7A",
"r$	c #6C6D7E",
"s$	c #6A6E7C",
"t$	c #373740",
"u$	c #33353B",
"v$	c #AAADC4",
"w$	c #838699",
"x$	c #747789",
"y$	c #6B6E82",
"z$	c #5C5E6E",
"A$	c #17171C",
"B$	c #818393",
"C$	c #85899A",
"D$	c #A2A4B8",
"E$	c #9FA2B5",
"F$	c #2B2B33",
"G$	c #7C7F93",
"H$	c #6B6E80",
"I$	c #6F7280",
"J$	c #BABCD1",
"K$	c #9698AD",
"L$	c #222222",
"M$	c #B4B7CD",
"N$	c #979AAE",
"O$	c #A4A7BF",
"P$	c #3E3F47",
"Q$	c #A9ADBB",
"R$	c #B3B4C4",
"S$	c #8D90A3",
"T$	c #737787",
"U$	c #0A0A0E",
"V$	c #4C4E59",
"W$	c #3F404B",
"X$	c #42444D",
"Y$	c #484853",
"Z$	c #535561",
"`$	c #2B2D32",
" %	c #BABFD6",
".%	c #7F8496",
"+%	c #696C7D",
"@%	c #5A5C6C",
"#%	c #32343A",
"$%	c #9DA0B4",
"%%	c #9EA2B5",
"&%	c #9294A6",
"*%	c #23252A",
"=%	c #7D8094",
"-%	c #6E707D",
";%	c #2E2E2E",
">%	c #636570",
",%	c #646671",
"'%	c #B3B6CC",
")%	c #9295AA",
"!%	c #A5A9BD",
"~%	c #383A41",
"{%	c #A7A9B9",
"]%	c #B6B7C6",
"^%	c #9598AB",
"/%	c #8D90A4",
"(%	c #747587",
"_%	c #393942",
":%	c #B4B8CE",
"<%	c #A7AABF",
"[%	c #A6AABE",
"}%	c #A6A9BE",
"|%	c #B3B7CD",
"1%	c #101013",
"2%	c #C0C3DC",
"3%	c #818498",
"4%	c #737688",
"5%	c #676B7C",
"6%	c #575B69",
"7%	c #2F3037",
"8%	c #A9ADC2",
"9%	c #989BAE",
"0%	c #9C9FB2",
"a%	c #9194A5",
"b%	c #25252A",
"c%	c #7B7E94",
"d%	c #B3B7CF",
"e%	c #61636F",
"f%	c #B7BAD0",
"g%	c #B0B4CA",
"h%	c #383A3F",
"i%	c #A6AAB7",
"j%	c #B7B9C8",
"k%	c #9498AB",
"l%	c #727584",
"m%	c #343539",
"n%	c #969AAE",
"o%	c #ABAEC4",
"p%	c #C2C5E0",
"q%	c #676A7C",
"r%	c #595C6A",
"s%	c #9C9FB3",
"t%	c #24242B",
"u%	c #7E8195",
"v%	c #6E707B",
"w%	c #3A3A3B",
"x%	c #8E90A5",
"y%	c #6F717E",
"z%	c #666974",
"A%	c #C2C5DC",
"B%	c #A7AAC3",
"C%	c #A8ACC0",
"D%	c #A5A8B8",
"E%	c #B8BACB",
"F%	c #8C8FA3",
"G%	c #727486",
"H%	c #A7ABC1",
"I%	c #999BAE",
"J%	c #979AAF",
"K%	c #979BAE",
"L%	c #ACAFC4",
"M%	c #0B0B0C",
"N%	c #C2C5DE",
"O%	c #737587",
"P%	c #313139",
"Q%	c #969AAC",
"R%	c #9395A9",
"S%	c #2B2C34",
"T%	c #717588",
"U%	c #747584",
"V%	c #373738",
"W%	c #151518",
"X%	c #51535C",
"Y%	c #656774",
"Z%	c #8F92A3",
"`%	c #4D4E54",
" &	c #414144",
".&	c #202020",
"+&	c #B2B6CC",
"@&	c #9A9DB0",
"#&	c #A8ABC0",
"$&	c #36363D",
"%&	c #A2A6B5",
"&&	c #B7BBCC",
"*&	c #9699AE",
"=&	c #8C8FA2",
"-&	c #84889C",
";&	c #32323A",
">&	c #A7AAC1",
",&	c #959AAF",
"'&	c #989CB0",
")&	c #A9ACC3",
"!&	c #0A0A0B",
"~&	c #BDC2DC",
"{&	c #85889E",
"]&	c #73778A",
"^&	c #565967",
"/&	c #2D2E36",
"(&	c #AAADC2",
"_&	c #969AAD",
":&	c #131313",
"<&	c #505156",
"[&	c #6A6D7C",
"}&	c #111114",
"|&	c #333335",
"1&	c #5B5B61",
"2&	c #B1B5CD",
"3&	c #9B9EB2",
"4&	c #A8ACC1",
"5&	c #34363D",
"6&	c #A2A4B4",
"7&	c #C0C2D4",
"8&	c #A1A4B9",
"9&	c #9497AD",
"0&	c #9498AF",
"a&	c #A9ADC3",
"b&	c #C1C7E0",
"c&	c #888BA3",
"d&	c #75798C",
"e&	c #5B5F6E",
"f&	c #2D2D35",
"g&	c #979AAD",
"h&	c #9B9FB2",
"i&	c #9A9EB0",
"j&	c #707070",
"k&	c #262627",
"l&	c #1D1D1E",
"m&	c #484848",
"n&	c #444444",
"o&	c #272727",
"p&	c #B5B8D0",
"q&	c #383941",
"r&	c #999CAB",
"s&	c #8B8E9B",
"t&	c #484A52",
"u&	c #4D4F58",
"v&	c #707281",
"w&	c #767A8C",
"x&	c #34353E",
"y&	c #999CB0",
"z&	c #9397AE",
"A&	c #9598B0",
"B&	c #ABAFC5",
"C&	c #848699",
"D&	c #2A2A2E",
"E&	c #2F3032",
"F&	c #3C3C42",
"G&	c #565A67",
"H&	c #AAADC3",
"I&	c #9FA2B6",
"J&	c #ACAFC5",
"K&	c #999CAE",
"L&	c #191919",
"M&	c #6A6D7B",
"N&	c #B2B6CD",
"O&	c #B7BAD2",
"P&	c #474953",
"Q&	c #39393F",
"R&	c #505153",
"S&	c #333333",
"T&	c #3A3B3C",
"U&	c #42434C",
"V&	c #393B44",
"W&	c #A7AAC0",
"X&	c #989BAF",
"Y&	c #9599B1",
"Z&	c #ADB1C9",
"`&	c #060707",
" *	c #2A2A2C",
".*	c #44454B",
"+*	c #474754",
"@*	c #BEC1D9",
"#*	c #8B8FA1",
"$*	c #2F2F34",
"%*	c #18191B",
"&*	c #212122",
"**	c #535353",
"=*	c #404040",
"-*	c #262629",
";*	c #474851",
">*	c #B2B6D2",
",*	c #ACB0C8",
"'*	c #A9ACC5",
")*	c #A7AAC2",
"!*	c #B0B3CE",
"~*	c #0B0B0B",
"{*	c #1A1A1A",
"]*	c #181919",
"^*	c #201E22",
"/*	c #464647",
"(*	c #141414",
"_*	c #101010",
":*	c #232325",
"                                                                                                ",
"                                                                                                ",
"                                                                                                ",
"                                                          . +                                   ",
"                                                          @ # $ %                               ",
"                              & * = - ; > , ' ) ! ~ { ]   ^ / ( _ :                             ",
"                      < [ } | 1 2 3 4 5 6 7 8 9 9 0 a b ) c d e f g h i                         ",
"                    j k l m a n o p q r s t u v w x y z A B o C C D E F G                       ",
"                  H I J K y L M N O P Q R Q S Q T T U V W X Y Z `  ...+.                        ",
"                  @.#.$.%.&.Q *.=.-.;.>.,.'.).!.' ~.{.].^./.(._.:.<.[.                          ",
"                  }.|.1.2.3.4.5.6.                      7.&.8.9.0.                              ",
"                a.b.c.d.e.                              f.g.h.                                  ",
"                + i.j.                                  k.l.                                    ",
"                                                                                                ",
"                                                                                                ",
"                                                                                                ",
"                                                                                                ",
"                              m.n.o.p.q.          r.s.t.u.v.w.                                  ",
"                            x.y.z.A.B.C.        D.E.F.G.H.I.J.      K.L.M.                      ",
"              N.O.P.Q.      R.S.T.U.V.W.X.      Y.Z.`. +.+++@+    #+$+%+&+*+=+-+                ",
"          ;+>+,+'+)+!+~+    {+]+^+U./+(+_+:+<+[+}+|+1+2+3+4+5+6+6+7+8+9+0+a+b+c+.               ",
"        #+d+e+f+g+1+h+i+j+k+l+m+n+o+p+q+r+/+s+t+u+H.v+w+x+y+z+A+B+C+D+.+E+F+G+H+I+              ",
"        J+K+L+M+N+O+w+o+P+Q+R+S+T+U+V+W+X+Y+Z+`+ @.@+@@@W+#@$@%@.+&@U..+S+*@=@-@;@>@[+          ",
"        ,@'@)@!@~@/+{@{@]@^@/@(@_@:@<@[@}@|@1@2@3@4@5@6@7@8@9@0@a@b@.+c@d@e@f@g@[+[+h@[+        ",
"        i@j@k@l@m@b+G.n@o@p@q@r@s@t@u@v@w@x@y@z@A@B@C@D@E@F@G@H@I@J@.+1+|+K@L@L@M@z.N@W+        ",
"      W+O@z.P@Q@R@S@T@U@p@n@V@W@X@Y@Z@`@ #.#+#@###$#%#&#*#=#-#2+w+n@;#n@>#,#'#)#!#~#{#v.        ",
"    X.]#^#/#(#_#:#<#[#l+}#c@;#/+G.|#1#2#3#K@4#5#6#7#0+8#N@8#9#`./+2+]@w+0#a#b#c#d#e#f#[+        ",
"      K.g#h#i#j#k#&@o.l#m#U.n#^@o#p#q#r#s#t#O+u#v#w#x#y#z#A#B#C#^@D+d@`.o#d#D#E#F#[+G#[+        ",
"    X.K.H#I#J#K#L#M#`@_#F.g+N#O#P#Q#y#R#r.S#T#v#U#V#W#r#X#T.Y#p#Z#n+`# $.$+$@$#$$$[+%$[+        ",
"      K.&$*$=$-$;$7#>$,$'$)$!$~${$]$^$A./$($_$:$<$[$}$|$1$v+2$3$4$5$6$7$8$9$0$a$b$[+c$[+        ",
"    X.K.d$*$e$f$g$h$i$:$j$k$*@l$m$n$w#D+o$>$p$q$r$s$t$u$v$w$x$y$z$A$B$C$D$E$F$G$H$[+I$[+        ",
"      K.d$*$e$J$K$)@L$M$N$O$P$Q$R$;$S$.+T$U$V$W$X$Y$Z$`$ %.%E++%@%#%}@$%%%&%*%=%H$[+-%[+        ",
"    X.;%d$>%,%-$;$7#$+'%)%!%~%{%]%^%/%.+(%_%:%<%[%}%|%1%2%3%4%5%6%7%8%9%0%a%b%c%H$[+y.[+        ",
"      ;%d%e$e%f%;$8#$+g%;$<%h%i%j%k%S$1+l%m%[@N$n%N$o% #p%2+4%q%r%#%8%9%s%a%t%u%H$[+v%[+        ",
"    X.w%x%y%z%A%<%B%$+g%9%C%6$D%E%;$F%1+G%u$H%I%J%K%L%M%N%c@O%+%6%P%8%Q%s%R%S%p+T%[+U%[+        ",
"      V%W%X%Y%Z%`% &.&+&@&#&$&%&&&*&=&-&y#;&>&I%,&'&)&!&~&{&]&+%^&/&(&_&s%;$:&<&[&!#P.}&        ",
"    X.  |&G W+1&*+  L.2&3&4&5&6&7&8&9&V.4%P%H%I%0&9#a&&#b&)@c&d&e&f&4&g&h&i&q.j&k&G l&          ",
"      X.  X.  m&  n&o&p&E$#&q&r&s&t&u&v&w&x&H%y&z&A&B&@+C&D&E&F&G&;&H&I&J&K&-+X.  X.  X.        ",
"    X.  X.  X.  X.  L&M&N&O&P&Q&R&  S&T&U&V&W&X&0&Y&Z&`& *  X.  .*+*@*#*$*%*=+  X.  X.          ",
"      X.  X.  X.  X.  Y.K.&*:&**  X.  =*-*;*>*,*'*)*!*~*  X.  X.  {*]*^*  /*  X.  X.  X.        ",
"        X.  X.      X.  X.  X.  X.  X.  L$x.L&(*_*+ :*.&X.  X.  X.  X.  X.  X.  X.  X.          ",
"                      X.  X.  X.  X.  X.  -+  X.  X.  X.  X.  X.  X.  X.  X.                    ",
"                    X.  X.  X.          X.  X.  X.  X.  X.      X.  X.  X.  X.                  ",
"                      X.  X.              X.  X.  X.  X.          X.  X.                        ",
"                                            X.  X.  X.                                          ",
"                                                                                                ",
"                                                                                                ",
"                                                                                                "};
