/* XPM */
static char * save_xpm[] = {
"48 48 428 2",
"  	c None",
". 	c #999999",
"+ 	c #868686",
"@ 	c #515151",
"# 	c #585A5A",
"$ 	c #373C3D",
"% 	c #252E2F",
"& 	c #3A4C4E",
"* 	c #666D6D",
"= 	c #8F8F8F",
"- 	c #585858",
"; 	c #313131",
"> 	c #1F1F1F",
", 	c #2B2B2B",
"' 	c #696969",
") 	c #A2A29B",
"! 	c #658587",
"~ 	c #60878B",
"{ 	c #60888B",
"] 	c #475455",
"^ 	c #979797",
"/ 	c #7F7F7F",
"( 	c #595959",
"_ 	c #404040",
": 	c #4B4B4B",
"< 	c #686868",
"[ 	c #999993",
"} 	c #C0C0B8",
"| 	c #96A7A4",
"1 	c #3D5658",
"2 	c #7B7F7F",
"3 	c #6D6D6D",
"4 	c #3F4040",
"5 	c #363636",
"6 	c #7B7B7B",
"7 	c #989898",
"8 	c #5F878A",
"9 	c #54797D",
"0 	c #4E585A",
"a 	c #949494",
"b 	c #838383",
"c 	c #5B5D5D",
"d 	c #39393A",
"e 	c #232323",
"f 	c #4A4A4A",
"g 	c #8D8D8D",
"h 	c #C1C1B9",
"i 	c #CACAC4",
"j 	c #E2E2DE",
"k 	c #EAEAE8",
"l 	c #F4F4F3",
"m 	c #A6BCBE",
"n 	c #5D858A",
"o 	c #5E8589",
"p 	c #36494C",
"q 	c #757979",
"r 	c #3C4243",
"s 	c #2F3939",
"t 	c #494A4A",
"u 	c #636363",
"v 	c #9F9F9F",
"w 	c #CECEC7",
"x 	c #D9D9D4",
"y 	c #E9E9E7",
"z 	c #FAFAF9",
"A 	c #FFFFFF",
"B 	c #EDF1F2",
"C 	c #5C8489",
"D 	c #436165",
"E 	c #63696A",
"F 	c #535454",
"G 	c #636C6D",
"H 	c #698587",
"I 	c #688E91",
"J 	c #8DA5A5",
"K 	c #C0C0B9",
"L 	c #C6C6BF",
"M 	c #DFDFDA",
"N 	c #FBFBFA",
"O 	c #F6F6F5",
"P 	c #E7E7E4",
"Q 	c #EEEEEC",
"R 	c #92ADB0",
"S 	c #577D82",
"T 	c #334144",
"U 	c #5C6061",
"V 	c #C6D3D7",
"W 	c #9BB2B6",
"X 	c #688C8F",
"Y 	c #688D8F",
"Z 	c #BABEB8",
"` 	c #C5C5BE",
" .	c #EFEFED",
"..	c #FCFCFC",
"+.	c #DBE3E5",
"@.	c #5B8388",
"#.	c #5B8288",
"$.	c #2D4143",
"%.	c #909495",
"&.	c #555758",
"*.	c #C2CFD3",
"=.	c #C3CFD4",
"-.	c #709597",
";.	c #678E90",
">.	c #93A8A7",
",.	c #D3D3CE",
"'.	c #F2F2F0",
").	c #7F9DA2",
"!.	c #5A8287",
"~.	c #405D61",
"{.	c #4E5C5E",
"].	c #5C5C5C",
"^.	c #9CA5A8",
"/.	c #C2CED3",
"(.	c #8EAAAD",
"_.	c #668B8F",
":.	c #76999B",
"<.	c #C8D5D7",
"[.	c #5A8187",
"}.	c #587F85",
"|.	c #243133",
"1.	c #888888",
"2.	c #4D5051",
"3.	c #C1CDD2",
"4.	c #B4C5C9",
"5.	c #668D8F",
"6.	c #658A8E",
"7.	c #BACBCC",
"8.	c #6C8F94",
"9.	c #598086",
"0.	c #354C4F",
"a.	c #5A6669",
"b.	c #434444",
"c.	c #A2ACB1",
"d.	c #BDCBD0",
"e.	c #77989C",
"f.	c #658B8E",
"g.	c #74979A",
"h.	c #FBFBFB",
"i.	c #B5C6C9",
"j.	c #537A80",
"k.	c #2C3A3C",
"l.	c #4C5153",
"m.	c #BCCACF",
"n.	c #A7BABE",
"o.	c #638B8E",
"p.	c #648A8D",
"q.	c #DBE4E5",
"r.	c #578086",
"s.	c #567F85",
"t.	c #3A5559",
"u.	c #5E6465",
"v.	c #444647",
"w.	c #ADBABE",
"x.	c #B9C7CC",
"y.	c #6C9093",
"z.	c #62898D",
"A.	c #85A2A5",
"B.	c #A1B8BB",
"C.	c #51777E",
"D.	c #2D3737",
"E.	c #6B6B6B",
"F.	c #636A6D",
"G.	c #B8C6CB",
"H.	c #8FA8AE",
"I.	c #628A8D",
"J.	c #61888C",
"K.	c #EDF1F1",
"L.	c #557D84",
"M.	c #557E84",
"N.	c #3A565B",
"O.	c #666969",
"P.	c #3E4142",
"Q.	c #B0BEC4",
"R.	c #ACBEC2",
"S.	c #61898C",
"T.	c #ECF1F1",
"U.	c #51787F",
"V.	c #2C3334",
"W.	c #5B5C5D",
"X.	c #7F898D",
"Y.	c #B3C3C8",
"Z.	c #83A1A6",
"`.	c #C7D4D6",
" +	c #698D93",
".+	c #547C83",
"++	c #547D83",
"@+	c #384D51",
"#+	c #757575",
"$+	c #3A3D3E",
"%+	c #B0C1C7",
"&+	c #9EB2B8",
"*+	c #B7C8CA",
"=+	c #537B82",
"-+	c #4C7178",
";+	c #343738",
">+	c #414243",
",+	c #9CABB1",
"'+	c #AEC0C5",
")+	c #709297",
"!+	c #5F858A",
"~+	c #709496",
"{+	c #DAE3E4",
"]+	c #7F9397",
"^+	c #A7ACAE",
"/+	c #4D696D",
"(+	c #517A82",
"_+	c #344547",
":+	c #677072",
"<+	c #ABBEC4",
"[+	c #8CA4A9",
"}+	c #C8D6D7",
"|+	c #91ABAF",
"1+	c #6F8C91",
"2+	c #A6B1B3",
"3+	c #C0C0C3",
"4+	c #C9C9CC",
"5+	c #D0CECE",
"6+	c #566265",
"7+	c #4E737A",
"8+	c #527A81",
"9+	c #42646B",
"0+	c #4E5051",
"a+	c #383A3C",
"b+	c #A6B5BC",
"c+	c #A8BBC1",
"d+	c #7F9FA2",
"e+	c #B6C8CA",
"f+	c #63868B",
"g+	c #93A7AA",
"h+	c #D6D9DA",
"i+	c #E0E0E0",
"j+	c #B5B5B6",
"k+	c #C7C7CB",
"l+	c #CDCBCD",
"m+	c #D0CDCD",
"n+	c #918F8F",
"o+	c #476B72",
"p+	c #507981",
"q+	c #4E757E",
"r+	c #333D3F",
"s+	c #5F5F5F",
"t+	c #737E82",
"u+	c #A7BAC0",
"v+	c #7D9AA0",
"w+	c #81999C",
"x+	c #C7CECF",
"y+	c #EEEEEE",
"z+	c #EDEDED",
"A+	c #E5E5E5",
"B+	c #D6D6D6",
"C+	c #C1C1C4",
"D+	c #CAC9CC",
"E+	c #D1CECE",
"F+	c #CDCBCB",
"G+	c #C8C7C7",
"H+	c #485A5D",
"I+	c #4D757D",
"J+	c #4F7780",
"K+	c #4F7880",
"L+	c #374E52",
"M+	c #818181",
"N+	c #929292",
"O+	c #353839",
"P+	c #A4B6BC",
"Q+	c #9FB3B8",
"R+	c #708B8F",
"S+	c #A0AFB0",
"T+	c #D5D9D9",
"U+	c #ECECEB",
"V+	c #B6BABB",
"W+	c #455659",
"X+	c #456569",
"Y+	c #D0D4D5",
"Z+	c #B7B7B9",
"`+	c #CECCCD",
" @	c #CFCDCD",
".@	c #CBC9C9",
"+@	c #C6C5C5",
"@@	c #646C6D",
"#@	c #43666C",
"$@	c #4F7980",
"%@	c #456971",
"&@	c #424D4E",
"*@	c #4C4D4D",
"=@	c #819095",
"-@	c #A2B6BD",
";@	c #6A8E93",
">@	c #BFC5C4",
",@	c #EBEBEA",
"'@	c #AFAFAF",
")@	c #3C595E",
"!@	c #496C71",
"~@	c #9BADB0",
"{@	c #C2C2C5",
"]@	c #BEBEBF",
"^@	c #B4B6B3",
"/@	c #415E63",
"(@	c #4E767F",
"_@	c #4B747B",
":@	c #28383A",
"<@	c #383F41",
"[@	c #A1B5BC",
"}@	c #8FA4AA",
"|@	c #7F979A",
"1@	c #EAE9E8",
"2@	c #ECECEC",
"3@	c #E7E7E7",
"4@	c #324648",
"5@	c #537B81",
"6@	c #6B8A8F",
"7@	c #CFCCCD",
"8@	c #CAC8C9",
"9@	c #C6C4C5",
"0@	c #B9BABA",
"a@	c #BABDB9",
"b@	c #4E5E5F",
"c@	c #42646C",
"d@	c #324D51",
"e@	c #1E292B",
"f@	c #676E6F",
"g@	c #424444",
"h@	c #91A3AA",
"i@	c #9EB2B9",
"j@	c #61878C",
"k@	c #D6DAD9",
"l@	c #EFEEEE",
"m@	c #61696B",
"n@	c #496C73",
"o@	c #BEC1C4",
"p@	c #CDCACA",
"q@	c #C8C6C7",
"r@	c #BDBDBE",
"s@	c #BABCB9",
"t@	c #BBBFB8",
"u@	c #7C8580",
"v@	c #1D2B2D",
"w@	c #303D3F",
"x@	c #3B3B3B",
"y@	c #3D3D3D",
"z@	c #2C2C2C",
"A@	c #5D686C",
"B@	c #9DB1B8",
"C@	c #849EA3",
"D@	c #90A3A6",
"E@	c #9A9A9A",
"F@	c #405E64",
"G@	c #97A7AC",
"H@	c #CFCCCC",
"I@	c #CAC8C8",
"J@	c #C5C4C5",
"K@	c #9CA5A2",
"L@	c #414E4E",
"M@	c #323F42",
"N@	c #282C2D",
"O@	c #9AAFB7",
"P@	c #8FA4AC",
"Q@	c #DADDDE",
"R@	c #E3E3E3",
"S@	c #3A4F53",
"T@	c #4C7077",
"U@	c #6F8D92",
"V@	c #CCCACA",
"W@	c #C8C6C6",
"X@	c #A0A6A8",
"Y@	c #3F4B4C",
"Z@	c #48575A",
"`@	c #3E4343",
" #	c #3E3E3E",
".#	c #4B4C4D",
"+#	c #7A8B91",
"@#	c #98ADB5",
"##	c #718F95",
"$#	c #A1AFB2",
"%#	c #E8E8E8",
"&#	c #DCDCDC",
"*#	c #98A0A3",
"=#	c #44666D",
"-#	c #8A9FA4",
";#	c #B3BABB",
">#	c #ABB0B1",
",#	c #424C4F",
"'#	c #3B4B4E",
")#	c #3B3F40",
"!#	c #3E4345",
"~#	c #95ABB4",
"{#	c #8EA3AB",
"]#	c #618389",
"^#	c #CCCCCC",
"/#	c #C4C4C8",
"(#	c #CCCACD",
"_#	c #AFB3B4",
":#	c #424B4D",
"<#	c #384B4E",
"[#	c #3D4547",
"}#	c #1E2021",
"|#	c #8498A0",
"1#	c #92A9B1",
"2#	c #839FA6",
"3#	c #6E9097",
"4#	c #5A8087",
"5#	c #96A4A6",
"6#	c #BDBDC0",
"7#	c #AAB0B4",
"8#	c #485557",
"9#	c #314649",
"0#	c #3D494B",
"a#	c #2D3031",
"b#	c #4D5456",
"c#	c #5E6E73",
"d#	c #7E939B",
"e#	c #8BA3AC",
"f#	c #7C98A1",
"g#	c #6A8B93",
"h#	c #547479",
"i#	c #465154",
"j#	c #2B3D40",
"k#	c #3E4D51",
"l#	c #33393B",
"m#	c #303739",
"n#	c #556368",
"o#	c #40494D",
"p#	c #1F2527",
"q#	c #38474A",
"r#	c #404546",
"s#	c #767777",
"t#	c #2F3030",
"u#	c #9A9B9B",
"                                                                                                ",
"                                                                                                ",
"                                                                                                ",
"                                                                                                ",
"                                                                                                ",
"                                                                                                ",
"                                                                                                ",
"                                                                                                ",
"                                                  . + @ # $ % & *                               ",
"                                            = - ; > , ' ) ! ~ { ]                               ",
"                                    ^ / ( _ : < + [ } } } | { { 1 2                             ",
"                              = 3 4 5 : 6 7 } } } } } } } } { 8 9 0                             ",
"                      a b c d e f g } } } } } } } h i j k l m n o p a                           ",
"                  q r s t u v } } } } } } } w x y z A A A A B o C D E                           ",
"                F G H I J } } } } } K L M N A A A A A O P Q O R C S T                           ",
"                U V W X Y Z } } ` x  .A A A A A A P P P Q A ..+.@.#.$.%.                        ",
"                &.*.=.-.;.>.,.'.A A A A A A P P P P A A A A A A ).!.~.{.                        ",
"                ].^./.(._.:.A A A A A O P P P A A A A A A P P O <.[.}.|..                       ",
"                1.2.3.4.5.6.7.A A Q P P O A A A A A O P P Q A A A 8.9.0.a.                      ",
"                  b.c.d.e.f.g.A A P O A A A A A O P P Q A A A A h.i.9.j.k.^                     ",
"                  + l.m.n.o.p.q.A h.A A A A P P P Q A A A A A A A A r.s.t.u.                    ",
"                    v.w.x.y.z.A.A h.A O P P P A A A A A A A A A A A B.s.C.D.^                   ",
"                    E.F.G.H.I.J.K.A O Q Q A A A A A A A A A A A A A B.L.M.N.O.                  ",
"                    . P.Q.R.J.S.m A h.A A A A A A A A A A A A T.B.s.L.M.M.U.V..                 ",
"                      W.X.Y.Z.~ { T...A A A A A A A A A A `. +s.s.L.M.M..+++@+#+                ",
"                      g $+%+&+{ { *+A A A A A A A A T.i.9.r.s.s.L.M.M..+++=+-+;+                ",
"                        >+,+'+)+!+~+A A A A A A {+[.9.9.r.s.s.L.M.]+^+/+=+=+(+_+b               ",
"                        3 :+<+[+8 o }+A A A |+[.[.9.9.r.s.s.1+2+3+4+5+6+7+(+8+9+0+              ",
"                        ^ a+b+c+_.C d+e+@.!.[.[.9.9.r.f+g+h+i+j+k+l+m+n+o+8+p+q+r+              ",
"                          s+t+u+v+C @.@.!.[.[.9.9.w+x+y+z+A+B+C+D+E+F+G+H+I+J+K+L+M+            ",
"                          N+O+P+Q+@.@.!.[.[.R+S+T+U+V+W+X+Y+Z+k+`+ @.@+@@@#@K+$@%@&@            ",
"                            *@=@-@;@!.[.[.9.>@y ,@'@)@!@++~@{@D+E+F+G+]@^@/@$@(@_@:@a           ",
"                            1.<@[@}@[.[.9.9.|@1@2@3@4@5@5@6@k+`+7@8@9@0@a@b@c@d@e@f@            ",
"                              g@h@i@j@9.9.r.s.k@z+l@m@n@5@=+o@E+p@q@r@s@t@u@v@w@x@              ",
"                      y@  y@  z@A@B@C@9.r.s.s.D@y+y+E@F@U.=+G@H@I@J@0@K@L@M@  y@  y@            ",
"                    y@  y@  y@a N@O@P@r.}.s.L.M.Q@2@R@S@T@(+U@V@W@X@Y@Z@`@   #  y@              ",
"                      y@  y@  y@.#+#@###s.L.M.M.$#%#&#*#=#-#;#>#,#'#)# #   #  y@                ",
"                        y@  y@  5 !#~#{#L.M.M..+]#R@^#/#(#_#:#<#[#   #  y@                      ",
"                          y@  y@  }#|#1#2#3#4#.+=+5#6#7#8#9#0# #   #  y@                        ",
"                            y@  y@g a#b#c#d#e#f#g#h#i#j#k#   #  y@                              ",
"                              y@  y@  x@#+l#m#n#o#p#q#r#   #  y@                                ",
"                                y@  y@  y@  x@s#t#. y@  y@                                      ",
"                                  y@  y@  y@u#y@  y@  y@                                        ",
"                                    y@  y@  y@  y@                                              ",
"                                                                                                ",
"                                                                                                ",
"                                                                                                ",
"                                                                                                "};
