/* XPM */
static char * script_xpm[] = {
"48 48 295 2",
"  	c None",
". 	c #000000",
"+ 	c #232323",
"@ 	c #1F1F1F",
"# 	c #DADADA",
"$ 	c #FFFFFF",
"% 	c #F6F6F6",
"& 	c #CFCFCF",
"* 	c #707070",
"= 	c #C1C1C1",
"- 	c #FEFEFE",
"; 	c #FBFBFB",
"> 	c #EDEDED",
", 	c #C0C0C0",
"' 	c #F7F7F7",
") 	c #D7D7D7",
"! 	c #F1F1F1",
"~ 	c #B7B7B7",
"{ 	c #E5E5E5",
"] 	c #D8D8D8",
"^ 	c #C3C3C3",
"/ 	c #D1D1D1",
"( 	c #BBBBBB",
"_ 	c #BABABA",
": 	c #E4E4E4",
"< 	c #D2D2D2",
"[ 	c #AEAEAE",
"} 	c #070707",
"| 	c #B1B1B1",
"1 	c #E3E3E3",
"2 	c #FCFCFC",
"3 	c #CDCDCD",
"4 	c #BFBFBF",
"5 	c #CCCCCC",
"6 	c #A7A7A7",
"7 	c #B8B8B8",
"8 	c #C6C6C6",
"9 	c #CBCBCB",
"0 	c #EAEAEA",
"a 	c #C2C2C2",
"b 	c #FDFDFD",
"c 	c #DCDCDC",
"d 	c #A4A4A3",
"e 	c #0E0E0E",
"f 	c #B4B4B4",
"g 	c #AFAFAF",
"h 	c #BEBEBE",
"i 	c #B6B6B6",
"j 	c #F5F5F4",
"k 	c #B5B5B5",
"l 	c #F9F9F9",
"m 	c #A5A5A5",
"n 	c #FDFDFC",
"o 	c #F4F4F4",
"p 	c #ACACAC",
"q 	c #ECECEC",
"r 	c #C9C9C8",
"s 	c #A8A8A8",
"t 	c #A0A0A0",
"u 	c #5D5D5D",
"v 	c #565656",
"w 	c #B9B9B9",
"x 	c #FCFCFB",
"y 	c #F4F4F3",
"z 	c #ABABAB",
"A 	c #515151",
"B 	c #474747",
"C 	c #464645",
"D 	c #464646",
"E 	c #5D5D5C",
"F 	c #A9A9A9",
"G 	c #B0B0B0",
"H 	c #E2E2E2",
"I 	c #171717",
"J 	c #979797",
"K 	c #BCBCBC",
"L 	c #A3A3A3",
"M 	c #DFDFDF",
"N 	c #3D3D3D",
"O 	c #3A3A3A",
"P 	c #FAFAFA",
"Q 	c #F2F2F2",
"R 	c #F3F3F3",
"S 	c #AAAAAA",
"T 	c #A0A09F",
"U 	c #8A8A8A",
"V 	c #6C6C6C",
"W 	c #454545",
"X 	c #A6A6A6",
"Y 	c #696969",
"Z 	c #656565",
"` 	c #B3B3B3",
" .	c #A4A4A4",
"..	c #363636",
"+.	c #2A2A2A",
"@.	c #D5D5D4",
"#.	c #FAFAF9",
"$.	c #E7E7E7",
"%.	c #C6C6C5",
"&.	c #BABAB9",
"*.	c #7A7A7A",
"=.	c #151515",
"-.	c #383838",
";.	c #F8F8F8",
">.	c #C4C4C4",
",.	c #131313",
"'.	c #575757",
").	c #F8F8F7",
"!.	c #F7F7F6",
"~.	c #F6F6F5",
"{.	c #F5F5F5",
"].	c #EBEBEB",
"^.	c #1D1D1D",
"/.	c #9E9E9E",
"(.	c #535353",
"_.	c #F9F9F8",
":.	c #E1E1E0",
"<.	c #737373",
"[.	c #0D0D0D",
"}.	c #212121",
"|.	c #999999",
"1.	c #CACACA",
"2.	c #FBFBFA",
"3.	c #262626",
"4.	c #EEEEED",
"5.	c #F3F3F2",
"6.	c #191919",
"7.	c #0F0F0F",
"8.	c #60605F",
"9.	c #E7E7E6",
"0.	c #141414",
"a.	c #8E8E8E",
"b.	c #B7B7B6",
"c.	c #BFBFBE",
"d.	c #989897",
"e.	c #323232",
"f.	c #343433",
"g.	c #F2F2F1",
"h.	c #B6B6B5",
"i.	c #5B5B5B",
"j.	c #111111",
"k.	c #929292",
"l.	c #C3C3C2",
"m.	c #DEDEDE",
"n.	c #B5B5B4",
"o.	c #D6D6D6",
"p.	c #F2F2F0",
"q.	c #F1F1F0",
"r.	c #F0F0F0",
"s.	c #BEBEBD",
"t.	c #C8C8C8",
"u.	c #AFAFAE",
"v.	c #CCCCCB",
"w.	c #AAAAA9",
"x.	c #E1E1E1",
"y.	c #70706F",
"z.	c #F0F0EF",
"A.	c #BDBDBD",
"B.	c #1C1C1C",
"C.	c #AEAEAD",
"D.	c #DEDEDD",
"E.	c #DBDBDA",
"F.	c #7B7B7B",
"G.	c #8E8E8D",
"H.	c #F1F1EF",
"I.	c #EFEFEE",
"J.	c #B4B4B3",
"K.	c #808080",
"L.	c #131312",
"M.	c #121212",
"N.	c #858585",
"O.	c #EEEEEE",
"P.	c #EEEEEC",
"Q.	c #EDEDEC",
"R.	c #DDDDDD",
"S.	c #B1B1B0",
"T.	c #B8B8B7",
"U.	c #BDBDBC",
"V.	c #B2B2B1",
"W.	c #8F8F8F",
"X.	c #C5C5C3",
"Y.	c #B2B2B2",
"Z.	c #9A9A9A",
"`.	c #A2A2A2",
" +	c #A9A9A8",
".+	c #9E9E9D",
"++	c #444443",
"@+	c #101010",
"#+	c #757574",
"$+	c #EDEDEB",
"%+	c #ECECEB",
"&+	c #616161",
"*+	c #CECECE",
"=+	c #DBDBDB",
"-+	c #979796",
";+	c #373737",
">+	c #919190",
",+	c #D4D4D3",
"'+	c #EBEBEA",
")+	c #A1A1A1",
"!+	c #30302F",
"~+	c #ECECEA",
"{+	c #E8E8E7",
"]+	c #5E5E5E",
"^+	c #A6A6A5",
"/+	c #CBCBCA",
"(+	c #D7D7D6",
"_+	c #DCDCDB",
":+	c #EAEAE9",
"<+	c #E9E9E8",
"[+	c #B0B0AF",
"}+	c #404040",
"|+	c #ADADAD",
"1+	c #9C9C9C",
"2+	c #9B9B9A",
"3+	c #D5D5D3",
"4+	c #6E6E6D",
"5+	c #161616",
"6+	c #EBEBE9",
"7+	c #E9E9E7",
"8+	c #E5E5E4",
"9+	c #222222",
"0+	c #A8A8A7",
"a+	c #B3B3B2",
"b+	c #B2B2B0",
"c+	c #595958",
"d+	c #D3D3D3",
"e+	c #565655",
"f+	c #424242",
"g+	c #E8E8E6",
"h+	c #D8D8D7",
"i+	c #ABABAA",
"j+	c #C8C8C7",
"k+	c #272727",
"l+	c #D3D3D1",
"m+	c #A8A8A6",
"n+	c #D0D0CF",
"o+	c #E6E6E4",
"p+	c #A7A7A6",
"q+	c #787877",
"r+	c #AAAAA8",
"s+	c #333333",
"t+	c #2F2F2F",
"u+	c #878787",
"v+	c #B7B7B5",
"w+	c #949493",
"x+	c #969695",
"y+	c #AEAEAC",
"z+	c #ACACAB",
"A+	c #B3B3B1",
"B+	c #959595",
"C+	c #3E3E3E",
"D+	c #C7C7C6",
"E+	c #D3D3D2",
"F+	c #BCBCBB",
"G+	c #B9B9B8",
"H+	c #3B3B3B",
"I+	c #D6D6D5",
"J+	c #C5C5C4",
"K+	c #9A9A99",
"L+	c #CFCFCE",
"M+	c #E7E7E5",
"N+	c #ADADAC",
"O+	c #EFEFED",
"P+	c #E5E5E3",
"Q+	c #A3A3A2",
"R+	c #C7C7C5",
"S+	c #D2D2D1",
"T+	c #ADADAB",
"U+	c #BBBBBA",
"V+	c #BBBBB9",
"W+	c #9C9C9B",
"X+	c #D7D7D5",
"Y+	c #C0C0BE",
"Z+	c #A4A4A2",
"`+	c #EAEAE8",
" @	c #D2D2D0",
".@	c #A2A2A1",
"+@	c #CECECC",
"@@	c #A7A7A5",
"#@	c #909090",
"$@	c #D0D0CE",
"%@	c #B4B4B2",
"&@	c #CFCFCD",
"*@	c #BDBDBB",
"=@	c #A5A5A4",
"-@	c #CECECD",
";@	c #E6E6E5",
">@	c #E4E4E3",
",@	c #E4E4E2",
"'@	c #E3E3E1",
")@	c #E3E3E2",
"!@	c #E2E2E0",
"~@	c #E1E1DF",
"{@	c #8C8C8C",
"  . . . . . . . . . . . . . . . . . . . . . . . . . . . . . . . . . . + @                       ",
". # $ $ $ $ $ $ $ $ $ $ $ $ $ $ $ $ $ $ $ $ $ $ $ $ $ $ $ $ $ $ $ $ $ % & * .                   ",
". $ $ = $ $ $ $ $ $ $ $ $ $ $ $ $ $ $ $ $ $ $ - - - - - - - - - - - - ; % > , .                 ",
". $ $ = $ $ $ $ $ $ $ $ $ $ $ $ $ $ $ $ $ - - - - - - - - - - - - - - ' ) $ ! ~ .               ",
". $ $ $ $ $ { ~ $ { $ ] $ $ ^ / ( $ $ ) - _ : - - - - - - - - - - - - ' < $ $ > [ }             ",
". $ $ = $ $ | 1 2 3 3 4 5 $ 6 $ 7 = 8 9 - 0 a - - - - - - - - - - b b % 7 $ b $ c d e           ",
". $ $ = $ $ { ~ $ / $ { $ f g - - h - / - i : - - - - - - b b b b b b j k $ l 2 $ 9 m .         ",
". $ $ $ $ $ $ $ $ $ $ $ $ - - - - - - - - - - - - - b b b b b n 2 2 2 o p q ^ 9 7 a r s .       ",
". $ $ = $ $ $ $ $ { ~ - _ - - t u - 5 - : - & ( v > w 1 n 2 2 2 2 2 x y z A B C D D E F .       ",
". $ $ = $ $ $ $ $ G H ; | - * I J ) f b K G L M N O < , 2 2 2 x ; ; P Q R , S T U V V W .       ",
". $ $ $ $ $ $ - - : i ) X Y e Z ` b g b 1 F f 2  ...+.@.; ; ; ; P #.#.l ; ' ' $.%.r &.*..       ",
". $ $ = $ - - - - - - b w =.-.;.b n 2 2 2 2 2 2 x >.,.'.; ; #.l l l l ' ).!.~.{.{.w $ F .       ",
". $ $ , $ - - - b 1 k ].^.,./.2 F 2 7 H x ; ; ; ; ; (.,./.l l l _.!.!.% ' {.{.j j ~ $ | .       ",
". $ - $ b b b b b g :.<.[.}.|.1. .x $.4 ; ; ; 2.P P [ ,.3.4._.% % % % j j j o y R $ 5.k .       ",
". $ b 4 $ b b 2 2 H m 6.7.8.m ; ^ ; f :.2.P P P l _.9.0.,.a.% % ~.j o o o y 5.5.5.b.$ k .       ",
". $ b c.$ 2 2 2 2 2 d.,.,. .; 2.2.P P P P P _._.;.;.;.e.,.f.~.j o o y y 5.5.Q Q g.h.$ k .       ",
". $ 2 $ 2 2 x ; ; ; i.,.j.k.P 5 P 3 #.l._.m.;.9 ;.n.c '.,.,.o.y y y 5.Q Q g.p.q.q.$ r.k .       ",
". $ x s.$ ; ; ; 2.2.e.,.[.9 ' t.5 5 ;.| 9 u.v.w.{.x.( y.,.,.w.R 5.g.g.g.g.p.r.r.z.f $ k .       ",
". $ ; A.$ 2.2.P P P B.,.j.C.l < ;.k ).D.| [ {.>.j g E.F.,.,.G.g.g.g.! q.H.z.z.I.4.J.$ k .       ",
". $ 2.$ P P P P #.#.=.,.,.;.).).' ' ' % j j j o y R 5.K.L.M.N.! ! q.H.z.z.O.O.4.P.$ Q.k .       ",
". $ P A.$ #.l l l l ^.,.,.Q ' R.S.~.T.j o >.o C.U.V.5.i.M.7.W.q.X.z.g @.4.4.P.Q.Q.Y.$ k .       ",
". $ #.K $ l l _._.;...,.,.9.!.S # ! Z.`.u. +5.6 8 .+/.++@+[.#+` u.4.E.h.P.Q.$+$+%+V.$ k .       ",
". $ l $ _._.;.;.' !.&+,.,.*+{.=+u.y /.-+Q | g.n.p.J.9 ;+M.7.>+@./.> w.,+$+$+%+%+'+$ '+k .       ",
". $ ;.( $ ;.!.!.!.% )+,.,.u.y y R 5.Q g.g.g.p.q.r.z.z.!+M.+.q Q.Q.Q.$+$+%+~+'+'+'+S.$ k .       ",
". $ )._ $ !.% % % j {+^.j.]+R h.g.g.^+] q.H., z./+(+_+M.[.Y Q.Q.$+%+~+~+'+'+'+:+<+[+$ k .       ",
". $ % $ % ~.~.j j R R *.[.}+g.s f |+1+T 2+z.`.` X 3+4+7.5+L %+%+~+~+'+'+6+<+<+<+7+$ 7+k .       ",
". $ ~.&.$ j o o 5.5.5.8+9+[.r J.w.H.0+1.m a+&.P.b+Q...7.c+d+~+~+'+6+6+<+<+<+<+7+{+u.$ k .       ",
". $ {.7 $ y 5.5.5.Q g.q.g ,.e+q.z.I.I.I.I.P.Q.$+%+ .M.f+^ '+'+6+6+<+<+<+{+{+{+{+g+u.$ k .       ",
". $ y $ 5.Q Q g.g.h+p q.` N.M..+i+I.w Q.j+$+$+%+T k+3.(+K l+6+/.m+7+{+w.n+{+g+9.9.$ o+k .       ",
". $ Q b.$ g.g.q.q.X @.z.p+i+'.6.q+|+[+$+r+G U.8+s+t+u+6+v+w+7+w.x+c.g+3+[+9.9.9.o+y+$ k .       ",
". $ g.b.$ q.z.z.z.(+z+I.A+4.S B+C+$+T.~+D+E+F+G+H+I+V.J+X..+7+d K+g+g+m L+M+o+8+8+N+$ k .       ",
". $ ! $ z.z.z.z.I.I.O+4.4.Q.Q.%+%+~+~+'+'+6+:+:+:+<+7+7+{+g+g+g+g+9.M+M+o+o+8+8+P+$ P+k .       ",
". $ z.n.$ I.I.I.O+@.S %+T.%+%+Q+~+'+R+6+i+S+:+<+7+{+{+g+g+g+g+M+M+M+o+o+8+P+P+P+P+T+$ k .       ",
". $ I.f $ I.O+4.P.L S+%+ .%+U+G.l+V+W+:+X+S.{+{+{+g+g+g+9.M+M+M+o+o+P+P+P+P+P+P+P+z+$ k .       ",
". $ I.$ 4.4.P.%+%+d+ +'+z+'+Y+>+S+p+Z+{+^+n+8+8+8+8+8+8+8+8+8+8+8+8+8+8+8+8+8+8+8+$ P+k .       ",
". $ 4.J.$ %+%+~+'+'+'+'+6+6+`+`+`+{+{+g+g+9.8+8+8+8+8+8+8+8+8+8+8+8+8+8+8+8+8+8+8+T+$ k .       ",
". $ $+V.$ '+'+'+'+6+6+:+ @p+`+d g+N+g+ +L+9.8+8+8+8+8+8+8+8+8+8+8+8+8+8+8+8+8+8+8+T+$ k .       ",
". $ ~+$ '+'+6+:+:+:+:+`+.@+@g+@@z+#@L+,+[+M+8+8+8+8+8+8+8+8+8+8+8+8+8+8+8+8+8+8+8+$ P+k .       ",
". $ 6+S.$ :+:+:+:+`+`+g+$@^+g+%@&@T.*@=@-@o+8+8+8+8+8+8+8+8+8+8+8+8+8+8+8+8+8+8+8+T+$ k .       ",
". $ :+S.$ `+`+<+<+{+g+g+g+M+M+M+M+M+o+o+P+P+8+8+8+8+8+8+8+8+8+8+8+8+8+8+8+8+8+8+8+T+$ k .       ",
". $ `+$ <+<+S n+g+r+L+9.M+M+M+M+o+o+P+P+P+P+8+8+8+8+8+8+8+8+8+8+8+8+8+8+8+8+8+8+8+$ P+k .       ",
". $ <+[+$ g+,+[+9.,+[+M+M+;@;@o+P+P+P+P+>@>@8+8+8+8+8+8+8+8+8+8+8+8+8+8+8+8+8+8+8+T+$ k .       ",
". $ 7+[ $ 9.m &@M+=@-@;@;@o+P+P+P+>@>@,@,@,@8+8+8+8+8+8+8+8+8+8+8+8+8+8+8+8+8+8+8+T+$ k .       ",
". $ 9.$ M+M+;@;@;@;@o+o+P+>@>@>@,@,@,@,@,@,@8+8+8+8+8+8+8+8+8+8+P+8+8+8+8+8+8+8+8+$ P+k .       ",
". $ M+C.$ ;@o+o+o+o+>@>@,@,@,@,@,@,@,@,@,@'@8+8+8+8+8+8+8+8+8+8+8+8+8+8+8+8+P+P+8+T+$ 8+.       ",
". # o+$ o+P+,@,@,@,@,@,@,@,@,@,@)@'@'@'@'@'@'@'@'@!@!@!@!@~@~@~@~@~@~@~@~@~@~@~@~@$ ~@Z..       ",
". a k k k k k k k k k k k k k k k k k k k k k k k k k k k k k k k k k k k k k k k k Z.{@.       ",
"  . . . . . . . . . . . . . . . . . . . . . . . . . . . . . . . . . . . . . . . . . . . .       "};
