/* XPM */
static char * tools_menu_xpm[] = {
"48 48 935 2",
"  	c None",
". 	c #505050",
"+ 	c #020202",
"@ 	c #252525",
"# 	c #4E4E4E",
"$ 	c #010101",
"% 	c #040302",
"& 	c #353535",
"* 	c #848586",
"= 	c #646869",
"- 	c #5A6364",
"; 	c #5F6B6E",
"> 	c #495355",
", 	c #5C6466",
"' 	c #5E5E5E",
") 	c #241B15",
"! 	c #8C5D39",
"~ 	c #8C623F",
"{ 	c #525051",
"] 	c #5D6060",
"^ 	c #69777C",
"/ 	c #748B93",
"( 	c #72929B",
"_ 	c #648B92",
": 	c #809498",
"< 	c #767F82",
"[ 	c #646E70",
"} 	c #818586",
"| 	c #6B6B6B",
"1 	c #916D4E",
"2 	c #D99359",
"3 	c #D79258",
"4 	c #856244",
"5 	c #676767",
"6 	c #5A6266",
"7 	c #859FA6",
"8 	c #648890",
"9 	c #527C83",
"0 	c #678A8F",
"a 	c #CFD3D4",
"b 	c #B7B9BD",
"c 	c #8B989C",
"d 	c #6B7779",
"e 	c #5E6667",
"f 	c #6C7070",
"g 	c #666666",
"h 	c #A7764D",
"i 	c #D49056",
"j 	c #D38F56",
"k 	c #8D6042",
"l 	c #262626",
"m 	c #5E5F60",
"n 	c #7A8A90",
"o 	c #7A979F",
"p 	c #567E84",
"q 	c #517B82",
"r 	c #9AAFB2",
"s 	c #E1E0E1",
"t 	c #809093",
"u 	c #577980",
"v 	c #9BABAE",
"w 	c #AAAAAB",
"x 	c #757D7F",
"y 	c #5B6162",
"z 	c #727676",
"A 	c #6F6F6F",
"B 	c #856146",
"C 	c #AB5A45",
"D 	c #B76356",
"E 	c #9C3D57",
"F 	c #873645",
"G 	c #75595E",
"H 	c #5E6264",
"I 	c #8DA2A9",
"J 	c #678B91",
"K 	c #547E84",
"L 	c #5E858A",
"M 	c #D1D7D8",
"N 	c #D3D3D4",
"O 	c #576E73",
"P 	c #4E757C",
"Q 	c #A6B3B6",
"R 	c #D1CECD",
"S 	c #BBBCBC",
"T 	c #727978",
"U 	c #545C5C",
"V 	c #3E3538",
"W 	c #881931",
"X 	c #C04569",
"Y 	c #C85074",
"Z 	c #AE3550",
"` 	c #732B39",
" .	c #6F7A7E",
"..	c #89A3AB",
"+.	c #5B8287",
"@.	c #557D84",
"#.	c #8CA3A6",
"$.	c #EEECEC",
"%.	c #B4BABA",
"&.	c #3B5D62",
"*.	c #66888C",
"=.	c #BABFC2",
"-.	c #D1CDCE",
";.	c #C9C7C8",
">.	c #C2C1C0",
",.	c #718183",
"'.	c #3F6065",
").	c #465A5C",
"!.	c #5F5B5C",
"~.	c #722936",
"{.	c #C24767",
"].	c #D05B81",
"^.	c #C04769",
"/.	c #93293D",
"(.	c #694D52",
"_.	c #91908A",
":.	c #5C5D5B",
"<.	c #96A8AE",
"[.	c #6E9297",
"}.	c #588186",
"|.	c #567E85",
"1.	c #7D9699",
"2.	c #BAC6C7",
"3.	c #B9BEC0",
"4.	c #708487",
"5.	c #96A6A8",
"6.	c #C3C4C6",
"7.	c #CCCBCD",
"8.	c #CECDCD",
"9.	c #AEAFAF",
"0.	c #5C7579",
"a.	c #4E7980",
"b.	c #49686F",
"c.	c #4C3C40",
"d.	c #AB3550",
"e.	c #CF587D",
"f.	c #CA5276",
"g.	c #A52C45",
"h.	c #4C131C",
"i.	c #4F4F3F",
"j.	c #7B8283",
"k.	c #93ABB0",
"l.	c #63898D",
"m.	c #7D9DA1",
"n.	c #78999D",
"o.	c #5F858A",
"p.	c #578085",
"q.	c #799599",
"r.	c #A0B2B5",
"s.	c #BFC9CC",
"t.	c #C8CBCB",
"u.	c #C8C6CA",
"v.	c #CFCBCC",
"w.	c #50737A",
"x.	c #4E7881",
"y.	c #506162",
"z.	c #959491",
"A.	c #595750",
"B.	c #631F29",
"C.	c #BD4261",
"D.	c #C95376",
"E.	c #B13653",
"F.	c #8E262F",
"G.	c #2D2E21",
"H.	c #94A3A8",
"I.	c #7C9CA0",
"J.	c #719498",
"K.	c #D9E3E3",
"L.	c #E4EAEA",
"M.	c #B8C9CA",
"N.	c #8EA9AC",
"O.	c #557D83",
"P.	c #517A81",
"Q.	c #658A8F",
"R.	c #7E999D",
"S.	c #97A6AA",
"T.	c #AEB2B4",
"U.	c #76868A",
"V.	c #4F767E",
"W.	c #486E75",
"X.	c #666D6F",
"Y.	c #807D76",
"Z.	c #726854",
"`.	c #5B4F2E",
" +	c #381A13",
".+	c #A02F42",
"++	c #BE4466",
"@+	c #B23958",
"#+	c #A02436",
"$+	c #39292B",
"%+	c #7E8E93",
"&+	c #678E91",
"*+	c #A2B8BA",
"=+	c #FFFFFF",
"-+	c #FDFEFE",
";+	c #F3F6F6",
">+	c #D4DDDE",
",+	c #A5BABD",
"'+	c #6D9096",
")+	c #547D83",
"!+	c #557E83",
"~+	c #63858B",
"{+	c #597E84",
"]+	c #517980",
"^+	c #435B62",
"/+	c #65625A",
"(+	c #6C6860",
"_+	c #74726C",
":+	c #686151",
"<+	c #695B3D",
"[+	c #826834",
"}+	c #997735",
"|+	c #7B5D28",
"1+	c #752B29",
"2+	c #B13954",
"3+	c #BA4363",
"4+	c #AB2C49",
"5+	c #702F3C",
"6+	c #485B5D",
"7+	c #6F9598",
"8+	c #D8E2E3",
"9+	c #ECF1F1",
"0+	c #B7C9CB",
"a+	c #85A3A7",
"b+	c #577F85",
"c+	c #537E84",
"d+	c #4B6F78",
"e+	c #5A666A",
"f+	c #A18546",
"g+	c #99804A",
"h+	c #6A6559",
"i+	c #5F5C54",
"j+	c #524D42",
"k+	c #75633C",
"l+	c #8B7138",
"m+	c #A17F34",
"n+	c #9B7634",
"o+	c #8E6832",
"p+	c #85652C",
"q+	c #5C321D",
"r+	c #A83A47",
"s+	c #BD4868",
"t+	c #BB4263",
"u+	c #8A263B",
"v+	c #32383B",
"w+	c #95B1B4",
"x+	c #FFFFFE",
"y+	c #F8F7F5",
"z+	c #F4F4F3",
"A+	c #F9F9F8",
"B+	c #FEFEFE",
"C+	c #FBFCFC",
"D+	c #C0CFD1",
"E+	c #62888E",
"F+	c #496469",
"G+	c #827756",
"H+	c #AF8A37",
"I+	c #B58F3B",
"J+	c #807050",
"K+	c #2E2E2F",
"L+	c #8B7342",
"M+	c #9F7F3B",
"N+	c #A98537",
"O+	c #AC8736",
"P+	c #A78335",
"Q+	c #987433",
"R+	c #896431",
"S+	c #886430",
"T+	c #6D4821",
"U+	c #832631",
"V+	c #B63E5C",
"W+	c #C24B6D",
"X+	c #A02E48",
"Y+	c #50383F",
"Z+	c #B3C2C2",
"`+	c #FCFCFB",
" @	c #F7F7F6",
".@	c #F0F0ED",
"+@	c #FBFBFC",
"@@	c #B9CBCD",
"#@	c #50757B",
"$@	c #5D6963",
"%@	c #907B4F",
"&@	c #6B5932",
"*@	c #68552A",
"=@	c #6C5627",
"-@	c #7D6B3F",
";@	c #2C2B2D",
">@	c #4C4B47",
",@	c #373224",
"'@	c #846729",
")@	c #A07F32",
"!@	c #AA8435",
"~@	c #A88435",
"{@	c #9E7A33",
"]@	c #8D6831",
"^@	c #715125",
"/@	c #661D20",
"(@	c #A92F4B",
"_@	c #C14E6F",
":@	c #B53C5A",
"<@	c #6F2B3A",
"[@	c #A8A7A6",
"}@	c #FBFCF9",
"|@	c #F2F2F1",
"1@	c #FAFAFA",
"2@	c #FBFBFA",
"3@	c #FAFAF9",
"4@	c #F5F5F2",
"5@	c #F1F1EE",
"6@	c #F4F4F2",
"7@	c #FEFEFD",
"8@	c #F7FBFC",
"9@	c #7898A1",
"0@	c #43636B",
"a@	c #54564E",
"b@	c #67593B",
"c@	c #685224",
"d@	c #AB8635",
"e@	c #C29A3C",
"f@	c #C1983C",
"g@	c #AE8B43",
"h@	c #4F4A3E",
"i@	c #494640",
"j@	c #4C4639",
"k@	c #7E6B41",
"l@	c #7D642A",
"m@	c #6F5822",
"n@	c #84672D",
"o@	c #9E7D36",
"p@	c #A68236",
"q@	c #967233",
"r@	c #896531",
"s@	c #795A27",
"t@	c #643220",
"u@	c #972C42",
"v@	c #B84463",
"w@	c #BA4361",
"x@	c #892036",
"y@	c #A9898F",
"z@	c #EEEEEC",
"A@	c #F8F8F5",
"B@	c #D2DCDD",
"C@	c #7C6C36",
"D@	c #6A5A2E",
"E@	c #695528",
"F@	c #9E7D31",
"G@	c #C59A3D",
"H@	c #BF963D",
"I@	c #BE953C",
"J@	c #CD9F3F",
"K@	c #DEAF49",
"L@	c #B19453",
"M@	c #4F4839",
"N@	c #42403F",
"O@	c #76643F",
"P@	c #B99341",
"Q@	c #C79C3F",
"R@	c #CC9F3E",
"S@	c #7A5F2A",
"T@	c #715A2A",
"U@	c #745C2B",
"V@	c #947434",
"W@	c #936E31",
"X@	c #8A672F",
"Y@	c #5F4321",
"Z@	c #7A2F3E",
"`@	c #AB334F",
" #	c #BD4869",
".#	c #A72F4C",
"+#	c #96555F",
"@#	c #D5D2D0",
"##	c #F8F9F8",
"$#	c #FCFCFC",
"%#	c #FAFBFC",
"&#	c #ECEAE5",
"*#	c #9E9276",
"=#	c #604D1E",
"-#	c #614D20",
";#	c #785B21",
">#	c #9A7930",
",#	c #C1983B",
"'#	c #C69B3E",
")#	c #C59B3D",
"!#	c #CA9D3F",
"~#	c #D2A541",
"{#	c #DEAE44",
"]#	c #E8B548",
"^#	c #EFBD4C",
"/#	c #A98941",
"(#	c #534C3E",
"_#	c #4D4637",
":#	c #D2A548",
"<#	c #CB9F3F",
"[#	c #C5993D",
"}#	c #C0963B",
"|#	c #BE953A",
"1#	c #BA9339",
"2#	c #A88234",
"3#	c #8E7030",
"4#	c #665224",
"5#	c #675023",
"6#	c #8E6A2F",
"7#	c #745A28",
"8#	c #5F2F2E",
"9#	c #98243B",
"0#	c #BD4B6B",
"a#	c #BB4162",
"b#	c #7F2B3C",
"c#	c #9B918D",
"d#	c #C9CBC3",
"e#	c #DCDCD7",
"f#	c #DCD6C7",
"g#	c #DAD3C4",
"h#	c #B6AE9C",
"i#	c #362B10",
"j#	c #56431B",
"k#	c #93752F",
"l#	c #A88334",
"m#	c #B99139",
"n#	c #BC943C",
"o#	c #C2993C",
"p#	c #CB9F40",
"q#	c #D3A542",
"r#	c #DCAC44",
"s#	c #E4B346",
"t#	c #E7B547",
"u#	c #E8B649",
"v#	c #E5B547",
"w#	c #E0B147",
"x#	c #3E331B",
"y#	c #5D5C58",
"z#	c #846C38",
"A#	c #E9B748",
"B#	c #DDAE44",
"C#	c #DBAB43",
"D#	c #D4A640",
"E#	c #C99E3F",
"F#	c #C1983F",
"G#	c #C4983E",
"H#	c #C3993B",
"I#	c #B99039",
"J#	c #84672A",
"K#	c #423216",
"L#	c #644F1E",
"M#	c #59311E",
"N#	c #8C1A2D",
"O#	c #B63F5C",
"P#	c #C4486B",
"Q#	c #83253C",
"R#	c #706163",
"S#	c #9C9987",
"T#	c #878885",
"U#	c #534930",
"V#	c #3F3115",
"W#	c #5E491F",
"X#	c #96772F",
"Y#	c #B68D38",
"Z#	c #C59B3F",
"`#	c #C69C3F",
" $	c #CA9E40",
".$	c #D2A442",
"+$	c #DAAB44",
"@$	c #E2B246",
"#$	c #E6B549",
"$$	c #E7B648",
"%$	c #E4B347",
"&$	c #DFAF45",
"*$	c #D5A742",
"=$	c #DDAD44",
"-$	c #685222",
";$	c #3F392D",
">$	c #C69A3D",
",$	c #E2B047",
"'$	c #E2B147",
")$	c #E1B145",
"!$	c #DDAD46",
"~$	c #D3A541",
"{$	c #C99C3D",
"]$	c #C1963B",
"^$	c #BF963B",
"/$	c #C69A3B",
"($	c #BC9339",
"_$	c #795F24",
":$	c #2C150E",
"<$	c #791424",
"[$	c #A23144",
"}$	c #BA405E",
"|$	c #8C233A",
"1$	c #65412C",
"2$	c #48402C",
"3$	c #3C3628",
"4$	c #756033",
"5$	c #BD953B",
"6$	c #BB923A",
"7$	c #BF973C",
"8$	c #C49A3E",
"9$	c #D0A441",
"0$	c #DBAA44",
"a$	c #E7B649",
"b$	c #EAB74A",
"c$	c #E5B447",
"d$	c #E1AF46",
"e$	c #DCAB43",
"f$	c #D4A540",
"g$	c #CEA140",
"h$	c #977D47",
"i$	c #312D23",
"j$	c #D2A33F",
"k$	c #D0A13E",
"l$	c #D9A942",
"m$	c #E0AF46",
"n$	c #DDAF46",
"o$	c #D9AB43",
"p$	c #D1A340",
"q$	c #C79C3B",
"r$	c #BD943A",
"s$	c #B88F38",
"t$	c #C0973A",
"u$	c #896B28",
"v$	c #815627",
"w$	c #613320",
"x$	c #802831",
"y$	c #641321",
"z$	c #2C1A13",
"A$	c #080A0E",
"B$	c #AE8836",
"C$	c #BE963A",
"D$	c #C2983D",
"E$	c #C2983E",
"F$	c #D5A642",
"G$	c #EBB748",
"H$	c #E3B246",
"I$	c #DCAD43",
"J$	c #D6A741",
"K$	c #CDA03E",
"L$	c #C4993C",
"M$	c #BC923B",
"N$	c #AF8D46",
"O$	c #3A3A3A",
"P$	c #2C2C29",
"Q$	c #B5903E",
"R$	c #B78F37",
"S$	c #C2983B",
"T$	c #D8A741",
"U$	c #DEAD44",
"V$	c #E1B146",
"W$	c #D6A742",
"X$	c #CDA03F",
"Y$	c #C3973C",
"Z$	c #BB9239",
"`$	c #B68E37",
" %	c #B59037",
".%	c #B79136",
"+%	c #976C30",
"@%	c #2D1711",
"#%	c #0E0E0D",
"$%	c #15191F",
"%%	c #755B22",
"&%	c #705622",
"*%	c #755C23",
"=%	c #A38440",
"-%	c #BE9A47",
";%	c #CC9F43",
">%	c #CCA44A",
",%	c #E5B448",
"'%	c #E9B749",
")%	c #E7B549",
"!%	c #E0B045",
"~%	c #D4A641",
"{%	c #C89E3E",
"]%	c #C2973B",
"^%	c #BF9539",
"/%	c #B9923B",
"(%	c #4E442F",
"_%	c #8D6E2D",
":%	c #B38B35",
"<%	c #C0953A",
"[%	c #DCAD45",
"}%	c #E1B147",
"|%	c #E1B046",
"1%	c #E0B248",
"2%	c #E1AF45",
"3%	c #DEAE45",
"4%	c #D8A942",
"5%	c #D1A441",
"6%	c #C59A3C",
"7%	c #B48D37",
"8%	c #B28C37",
"9%	c #AB8636",
"0%	c #5B4920",
"a%	c #69552B",
"b%	c #9F7A2D",
"c%	c #826425",
"d%	c #705821",
"e%	c #59461B",
"f%	c #9F7C30",
"g%	c #E4B348",
"h%	c #E6B548",
"i%	c #D9AB42",
"j%	c #CB9F3E",
"k%	c #BD9439",
"l%	c #987B36",
"m%	c #463E2E",
"n%	c #615B4E",
"o%	c #8D6F2B",
"p%	c #BE933A",
"q%	c #BC933A",
"r%	c #CB9F3C",
"s%	c #DAAC44",
"t%	c #DEAE46",
"u%	c #E3B247",
"v%	c #DFB045",
"w%	c #DDAD45",
"x%	c #D5A741",
"y%	c #C89D3D",
"z%	c #C0933C",
"A%	c #765C27",
"B%	c #54431B",
"C%	c #A17C2E",
"D%	c #9C782B",
"E%	c #7B5E23",
"F%	c #785D22",
"G%	c #745A22",
"H%	c #3A2F13",
"I%	c #BC943A",
"J%	c #EDBB4B",
"K%	c #E8B648",
"L%	c #E1B045",
"M%	c #D5A841",
"N%	c #C2983C",
"O%	c #C0963A",
"P%	c #98762C",
"Q%	c #3B321F",
"R%	c #434342",
"S%	c #988F7B",
"T%	c #251F14",
"U%	c #413315",
"V%	c #A37F31",
"W%	c #B48D35",
"X%	c #D0A13F",
"Y%	c #DAAB42",
"Z%	c #E0B046",
"`%	c #E3B146",
" &	c #E2AF47",
".&	c #B08C41",
"+&	c #423923",
"@&	c #826628",
"#&	c #9E792D",
"$&	c #A37E2E",
"%&	c #866829",
"&&	c #7B6023",
"*&	c #7A5F24",
"=&	c #765C22",
"-&	c #2C2411",
";&	c #B58E3B",
">&	c #DEAF45",
",&	c #CCA03E",
"'&	c #BC9239",
")&	c #B68F38",
"!&	c #BB9339",
"~&	c #B78E36",
"{&	c #785E26",
"]&	c #4B3B19",
"^&	c #8E7333",
"/&	c #5C4A21",
"(&	c #54421B",
"_&	c #9E7B31",
":&	c #B18934",
"<&	c #BC9338",
"[&	c #CA9D3D",
"}&	c #D7A841",
"|&	c #DFAE45",
"1&	c #E6B447",
"2&	c #726035",
"3&	c #514222",
"4&	c #8D6E2B",
"5&	c #A37E2F",
"6&	c #AD8731",
"7&	c #96752E",
"8&	c #896B29",
"9&	c #826525",
"0&	c #7E6324",
"a&	c #6A5626",
"b&	c #504224",
"c&	c #C3993D",
"d&	c #B78F38",
"e&	c #B99239",
"f&	c #B28C36",
"g&	c #775D26",
"h&	c #624F23",
"i&	c #91702C",
"j&	c #907231",
"k&	c #7A612B",
"l&	c #7B6024",
"m&	c #5B461D",
"n&	c #91712B",
"o&	c #B38C35",
"p&	c #BB9238",
"q&	c #C69A3C",
"r&	c #D3A53F",
"s&	c #D8A842",
"t&	c #DDAC45",
"u&	c #F0BB4B",
"v&	c #382F1F",
"w&	c #81672A",
"x&	c #8E6E2A",
"y&	c #AA8431",
"z&	c #B18933",
"A&	c #A27E32",
"B&	c #94742E",
"C&	c #896B2A",
"D&	c #7F632A",
"E&	c #594824",
"F&	c #876A2C",
"G&	c #C79C3E",
"H&	c #7A5E26",
"I&	c #6E5723",
"J&	c #8B6C2B",
"K&	c #96742D",
"L&	c #8B6F32",
"M&	c #775F28",
"N&	c #98772F",
"O&	c #725823",
"P&	c #473916",
"Q&	c #95732B",
"R&	c #B58C38",
"S&	c #B88E37",
"T&	c #C39A3B",
"U&	c #C69C3D",
"V&	c #CCA03F",
"W&	c #DBAC43",
"X&	c #D8AA46",
"Y&	c #342B17",
"Z&	c #8F6F29",
"`&	c #9A772D",
" *	c #AC8733",
".*	c #AE8833",
"+*	c #A38032",
"@*	c #9C7930",
"#*	c #90712C",
"$*	c #856828",
"%*	c #836527",
"&*	c #675225",
"**	c #614E25",
"=*	c #66501F",
"-*	c #7A6024",
";*	c #94732C",
">*	c #93732D",
",*	c #94742D",
"'*	c #8D7237",
")*	c #342A15",
"!*	c #8A6B2A",
"~*	c #9B792F",
"{*	c #604B1E",
"]*	c #59441A",
"^*	c #A88132",
"/*	c #AB8534",
"(*	c #B99036",
"_*	c #C19639",
":*	c #D2A440",
"<*	c #9B7E3E",
"[*	c #463618",
"}*	c #A48031",
"|*	c #AE8733",
"1*	c #AF8833",
"2*	c #A48133",
"3*	c #A37F32",
"4*	c #9C7A30",
"5*	c #8F6F2B",
"6*	c #866727",
"7*	c #735B26",
"8*	c #53472C",
"9*	c #816C3E",
"0*	c #5B471D",
"a*	c #7F6424",
"b*	c #9A772B",
"c*	c #95742D",
"d*	c #90702D",
"e*	c #99772D",
"f*	c #937739",
"g*	c #32312F",
"h*	c #24221D",
"i*	c #4B3D20",
"j*	c #91712E",
"k*	c #90702C",
"l*	c #443715",
"m*	c #4B3C1B",
"n*	c #8D6F2E",
"o*	c #A07C32",
"p*	c #A98532",
"q*	c #B08935",
"r*	c #7F6225",
"s*	c #1E1A13",
"t*	c #775D27",
"u*	c #95722D",
"v*	c #AB8634",
"w*	c #AD8732",
"x*	c #B08934",
"y*	c #A78334",
"z*	c #A88433",
"A*	c #96752D",
"B*	c #8C6D2A",
"C*	c #866728",
"D*	c #554625",
"E*	c #4E3F1F",
"F*	c #816426",
"G*	c #9F7B2E",
"H*	c #98762D",
"I*	c #96742E",
"J*	c #8B6D27",
"K*	c #624D23",
"L*	c #454442",
"M*	c #6B665B",
"N*	c #4D4229",
"O*	c #765D24",
"P*	c #93732C",
"Q*	c #604B20",
"R*	c #47391C",
"S*	c #7F6429",
"T*	c #97752C",
"U*	c #98762E",
"V*	c #8A6C29",
"W*	c #14110C",
"X*	c #83672A",
"Y*	c #90702B",
"Z*	c #B18932",
"`*	c #A37F33",
" =	c #9A7A30",
".=	c #99782E",
"+=	c #94732A",
"@=	c #99772B",
"#=	c #9F7C2D",
"$=	c #9D792D",
"%=	c #98762B",
"&=	c #896D2E",
"*=	c #4E4329",
"==	c #494949",
"-=	c #787671",
";=	c #5A4D31",
">=	c #55431B",
",=	c #795F26",
"'=	c #6E5621",
")=	c #413216",
"!=	c #705724",
"~=	c #8F6F2A",
"{=	c #43361A",
"]=	c #AA8434",
"^=	c #A98434",
"/=	c #A58133",
"(=	c #A47E30",
"_=	c #A17C30",
":=	c #A07D2F",
"<=	c #A27E2F",
"[=	c #9D7A2E",
"}=	c #7A5E23",
"|=	c #66532C",
"1=	c #515151",
"2=	c #424241",
"3=	c #969289",
"4=	c #4F4632",
"5=	c #58492A",
"6=	c #423515",
"7=	c #57451C",
"8=	c #423516",
"9=	c #755B23",
"0=	c #886A2B",
"a=	c #9A7830",
"b=	c #A98435",
"c=	c #A48032",
"d=	c #A48132",
"e=	c #A4812F",
"f=	c #806224",
"g=	c #4D3C18",
"h=	c #675531",
"i=	c #8C8C8C",
"j=	c #484848",
"k=	c #4D4A42",
"l=	c #767269",
"m=	c #4A3917",
"n=	c #332710",
"o=	c #463415",
"p=	c #7A612C",
"q=	c #997830",
"r=	c #A78233",
"s=	c #A98436",
"t=	c #A98433",
"u=	c #A58032",
"v=	c #6D592F",
"w=	c #544931",
"x=	c #4F4C43",
"y=	c #4F4D48",
"z=	c #494131",
"A=	c #2B2311",
"B=	c #413415",
"C=	c #8B6C2A",
"D=	c #AA8636",
"E=	c #AA8536",
"F=	c #7B6026",
"G=	c #4E3F1D",
"H=	c #4D432C",
"I=	c #949390",
"J=	c #434343",
"K=	c #695F48",
"L=	c #3A3320",
"M=	c #8C6D2C",
"N=	c #AC8636",
"O=	c #AC8737",
"P=	c #B18A35",
"Q=	c #AB8736",
"R=	c #A48134",
"S=	c #8B6D2B",
"T=	c #685833",
"U=	c #625434",
"V=	c #4A4A49",
"W=	c #808080",
"X=	c #403928",
"Y=	c #836628",
"Z=	c #A47F30",
"`=	c #B28A35",
" -	c #90712D",
".-	c #695832",
"+-	c #62573F",
"@-	c #7B7977",
"#-	c #433517",
"$-	c #54492F",
"%-	c #434548",
"&-	c #4C3B15",
"*-	c #5D4D2A",
"=-	c #433F35",
"--	c #979591",
";-	c #49494A",
">-	c #4F4B42",
",-	c #000000",
"'-	c #10CE53",
"                                                                                                ",
"                                                                                                ",
"                    . + @                                                                       ",
"                    # $ % &                 * = - ; > ,                                         ",
"                    ' ) ! ~ {             ] ^ / ( _ : < [ }                                     ",
"                    | 1 2 3 4 5           6 7 8 9 0 a b c d e f                                 ",
"                    g h i j k l         m n o p q r s t u v w x y z                             ",
"                    A B C D E F G       H I J K L M N O P Q R S   T U                           ",
"                      V W X Y Z `        ...+.@.#.$.%.&.*.=.-.;.>.,.'.).                        ",
"                      !.~.{.].^./.(._.:.<.[.}.|.1.2.3.4.5.6.7.8.9.0.a.b.                        ",
"                        c.d.e.f.g.h.i.j.k.l.m.n.o.p.q.r.s.t.u.v.  w.x.y.                        ",
"                      z.A.B.C.D.E.F.G.H.I.J.K.L.M.N.O.P.Q.R.S.T.U.V.W.X.                        ",
"                    Y.Z.`. +.+++@+#+$+%+&+*+=+=+-+;+>+,+'+)+!+~+{+]+^+/+(+                      ",
"                _+:+<+[+}+|+1+2+3+4+5+6+7+8+=+=+=+=+=+=+9+0+a+b+c+d+e+f+g+h+                    ",
"            i+j+k+l+m+n+o+p+q+r+s+t+u+v+w+x+y+z+A+B+=+=+=+=+C+D+E+F+G+H+I+J+K+                  ",
"            L+M+N+O+P+Q+R+S+T+U+V+W+X+Y+Z+=+`+ @.@z+z++@=+=+=+@@#@$@%@&@*@=@-@;@                ",
"          >@,@'@)@!@~@{@]@R+^@/@(@_@:@<@[@}@|@1@2@3@4@5@6@7@8@9@0@a@b@c@d@e@f@g@h@              ",
"        i@j@k@l@m@n@o@p@q@r@s@t@u@v@w@x@y@=+3@|@z@A@2@=+-+=+B@C@D@E@F@G@H@I@J@K@L@M@            ",
"      N@O@P@Q@R@H+S@T@U@V@W@X@Y@Z@`@ #.#+#@###=+$#%#5@&#*#=#-#;#>#,#'#)#!#~#{#]#^#/#(#          ",
"      _#:#<#[#}#|#1#2#3#4#5#6#7#8#9#0#a#b#c#d#e#f#g#h#i#j#k#l#m#n#o#p#q#r#s#t#u#v#w#x#          ",
"    y#z#A#B#C#D#E#F#G#H#I#J#K#L#M#N#O#P#Q#R#S#T#U#V#W#X#Y#'#Z#`# $.$+$@$#$$$%$&$*$=$-$          ",
"    ;$>$%$,$'$)$!$~${$]$^$/$($_$:$<$[$}$|$1$2$3$4$5$5$6$}#7$8$9$0$@$a$b$c$d$e$f$>$g$h$          ",
"    i$j$k$l$m$'$w#n$o$p$q$r$s$t$u$v$w$x$y$z$A$4$B$C$D$E$D$'#F$&$c$G$u#H$I$J$K$L$M$N$O$          ",
"    P$Q$R$S$T$U$'$V$)${#W$X$Y$Z$`$ %.%+%@%#%$%%%&%*%=%-%;%+$>%,%'%)%!%~%{%]%^%/%O$O$            ",
"      (%_%:%<%K$[%}%|%1%2%3%4%5%6%7%8%9%0%a%O$b%c%d%e%f%c$g%h%$$g%i%j%]$($k%l%m%n%              ",
"        O$o%p%q%r%s%t%}%}%u%v%w%x%y%z%A%B%C%O$D%E%F%G%H%I%J%K%L%M%N%m#6$O%P%Q%R%                ",
"        S%T%U%V%W%O%X%Y%Z%,$`% &C#J$.&+&@&#&O$$&%&&&*&=&-&;&>&,&'&)&!&~&{&]&^&O$                ",
"          O$/&(&_&:&<&[&}&|&v%u%u%1&2&3&4&5&O$6&7&8&9&0&a&b&c&S$d&e&f&g&h&i&j&O$                ",
"          O$k&l&m&n&o&p&q&r&s&t&`%u&v&w&x&y&O$z&A&B&C&9&D&E&F&G&'&8%H&I&J&K&L&O$                ",
"          O$M&N&O&P&Q&R&S&T&U&V&W&X&Y&Z&`& *O$.*+*@*#*$*%*&***}#e&=*-*;*>*,*'*O$                ",
"          O$)*!*~*{*]*^*/*(*_*]%:*<*[*Q&}*|*O$1*2*3*4*5*6*7*8*9*0*a*b*c*d*e*f*O$                ",
"          g*h*i*j*k*l*m*n*o*p*q*r*s*t*u*v*w*O$x*y*z*3*A*B*C*D*E*F*G*H*I*;*J*K*                  ",
"            L*M*N*O*P*Q*R*S*T*U*V*W*X*Y*d@Z*O$x*~@y*`* =.=T*+=@=#=$=%=&=O$*=O$                  ",
"              ==-=;=>=,='=)=!=~=c%{='@i&]=z&O$q*~@^=/=+*(=_=:=<=[=}=|=O$1=2=  ==                ",
"                ==3=4=5=6=7=8=9=O$O$0=a=b=x*O$q*~@~@b=l#c=d=e=f=g=h=O$i=j=  ==                  ",
"                  ==  k=l=m=n=o=O$p=q=r=s=x*O$x*~@~@s=b=t=u=v=w=1=x=  ==  ==                    ",
"                    ==  y=  z=A=B=C=d@D=~@x*O$x*b=E=d@+*F=G=H=I===  ==  ==                      ",
"                      ==  ==  J=K=L=M=N=O=P=O$P=Q=R=S=T=U=O$  ==  ==  ==                        ",
"                        ==  ==  V=W=X=-#Y=Z=O$`= -.-+-1=j=  ==  ==                              ",
"                          ==  ==  ==@-O$#-$-%-&-*-=-1=j=  ==  ==                                ",
"                            ==  ==  ==--O$1=;-1=>-  ==  ==                                      ",
"                              ==  ==  ==  ==O$==  ==  ==                                        ",
"                                ==  ==  ==  ==  ==  ==                        ,-,-,-,-,-,-,-,-,-",
"                                  ==  ==  ==  ==                              ,-'-'-'-'-'-'-'-,-",
"                                    ==  ==  ==                                  ,-'-'-'-'-'-,-  ",
"                                          ==                                      ,-'-'-'-,-    ",
"                                                                                    ,-'-,-      ",
"                                                                                      ,-        "};
