/* XPM */
static char * translation_xpm[] = {
"48 48 23 1",
" 	c None",
".	c #325E32",
"+	c #000000",
"@	c #579B59",
"#	c #DF8A8A",
"$	c #BA5959",
"%	c #CD5C5C",
"&	c #814D4D",
"*	c #7C7C7C",
"=	c #CD5B5B",
"-	c #E76868",
";	c #7F7A7A",
">	c #DE8B8B",
",	c #BA5B5B",
"'	c #814E4E",
")	c #6B3737",
"!	c #F76F6F",
"~	c #BC2121",
"{	c #DB2525",
"]	c #600D0D",
"^	c #5E5E5E",
"/	c #E3AEAE",
"(	c #FFA8A8",
"                                                ",
"                               ..+              ",
"                               .@+              ",
"                             ...@+..            ",
"                             .@@@@@+            ",
"                             +++@+++            ",
"                               .@+              ",
"                         # #$  .++  +++++       ",
"                      # # % &*      ++          ",
"                    #  % % $        + +         ",
"                     #= % $ &*      +  +        ",
"                       % $ &*       +   +       ",
"                      - $ $; *           +      ",
"                     > ,&$*&*             +     ",
"                    > ,' & * *             +    ",
"                   > ,' * ) *                   ",
"                  > ,' * * * *                  ",
"                 > ,' * * * *          !!!~     ",
"                > ,' * *   * *      !!!{{~]^    ",
"               > ,' * *     *     !!!{{{~~]     ",
"              > ,' * *             !{{{~~~]^    ",
"             > ,' * *               {{~~~]^     ",
"            > ,' * *                {~~~~] ^    ",
"           > ,' * *                !{~]~]]^     ",
"          > ,' * *                !{~] ]]^ ^    ",
"         > ,' * *                !{~] ^ ] ^     ",
"        > ,' * *                !{~] ^ ^ ^ ^    ",
"       > ,' * *                !{~] ^ ^ ^ ^     ",
"      > ,' * *                !{~] ^ ^   ^ ^    ",
"     > ,' * *                !{~] ^ ^     ^     ",
"    > ,' * *                !{~] ^ ^            ",
"   > ,' * *                !{~] ^ ^             ",
"  > ,' * *                !{~] ^ ^              ",
" > ,' * *                !{~] ^ ^               ",
"/ ,' * *                !{~] ^ ^                ",
" ,' * *                !{~] ^ ^                 ",
"   * *                !{~] ^ ^                  ",
"    *                !{~] ^ ^                   ",
"                    !{~] ^ ^                    ",
"                   !{~] ^ ^                     ",
"                  !{~] ^ ^                      ",
"                 !{~] ^ ^                       ",
"                !{~] ^ ^                        ",
"               !{~] ^ ^                         ",
"              ({~] ^ ^                          ",
"               ~] ^ ^                           ",
"                 ^ ^                            ",
"                  ^                             "};
