/* XPM */
static char * transformation_menu_xpm[] = {
"48 48 490 2",
"  	c None",
". 	c #686662",
"+ 	c #5D564B",
"@ 	c #605542",
"# 	c #49443D",
"$ 	c #413F3A",
"% 	c #3A3733",
"& 	c #33312F",
"* 	c #403A30",
"= 	c #4E4533",
"- 	c #5D5038",
"; 	c #555451",
"> 	c #545049",
", 	c #4B463A",
"' 	c #7A6438",
") 	c #806636",
"! 	c #E2AA44",
"~ 	c #E0AA47",
"{ 	c #DDA745",
"] 	c #DFA63E",
"^ 	c #DEA439",
"/ 	c #DDA338",
"( 	c #987432",
"_ 	c #A57D33",
": 	c #7D6332",
"< 	c #5E5441",
"[ 	c #545250",
"} 	c #3E3D36",
"| 	c #43433A",
"1 	c #5E5037",
"2 	c #E7B250",
"3 	c #E9B657",
"4 	c #EBB85A",
"5 	c #E9B75A",
"6 	c #EAB758",
"7 	c #E8B352",
"8 	c #E6B04D",
"9 	c #E5AE49",
"0 	c #E3AB44",
"a 	c #DEA740",
"b 	c #D69F3A",
"c 	c #BF8F36",
"d 	c #AD8233",
"e 	c #6F6043",
"f 	c #3C3C3B",
"g 	c #3F3D37",
"h 	c #363833",
"i 	c #E6B14E",
"j 	c #E8B658",
"k 	c #E9B454",
"l 	c #E5B04D",
"m 	c #E5B050",
"n 	c #E5B251",
"o 	c #E5B152",
"p 	c #E2AD4B",
"q 	c #E2AF4E",
"r 	c #E8B351",
"s 	c #E5B04C",
"t 	c #E4AD48",
"u 	c #E3AB45",
"v 	c #DFA63B",
"w 	c #DCA237",
"x 	c #8C7142",
"y 	c #373735",
"z 	c #44403A",
"A 	c #DDA43B",
"B 	c #E3AB46",
"C 	c #E6B150",
"D 	c #E3AE4D",
"E 	c #DBA540",
"F 	c #D19D39",
"G 	c #C9973A",
"H 	c #C5943B",
"I 	c #C4933A",
"J 	c #C49339",
"K 	c #C39238",
"L 	c #C6953B",
"M 	c #D09D3E",
"N 	c #D9A442",
"O 	c #E1AB46",
"P 	c #DFA53A",
"Q 	c #DDA236",
"R 	c #A88749",
"S 	c #62615D",
"T 	c #35322C",
"U 	c #5B5549",
"V 	c #9A7734",
"W 	c #DBA23B",
"X 	c #DBA644",
"Y 	c #D4A142",
"Z 	c #CA973A",
"` 	c #C19035",
" .	c #B38733",
"..	c #B28634",
"+.	c #B08534",
"@.	c #B08533",
"#.	c #B58934",
"$.	c #BF8F35",
"%.	c #CD9A3A",
"&.	c #DCA642",
"*.	c #E5AE4A",
"=.	c #DBA33D",
"-.	c #715D3A",
";.	c #363635",
">.	c #353432",
",.	c #35332D",
"'.	c #39352F",
").	c #494843",
"!.	c #47443E",
"~.	c #B98C38",
"{.	c #CE9835",
"].	c #C89537",
"^.	c #A67E34",
"/.	c #765D30",
"(.	c #4E432F",
"_.	c #443D30",
":.	c #403B30",
"<.	c #3C3930",
"[.	c #474033",
"}.	c #4A4233",
"|.	c #3F3A31",
"1.	c #34322E",
"2.	c #494133",
"3.	c #625231",
"4.	c #A77F33",
"5.	c #CD9837",
"6.	c #AE8438",
"7.	c #625031",
"8.	c #4B412E",
"9.	c #3C372F",
"0.	c #665B46",
"a.	c #8E7954",
"b.	c #C89639",
"c.	c #DEA53A",
"d.	c #DAA138",
"e.	c #836A3D",
"f.	c #5E5B55",
"g.	c #9F7D3E",
"h.	c #C89535",
"i.	c #B98A34",
"j.	c #896B33",
"k.	c #594F3E",
"l.	c #3E3B37",
"m.	c #494641",
"n.	c #383631",
"o.	c #35332F",
"p.	c #766543",
"q.	c #4A4438",
"r.	c #947740",
"s.	c #D39E3C",
"t.	c #E1AA42",
"u.	c #E1A942",
"v.	c #E0A944",
"w.	c #CD9A3D",
"x.	c #5D4D31",
"y.	c #CD9834",
"z.	c #8F6F32",
"A.	c #6A5732",
"B.	c #866F42",
"C.	c #D49D36",
"D.	c #DEA63D",
"E.	c #E5B150",
"F.	c #E9B75B",
"G.	c #E6B251",
"H.	c #DAA646",
"I.	c #B0883D",
"J.	c #423C2F",
"K.	c #645F55",
"L.	c #716245",
"M.	c #716143",
"N.	c #B38A3F",
"O.	c #C89840",
"P.	c #CC9B40",
"Q.	c #DDA94A",
"R.	c #EBB95F",
"S.	c #EAB95E",
"T.	c #E5B04F",
"U.	c #C7983F",
"V.	c #80673A",
"W.	c #3D3833",
"X.	c #C59948",
"Y.	c #B99148",
"Z.	c #B58F48",
"`.	c #B79048",
" +	c #C69B4A",
".+	c #E0AE53",
"++	c #E7B558",
"@+	c #D39F3E",
"#+	c #B2883B",
"$+	c #514634",
"%+	c #4D4A43",
"&+	c #4E4433",
"*+	c #5B4E38",
"=+	c #76633E",
"-+	c #AF8A48",
";+	c #C3984A",
">+	c #D09F46",
",+	c #D39E3D",
"'+	c #BA8D3A",
")+	c #9D7B3B",
"!+	c #413B31",
"~+	c #514B42",
"{+	c #584E3D",
"]+	c #786647",
"^+	c #A98543",
"/+	c #AC8640",
"(+	c #A17E3D",
"_+	c #554833",
":+	c #423E3A",
"<+	c #67645F",
"[+	c #3E3C37",
"}+	c #9C7B40",
"|+	c #504632",
"1+	c #3A3732",
"2+	c #443F3F",
"3+	c #382828",
"4+	c #4C4840",
"5+	c #423E34",
"6+	c #333230",
"7+	c #2E3331",
"8+	c #3C423F",
"9+	c #524F4F",
"0+	c #3E3535",
"a+	c #693B3B",
"b+	c #B15959",
"c+	c #3A2323",
"d+	c #3E3E3D",
"e+	c #474745",
"f+	c #25342C",
"g+	c #68987F",
"h+	c #3D594A",
"i+	c #333A36",
"j+	c #505150",
"k+	c #362F2F",
"l+	c #3B2222",
"m+	c #603B3B",
"n+	c #A85F5F",
"o+	c #C16A6A",
"p+	c #BE6767",
"q+	c #B86464",
"r+	c #392929",
"s+	c #27352E",
"t+	c #76A58C",
"u+	c #75A58B",
"v+	c #6D9E84",
"w+	c #6A8979",
"x+	c #4A524E",
"y+	c #24322A",
"z+	c #2F3331",
"A+	c #392525",
"B+	c #B55858",
"C+	c #3D1E1E",
"D+	c #BC6666",
"E+	c #C47070",
"F+	c #C47171",
"G+	c #C06C6C",
"H+	c #B96464",
"I+	c #392828",
"J+	c #343434",
"K+	c #7BA991",
"L+	c #77A68E",
"M+	c #70A187",
"N+	c #729A86",
"O+	c #22322A",
"P+	c #5F9479",
"Q+	c #25322B",
"R+	c #3A2222",
"S+	c #B45757",
"T+	c #B75A5A",
"U+	c #3F2121",
"V+	c #BE6C6C",
"W+	c #C37272",
"X+	c #C57272",
"Y+	c #C46F6F",
"Z+	c #BB6565",
"`+	c #3B2525",
" @	c #79A78F",
".@	c #7DAA92",
"+@	c #7BA891",
"@@	c #78A78E",
"#@	c #71A088",
"$@	c #23332B",
"%@	c #63967C",
"&@	c #23312A",
"*@	c #392626",
"=@	c #B95D5D",
"-@	c #C26868",
";@	c #402424",
">@	c #C06D6D",
",@	c #C67272",
"'@	c #CC7676",
")@	c #CA7373",
"!@	c #3A2929",
"~@	c #24342C",
"{@	c #76A58D",
"]@	c #7DAA93",
"^@	c #75A48C",
"/@	c #679A80",
"(@	c #61957B",
"_@	c #5E9378",
":@	c #26322C",
"<@	c #362C2C",
"[@	c #B05858",
"}@	c #B85C5C",
"|@	c #C06767",
"1@	c #C46B6B",
"2@	c #412323",
"3@	c #C46E6E",
"4@	c #CD7777",
"5@	c #CF7878",
"6@	c #CB7373",
"7@	c #C16868",
"8@	c #392A2A",
"9@	c #7AA891",
"0@	c #7DA992",
"a@	c #7CA992",
"b@	c #78A68E",
"c@	c #25352D",
"d@	c #62967C",
"e@	c #61937A",
"f@	c #382323",
"g@	c #B35858",
"h@	c #B85D5D",
"i@	c #BF6464",
"j@	c #412424",
"k@	c #C87070",
"l@	c #CC7575",
"m@	c #CC7474",
"n@	c #CA7070",
"o@	c #BF6565",
"p@	c #392727",
"q@	c #76A48C",
"r@	c #78A68F",
"s@	c #26362E",
"t@	c #6A9C82",
"u@	c #382626",
"v@	c #B25959",
"w@	c #B75C5C",
"x@	c #C66C6C",
"y@	c #CA7171",
"z@	c #C97171",
"A@	c #C06565",
"B@	c #6C9D84",
"C@	c #64987D",
"D@	c #5F9379",
"E@	c #23322A",
"F@	c #676562",
"G@	c #382525",
"H@	c #B25656",
"I@	c #B95E5E",
"J@	c #C36969",
"K@	c #C56B6B",
"L@	c #CD7474",
"M@	c #CF7777",
"N@	c #BD6262",
"O@	c #7EAA93",
"P@	c #27362E",
"Q@	c #6C9E85",
"R@	c #64977D",
"S@	c #392222",
"T@	c #B35757",
"U@	c #BC6060",
"V@	c #402121",
"W@	c #C66D6D",
"X@	c #C86E6E",
"Y@	c #3B2424",
"Z@	c #27352D",
"`@	c #7CAA92",
" #	c #77A68D",
".#	c #5F9378",
"+#	c #3A1E1E",
"@#	c #BA6060",
"##	c #402222",
"$#	c #CB7272",
"%#	c #C86F6F",
"&#	c #25332C",
"*#	c #73A38A",
"=#	c #7AA88F",
"-#	c #7CAA93",
";#	c #7CA991",
">#	c #76A68D",
",#	c #6D9E85",
"'#	c #65987E",
")#	c #213129",
"!#	c #3B1C1C",
"~#	c #B25757",
"{#	c #B75F5F",
"]#	c #C16666",
"^#	c #C97070",
"/#	c #C76E6E",
"(#	c #BC6969",
"_#	c #2C332F",
":#	c #689A80",
"<#	c #71A188",
"[#	c #74A38C",
"}#	c #77A48D",
"|#	c #75A48B",
"1#	c #25352C",
"2#	c #6B9D84",
"3#	c #66997F",
"4#	c #203128",
"5#	c #B15555",
"6#	c #C06666",
"7#	c #C36F6F",
"8#	c #975858",
"9#	c #583939",
"0#	c #5F4242",
"a#	c #333333",
"b#	c #4A544F",
"c#	c #32483C",
"d#	c #4E7460",
"e#	c #63957C",
"f#	c #6A9980",
"g#	c #22342B",
"h#	c #63977C",
"i#	c #203129",
"j#	c #676662",
"k#	c #382424",
"l#	c #B05959",
"m#	c #C26767",
"n#	c #C46A6A",
"o#	c #3F2222",
"p#	c #5A3C3C",
"q#	c #5C3333",
"r#	c #8A4444",
"s#	c #382727",
"t#	c #2D322F",
"u#	c #5C8872",
"v#	c #446856",
"w#	c #2C4538",
"x#	c #2D4739",
"y#	c #21322A",
"z#	c #BB6363",
"A#	c #3A2626",
"B#	c #AB6060",
"C#	c #B25555",
"D#	c #25312B",
"E#	c #56856D",
"F#	c #527C66",
"G#	c #537D67",
"H#	c #548069",
"I#	c #1F3028",
"J#	c #60947A",
"K#	c #28322D",
"L#	c #AC5151",
"M#	c #AA4E4E",
"N#	c #AD5050",
"O#	c #25302B",
"P#	c #55816A",
"Q#	c #507863",
"R#	c #4F7561",
"S#	c #517A65",
"T#	c #1E2E26",
"U#	c #5D9277",
"V#	c #24322B",
"W#	c #3B1E1E",
"X#	c #AD5151",
"Y#	c #A54B4B",
"Z#	c #A34848",
"`#	c #A14A4A",
" $	c #372828",
".$	c #2D312F",
"+$	c #557E69",
"@$	c #527D67",
"#$	c #537E67",
"$$	c #212E27",
"%$	c #63927B",
"&$	c #27322D",
"*$	c #392020",
"=$	c #A74D4D",
"-$	c #7B3939",
";$	c #4F2828",
">$	c #3A2322",
",$	c #343131",
"'$	c #323332",
")$	c #353A37",
"!$	c #31443A",
"~$	c #426855",
"{$	c #588870",
"]$	c #29312D",
"^$	c #412C2C",
"/$	c #4D4040",
"($	c #4F4644",
"_$	c #605F5C",
":$	c #3C4943",
"<$	c #3C4842",
"[$	c #323333",
"}$	c #686461",
"|$	c #000000",
"1$	c #10CE53",
"                                                                                                ",
"                                                                                                ",
"                                                                                                ",
"                                                                                                ",
"                                                                                                ",
"                                    . + @ # $ % & * = -                                         ",
"                              ; > , ' ) ! ~ { ] ^ / ( _ : <                                     ",
"                          [ } | 1 2 3 4 5 6 7 8 9 0 a b c d e f                                 ",
"                        g h i j k l m n o m p q n r s t u v w x y                               ",
"                      z A B C D E F G H I J K L M N O s 2 t P Q R S     T T T                   ",
"                    U V W X Y Z `  ...+.+.....@.#.$.%.&.*.s =.d -.;.>.,.'.).T                   ",
"                  !.~.{.].I ^./.(._.:.<.[.}.|.1.2.3.4.5.6.7.8.9.0.a.b.c.d.e.T                   ",
"                f.g.h.i.j.k.l.T                   m.n.o.p.q.r.s.t.O u.v.w.x.T                   ",
"                T y.z.A.T T                           T B.C.D.E.F.F.G.H.I.J.K.                  ",
"                T L.M.T                           T T N.O.P.Q.F.R.S.T.U.V.W.                    ",
"                T T T                             T X.Y.Z.`. +.+++E.@+#+$+%+                    ",
"                                                  T T &+*+=+-+;+>+,+'+)+!+                      ",
"                                                          ~+{+]+^+/+(+_+:+                      ",
"                                                            <+[+!+}+|+1+                        ",
"              2+3+                                              4+5+6+        7+8+              ",
"          9+0+a+b+c+                                              d+e+      f+g+h+i+j+          ",
"      k+l+m+n+o+p+q+r+                                                    s+t+u+v+w+x+y+z+      ",
"      A+B+C+D+E+F+G+H+I+                                                J+K+K+L+M+N+O+P+Q+      ",
"      R+S+T+U+V+W+X+Y+Z+`+                                            J+ @.@+@@@#@$@%@P+&@      ",
"      *@S+=@-@;@>@,@'@)@-@!@                                        ~@{@+@]@K+^@~@/@(@_@:@      ",
"      <@[@}@|@1@2@3@4@5@6@7@8@                                    ~@^@9@0@a@b@c@/@d@_@e@J+      ",
"        f@g@h@i@1@j@k@l@m@n@o@p@                                c@q@K+.@]@r@s@t@%@_@_@J+        ",
"          u@v@w@|@1@2@x@y@m@z@A@J+                            s@ @a@]@]@ @s@B@C@D@_@E@  F@      ",
"            G@H@I@J@J@2@K@L@M@y@N@J+                        s@9@.@O@0@b@P@Q@R@P+_@Q+  F@        ",
"              S@T@U@-@o@V@W@m@l@X@o@Y@                    Z@ @]@O@`@ #s@B@R@.#_@:@  F@  F@      ",
"                +#g@@#i@o@##1@$#6@%#A@J+                &#*#=#-#;#>#c@,#'#D@_@)#  F@  F@        ",
"                  !#~#{#i@]###1@^#$#/#(#J+            _#:#<#[#}#|#1#2#3#P+_@4#  F@  F@          ",
"                    !#5#w@6#1@2@1@7#8#9#0#J+        a#b#c#d#e#f#g#'#h#P+_@i#  j#  F@            ",
"                      k#l#h@m#n#o#p#q#r#H@s#        t#u#v#w#x#y#'#(@_@_@Q+  j#  F@              ",
"                        G@5#w@z#A#B#T@C#5#u@        D#E#F#G#H#I#J#_@_@K#  F@  F@                ",
"                          +#C#S+c+v@L#M#N#s#        O#P#Q#R#S#T#U#_@V#  F@  F@                  ",
"                            +#C#W#X#Y#Z#`# $        .$+$H#@$#$$$%$&$  F@  F@                    ",
"                              J+*$=$-$;$>$,$F@      '$)$!$~${$]$J+  F@  F@                      ",
"                                J+^$/$($  F@  F@      _$  :$<$[$  F@  F@                        ",
"                                }$  F@  F@  F@  F@      F@  F@  F@  F@                          ",
"                                  F@  F@  F@  F@      F@  F@  F@  F@                            ",
"                                    F@  F@              F@  F@  F@                              ",
"                                                          F@  F@              |$|$|$|$|$|$|$|$|$",
"                                                            F@                |$1$1$1$1$1$1$1$|$",
"                                                                                |$1$1$1$1$1$|$  ",
"                                                                                  |$1$1$1$|$    ",
"                                                                                    |$1$|$      ",
"                                                                                      |$        "};
