/* XPM */
static char * triangle_xpm[] = {
"9 6 3 1",
" 	c None",
".	c #000000",
"+	c #10CE53",
".........",
".+++++++.",
" .+++++. ",
"  .+++.  ",
"   .+.   ",
"    .    "};
