/* XPM */
static char * vectrex_xpm[] = {
"48 48 7 1",
" 	c None",
".	c #F76F6F",
"+	c #BC2121",
"@	c #DB2525",
"#	c #600D0D",
"$	c #5E5E5E",
"%	c #FFA8A8",
"                                                ",
"                                                ",
"                                                ",
"                                                ",
"                                                ",
"                                                ",
"                                                ",
"                                                ",
"                                                ",
"                                                ",
"                                                ",
"                                 ...+           ",
"                              ...@@+#$          ",
"                            ...@@@++#           ",
"                             .@@@+++#$          ",
"                              @@+++#$           ",
"                              @++++# $          ",
"                             .@+#+##$           ",
"                            .@+# ##$ $          ",
"                           .@+# $ # $           ",
"                          .@+# $ $ $ $          ",
"                         .@+# $ $ $ $           ",
"                        .@+# $ $   $ $          ",
"                       .@+# $ $     $           ",
"                      .@+# $ $                  ",
"                     .@+# $ $                   ",
"                    .@+# $ $                    ",
"                   .@+# $ $                     ",
"                  .@+# $ $                      ",
"                 .@+# $ $                       ",
"                .@+# $ $                        ",
"               .@+# $ $                         ",
"              .@+# $ $                          ",
"             .@+# $ $                           ",
"            .@+# $ $                            ",
"           .@+# $ $                             ",
"          .@+# $ $                              ",
"         .@+# $ $                               ",
"        %@+# $ $                                ",
"         +# $ $                                 ",
"           $ $                                  ",
"            $                                   ",
"                                                ",
"                                                ",
"                                                ",
"                                                ",
"                                                ",
"                                                "};
