/* XPM */
static char * widget_script_xpm[] = {
"48 49 621 2",
"  	c None",
". 	c #626261",
"+ 	c #000000",
"@ 	c #2F2F2F",
"# 	c #515150",
"$ 	c #7A7A79",
"% 	c #DADADA",
"& 	c #FFFFFF",
"* 	c #F6F6F6",
"= 	c #CFCFCF",
"- 	c #707070",
"; 	c #C1C1C1",
"> 	c #FEFEFE",
", 	c #FBFBFB",
"' 	c #EDEDED",
") 	c #C0C0C0",
"! 	c #F7F7F7",
"~ 	c #D7D7D7",
"{ 	c #F1F1F1",
"] 	c #B7B7B7",
"^ 	c #E5E5E5",
"/ 	c #D8D8D8",
"( 	c #C3C3C3",
"_ 	c #D1D1D1",
": 	c #BBBBBB",
"< 	c #BABABA",
"[ 	c #E4E4E4",
"} 	c #D2D2D2",
"| 	c #AEAEAE",
"1 	c #070707",
"2 	c #B1B1B1",
"3 	c #E3E3E3",
"4 	c #FCFCFC",
"5 	c #CDCDCD",
"6 	c #BFBFBF",
"7 	c #CCCCCC",
"8 	c #A7A7A7",
"9 	c #B8B8B8",
"0 	c #C6C6C6",
"a 	c #CBCBCB",
"b 	c #EAEAEA",
"c 	c #C2C2C2",
"d 	c #FDFDFD",
"e 	c #DCDCDC",
"f 	c #A4A4A3",
"g 	c #0E0E0E",
"h 	c #B4B4B4",
"i 	c #AFAFAF",
"j 	c #BEBEBE",
"k 	c #B6B6B6",
"l 	c #F5F5F4",
"m 	c #B5B5B5",
"n 	c #F9F9F9",
"o 	c #A5A5A5",
"p 	c #FDFDFC",
"q 	c #F4F4F4",
"r 	c #ACACAC",
"s 	c #ECECEC",
"t 	c #C9C9C8",
"u 	c #A8A8A8",
"v 	c #474746",
"w 	c #A0A0A0",
"x 	c #5D5D5D",
"y 	c #565656",
"z 	c #B9B9B9",
"A 	c #FCFCFB",
"B 	c #F4F4F3",
"C 	c #ABABAB",
"D 	c #515151",
"E 	c #474747",
"F 	c #464645",
"G 	c #464646",
"H 	c #5D5D5C",
"I 	c #A9A9A9",
"J 	c #B0B0B0",
"K 	c #E2E2E2",
"L 	c #171717",
"M 	c #979797",
"N 	c #BCBCBC",
"O 	c #A3A3A3",
"P 	c #DFDFDF",
"Q 	c #3D3D3D",
"R 	c #3A3A3A",
"S 	c #FAFAFA",
"T 	c #F2F2F2",
"U 	c #F3F3F3",
"V 	c #AAAAAA",
"W 	c #A0A09F",
"X 	c #8A8A8A",
"Y 	c #6C6C6C",
"Z 	c #454545",
"` 	c #A6A6A6",
" .	c #696969",
"..	c #656565",
"+.	c #B3B3B3",
"@.	c #A4A4A4",
"#.	c #363636",
"$.	c #2A2A2A",
"%.	c #D5D5D4",
"&.	c #FAFAF9",
"*.	c #E7E7E7",
"=.	c #C6C6C5",
"-.	c #BABAB9",
";.	c #7A7A7A",
">.	c #151515",
",.	c #383838",
"'.	c #F8F8F8",
").	c #C4C4C4",
"!.	c #131313",
"~.	c #575757",
"{.	c #F8F8F7",
"].	c #F7F7F6",
"^.	c #F6F6F5",
"/.	c #F5F5F5",
"(.	c #EBEBEB",
"_.	c #1D1D1D",
":.	c #9E9E9E",
"<.	c #535353",
"[.	c #F9F9F8",
"}.	c #E1E1E0",
"|.	c #737373",
"1.	c #0D0D0D",
"2.	c #212121",
"3.	c #999999",
"4.	c #CACACA",
"5.	c #FBFBFA",
"6.	c #262626",
"7.	c #EEEEED",
"8.	c #F3F3F2",
"9.	c #191919",
"0.	c #0F0F0F",
"a.	c #60605F",
"b.	c #E7E7E6",
"c.	c #141414",
"d.	c #8E8E8E",
"e.	c #B7B7B6",
"f.	c #BFBFBE",
"g.	c #989897",
"h.	c #323232",
"i.	c #343433",
"j.	c #F2F2F1",
"k.	c #B6B6B5",
"l.	c #5B5B5B",
"m.	c #111111",
"n.	c #929292",
"o.	c #C3C3C2",
"p.	c #DEDEDE",
"q.	c #B5B5B4",
"r.	c #D6D6D6",
"s.	c #F2F2F0",
"t.	c #F1F1F0",
"u.	c #F0F0F0",
"v.	c #BEBEBD",
"w.	c #C8C8C8",
"x.	c #AFAFAE",
"y.	c #CCCCCB",
"z.	c #AAAAA9",
"A.	c #E1E1E1",
"B.	c #70706F",
"C.	c #F0F0EF",
"D.	c #BDBDBD",
"E.	c #1C1C1C",
"F.	c #AEAEAD",
"G.	c #DEDEDD",
"H.	c #DBDBDA",
"I.	c #7B7B7B",
"J.	c #8E8E8D",
"K.	c #F1F1EF",
"L.	c #EFEFEE",
"M.	c #B4B4B3",
"N.	c #E8E8E8",
"O.	c #D4D4D4",
"P.	c #DDDDDD",
"Q.	c #B1B1B0",
"R.	c #B8B8B7",
"S.	c #CDCCCB",
"T.	c #CBCAC9",
"U.	c #393837",
"V.	c #4B4034",
"W.	c #B2B1B0",
"X.	c #7B7A79",
"Y.	c #9A9A9A",
"Z.	c #A2A2A2",
"`.	c #A9A9A8",
" +	c #222221",
".+	c #6B553F",
"++	c #B1824C",
"@+	c #1B140E",
"#+	c #656464",
"$+	c #696867",
"%+	c #616161",
"&+	c #CECECE",
"*+	c #DBDBDB",
"=+	c #979796",
"-+	c #4B4B4A",
";+	c #3E2C19",
">+	c #E0C393",
",+	c #CB9E5C",
"'+	c #0F0E0D",
")+	c #8F8E8D",
"!+	c #A1A1A1",
"~+	c #C0BFBE",
"{+	c #2A221B",
"]+	c #B38954",
"^+	c #B7884D",
"/+	c #7E522B",
"(+	c #E8E8E7",
"_+	c #5E5E5E",
":+	c #A6A6A5",
"<+	c #312C29",
"[+	c #C09961",
"}+	c #E8C37F",
"|+	c #9B6736",
"1+	c #2A1B0F",
"2+	c #A5A4A3",
"3+	c #B5B4B3",
"4+	c #686766",
"5+	c #404040",
"6+	c #ADADAD",
"7+	c #9C9C9C",
"8+	c #9B9B9A",
"9+	c #373736",
"0+	c #BF9E6D",
"a+	c #E8C381",
"b+	c #B9884C",
"c+	c #7F5229",
"d+	c #121110",
"e+	c #AFAEAD",
"f+	c #E5E5E4",
"g+	c #222222",
"h+	c #A8A8A7",
"i+	c #B3B3B2",
"j+	c #6F6F6E",
"k+	c #6E5339",
"l+	c #E5C795",
"m+	c #CFA466",
"n+	c #8D5B2E",
"o+	c #2E2319",
"p+	c #5B5B5A",
"q+	c #A6A5A4",
"r+	c #C9C8C7",
"s+	c #565655",
"t+	c #EEEEEC",
"u+	c #EDEDEC",
"v+	c #C6C5C4",
"w+	c #483E35",
"x+	c #D0AE7C",
"y+	c #E0BC7F",
"z+	c #A2713B",
"A+	c #644022",
"B+	c #6F6E6D",
"C+	c #C3C2C1",
"D+	c #686765",
"E+	c #D8D8D7",
"F+	c #858585",
"G+	c #121212",
"H+	c #9E9E9D",
"I+	c #ABABAA",
"J+	c #C8C8C7",
"K+	c #EDEDEB",
"L+	c #646362",
"M+	c #1C1C1A",
"N+	c #BE9B69",
"O+	c #E8C891",
"P+	c #CC9E5D",
"Q+	c #7B5229",
"R+	c #1D1918",
"S+	c #545352",
"T+	c #545453",
"U+	c #6C6B69",
"V+	c #A7A7A6",
"W+	c #787877",
"X+	c #B0B0AF",
"Y+	c #AAAAA8",
"Z+	c #BDBDBC",
"`+	c #684626",
" @	c #E2C088",
".@	c #DEB674",
"+@	c #956434",
"@@	c #1D1209",
"#@	c #E4E4E3",
"$@	c #4D4D4D",
"%@	c #E8E8E6",
"&@	c #D5D5D3",
"*@	c #E6E6E4",
"=@	c #AEAEAC",
"-@	c #D7D7D6",
";@	c #ACACAB",
">@	c #B3B3B1",
",@	c #959595",
"'@	c #3E3E3E",
")@	c #ECECEA",
"!@	c #C7C7C6",
"~@	c #D3D3D2",
"{@	c #BCBCBB",
"]@	c #B9B9B8",
"^@	c #332719",
"/@	c #DBBA84",
"(@	c #E8C78D",
"_@	c #AD7A44",
":@	c #3D2919",
"<@	c #4A4847",
"[@	c #808080",
"}@	c #636363",
"|@	c #CFCFCE",
"1@	c #E7E7E5",
"2@	c #ADADAC",
"3@	c #EFEFED",
"4@	c #ECECEB",
"5@	c #EBEBEA",
"6@	c #EBEBE9",
"7@	c #595959",
"8@	c #23201F",
"9@	c #D0B084",
"0@	c #E9CD9B",
"a@	c #C39554",
"b@	c #3C3530",
"c@	c #969696",
"d@	c #434343",
"e@	c #050505",
"f@	c #7E7E7E",
"g@	c #E5E5E3",
"h@	c #A3A3A2",
"i@	c #C7C7C5",
"j@	c #986D42",
"k@	c #50473F",
"l@	c #AD8C67",
"m@	c #EAD3A7",
"n@	c #D8AE69",
"o@	c #A8773F",
"p@	c #412F1F",
"q@	c #8F8F8E",
"r@	c #1B1B1B",
"s@	c #090503",
"t@	c #140D07",
"u@	c #0B0704",
"v@	c #020100",
"w@	c #BABAB8",
"x@	c #ADADAB",
"y@	c #D2D2D1",
"z@	c #BBBBBA",
"A@	c #D3D3D1",
"B@	c #BBBBB9",
"C@	c #9C9C9B",
"D@	c #986E40",
"E@	c #CAAA71",
"F@	c #86643E",
"G@	c #E9CA90",
"H@	c #E9C586",
"I@	c #C79B58",
"J@	c #6D4A28",
"K@	c #090807",
"L@	c #616160",
"M@	c #312D2A",
"N@	c #25211C",
"O@	c #452E1B",
"P@	c #3D2914",
"Q@	c #080605",
"R@	c #E0E0DE",
"S@	c #D3D3D3",
"T@	c #C0C0BE",
"U@	c #919190",
"V@	c #A3A3A1",
"W@	c #6C4B2C",
"X@	c #D8BA86",
"Y@	c #BAA17C",
"Z@	c #D6B37A",
"`@	c #EDD4AA",
" #	c #E1BD7F",
".#	c #D7AA67",
"+#	c #2F2112",
"@#	c #221F1A",
"##	c #775A3C",
"$#	c #93673C",
"%#	c #95693D",
"&#	c #3B2715",
"*#	c #251A0E",
"=#	c #717170",
"-#	c #EAEAE8",
";#	c #B0B0AE",
">#	c #BE9F75",
",#	c #D6C1A3",
"'#	c #C3A67F",
")#	c #F0DCBA",
"!#	c #E7CDA4",
"~#	c #B98B4E",
"{#	c #CA9B58",
"]#	c #C39865",
"^#	c #BE955A",
"/#	c #795E40",
"(#	c #694D31",
"_#	c #462E18",
":#	c #150D07",
"<#	c #0A0908",
"[#	c #040404",
"}#	c #E0E0DF",
"|#	c #B2B2B1",
"1#	c #EAEAE9",
"2#	c #D2D2D0",
"3#	c #5D432A",
"4#	c #D0B27F",
"5#	c #CAB596",
"6#	c #E7CA98",
"7#	c #EEDAB6",
"8#	c #CA9F62",
"9#	c #BB8B4E",
"0#	c #E4C080",
"a#	c #EBCE99",
"b#	c #EDD3A5",
"c#	c #7C5A35",
"d#	c #322211",
"e#	c #0D0904",
"f#	c #0F0E0C",
"g#	c #241A0E",
"h#	c #272626",
"i#	c #4F4F4E",
"j#	c #C0C0BF",
"k#	c #A2A2A1",
"l#	c #CECECC",
"m#	c #A7A7A5",
"n#	c #8F8F8F",
"o#	c #9B7952",
"p#	c #E9DDCC",
"q#	c #CEAE7A",
"r#	c #E8C383",
"s#	c #F2E1C9",
"t#	c #D6AB67",
"u#	c #D2A763",
"v#	c #ECD6AF",
"w#	c #DEBA81",
"x#	c #DCB36F",
"y#	c #BA894D",
"z#	c #302419",
"A#	c #322922",
"B#	c #7D5C37",
"C#	c #724F2D",
"D#	c #51504E",
"E#	c #393939",
"F#	c #D0D0CE",
"G#	c #B4B4B2",
"H#	c #CFCFCD",
"I#	c #7D7B79",
"J#	c #BB996B",
"K#	c #E2D3BA",
"L#	c #ECD3A8",
"M#	c #F0E0C4",
"N#	c #E3BC79",
"O#	c #E8C589",
"P#	c #F1E5D2",
"Q#	c #BF9254",
"R#	c #D5AC6F",
"S#	c #E4C389",
"T#	c #DEB779",
"U#	c #7A5B3D",
"V#	c #513720",
"W#	c #26190D",
"X#	c #101010",
"Y#	c #7F7F7E",
"Z#	c #E9E9E8",
"`#	c #8C7A68",
" $	c #C7AC85",
".$	c #E0C496",
"+$	c #F2E1C4",
"@$	c #F4E9D7",
"#$	c #F0DBB6",
"$$	c #F0DEBF",
"%$	c #DEC398",
"&$	c #CBA15D",
"*$	c #ECD2A5",
"=$	c #E7C17F",
"-$	c #E0B774",
";$	c #A2723F",
">$	c #120D07",
",$	c #030201",
"'$	c #0C0907",
")$	c #D4D4D3",
"!$	c #D0D0CF",
"~$	c #E5E5E2",
"{$	c #534233",
"]$	c #E4CDA4",
"^$	c #E6C488",
"/$	c #F5ECDC",
"($	c #EFDAB5",
"_$	c #EED5AA",
":$	c #F0DFC0",
"<$	c #EACA93",
"[$	c #E7C17E",
"}$	c #E2BC7C",
"|$	c #EED8B5",
"1$	c #CFAB71",
"2$	c #AE8351",
"3$	c #7E5D3D",
"4$	c #181612",
"5$	c #130D06",
"6$	c #1A120A",
"7$	c #080705",
"8$	c #E2E2E1",
"9$	c #E6E6E5",
"0$	c #736455",
"a$	c #EDD4A8",
"b$	c #F1DEBF",
"c$	c #F5E9D9",
"d$	c #EDD5A8",
"e$	c #F2E2C7",
"f$	c #ECD2A2",
"g$	c #EBCD98",
"h$	c #F0DEC1",
"i$	c #D7B172",
"j$	c #B78950",
"k$	c #E3C38E",
"l$	c #E1BA75",
"m$	c #9F6E3E",
"n$	c #6A4524",
"o$	c #594028",
"p$	c #0D0C0C",
"q$	c #DDDDDC",
"r$	c #E9E9E7",
"s$	c #A5A5A4",
"t$	c #CECECD",
"u$	c #4C4C4B",
"v$	c #E3CCA8",
"w$	c #EFDAB3",
"x$	c #F4E7D2",
"y$	c #F0DEC0",
"z$	c #EFD8AF",
"A$	c #EFD9B1",
"B$	c #EBCF9C",
"C$	c #E2BB77",
"D$	c #D0A461",
"E$	c #DFB975",
"F$	c #966A3C",
"G$	c #835830",
"H$	c #674421",
"I$	c #342E2A",
"J$	c #555555",
"K$	c #424241",
"L$	c #F2E0C3",
"M$	c #EED6AA",
"N$	c #E9C687",
"O$	c #EACC95",
"P$	c #F0DFC2",
"Q$	c #E5BE79",
"R$	c #E4BC79",
"S$	c #C99B5A",
"T$	c #C19555",
"U$	c #C19559",
"V$	c #714A27",
"W$	c #5A3A1F",
"X$	c #3D2E1E",
"Y$	c #50504F",
"Z$	c #999998",
"`$	c #E4E4E2",
" %	c #B09679",
".%	c #F1E0C1",
"+%	c #F0DEBE",
"@%	c #E9C688",
"#%	c #EFD7AE",
"$%	c #E9D2A8",
"%%	c #E6C07C",
"&%	c #CEA15E",
"*%	c #DFB974",
"=%	c #A57541",
"-%	c #A17442",
";%	c #8E6436",
">%	c #452B16",
",%	c #432F1D",
"'%	c #6E6E6D",
")%	c #7C7C7B",
"!%	c #E2C084",
"~%	c #EDD4A7",
"{%	c #F0DDBB",
"]%	c #ECCF9C",
"^%	c #E9C992",
"/%	c #CDA15E",
"(%	c #DEB671",
"_%	c #A7723D",
":%	c #A27744",
"<%	c #77522C",
"[%	c #815A31",
"}%	c #402817",
"|%	c #1A120B",
"1%	c #747474",
"2%	c #8D8D8D",
"3%	c #555554",
"4%	c #E8C380",
"5%	c #EFDBB7",
"6%	c #E0B974",
"7%	c #B6844A",
"8%	c #835A31",
"9%	c #5F4022",
"0%	c #72502C",
"a%	c #6D4D29",
"b%	c #3A2514",
"c%	c #0A0806",
"d%	c #969695",
"e%	c #B6B6B4",
"f%	c #DFDFDD",
"g%	c #E1E1DF",
"h%	c #5C5B5A",
"i%	c #ECD09F",
"j%	c #E4BE79",
"k%	c #C49554",
"l%	c #81572C",
"m%	c #7C522C",
"n%	c #745029",
"o%	c #583B21",
"p%	c #150E07",
"q%	c #0D0B08",
"r%	c #797979",
"s%	c #8C8C8C",
"t%	c #291D11",
"u%	c #EDD4A5",
"v%	c #E9C98E",
"w%	c #DBB26D",
"x%	c #C19354",
"y%	c #936639",
"z%	c #7C532C",
"A%	c #1E130A",
"B%	c #191009",
"C%	c #1B1109",
"D%	c #40403F",
". + + + + + + + + + + + + + + + + + + + + + + + + + + + + + + + + + + @ # $                     ",
"+ % & & & & & & & & & & & & & & & & & & & & & & & & & & & & & & & & & * = - +                   ",
"+ & & ; & & & & & & & & & & & & & & & & & & & > > > > > > > > > > > > , * ' ) +                 ",
"+ & & ; & & & & & & & & & & & & & & & & & > > > > > > > > > > > > > > ! ~ & { ] +               ",
"+ & & & & & ^ ] & ^ & / & & ( _ : & & ~ > < [ > > > > > > > > > > > > ! } & & ' | 1             ",
"+ & & ; & & 2 3 4 5 5 6 7 & 8 & 9 ; 0 a > b c > > > > > > > > > > d d * 9 & d & e f g           ",
"+ & & ; & & ^ ] & _ & ^ & h i > > j > _ > k [ > > > > > > d d d d d d l m & n 4 & a o +         ",
"+ & & & & & & & & & & & & > > > > > > > > > > > > > d d d d d p 4 4 4 q r s ( a 9 c t u v       ",
"+ & & ; & & & & & ^ ] > < > > w x > 7 > [ > = : y ' z 3 p 4 4 4 4 4 A B C D E F G G H I +       ",
"+ & & ; & & & & & J K , 2 > - L M ~ h d N J O P Q R } ) 4 4 4 A , , S T U ) V W X Y Y Z +       ",
"+ & & & & & & > > [ k ~ `  .g ..+.d i d 3 I h 4 @.#.$.%., , , , S &.&.n , ! ! *.=.t -.;.+       ",
"+ & & ; & > > > > > > d z >.,.'.d p 4 4 4 4 4 4 A ).!.~., , &.n n n n ! {.].^././.z & I +       ",
"+ & & ) & > > > d 3 m (._.!.:.4 I 4 9 K A , , , , , <.!.:.n n n [.].].* ! /./.l l ] & 2 +       ",
"+ & > & d d d d d i }.|.1.2.3.4.@.A *.6 , , , 5.S S | !.6.7.[.* * * * l l l q B U & 8.m +       ",
"+ & d 6 & d d 4 4 K o 9.0.a.o , ( , h }.5.S S S n [.b.c.!.d.* * ^.l q q q B 8.8.8.e.& m +       ",
"+ & d f.& 4 4 4 4 4 g.!.!.@., 5.5.S S S S S [.[.'.'.'.h.!.i.^.l q q B B 8.8.T T j.k.& m +       ",
"+ & 4 & 4 4 A , , , l.!.m.n.S 7 S 5 &.o.[.p.'.a '.q.e ~.!.!.r.B B B 8.T T j.s.t.t.& u.m +       ",
"+ & A v.& , , , 5.5.h.!.1.a ! w.7 7 '.2 a x.y.z./.A.: B.!.!.z.U 8.j.j.j.j.s.u.u.C.h & m +       ",
"+ & , D.& 5.5.S S S E.!.m.F.n } '.m {.G.2 | /.).l i H.I.!.!.J.j.j.j.{ t.K.C.C.L.7.M.& m +       ",
"+ & 5.& S S S S &.&.>.!.!.'.{.{.! ! ! N.l l l S S S S S S S S T N O.S S S S S S S S S 7 +       ",
"+ & S D.& &.n n n n _.!.!.T ! P.Q.^.R.l q ).q S S.S.S.S.S.S.T.U.V._.W.S.S.S.S.S.S.S.S.X.+       ",
"+ & &.N & n n [.[.'.#.!.!.b.].V % { Y.Z.x.`.8.S S.S.S.S.S.S. +.+++@+#+S.S.S.S.S.S.S.S.$++       ",
"+ & n & [.[.'.'.! ].%+!.!.&+/.*+x.B :.=+T 2 j.S S.S.S.S.S.-+;+>+,+'+)+S.S.S.S.S.S.S.S.$++       ",
"+ & '.: & '.].].].* !+!.!.x.B B U 8.T j.j.j.s.S S.S.S.S.~+{+]+^+/+L S.S.~+T.S.S.S.S.S.$++       ",
"+ & {.< & ].* * * l (+_.m._+U k.j.j.:+/ t.K.) S S.S.S.T.<+[+}+|+1+8 S.W.2+3+S.S.S.S.S.4++       ",
"+ & * & * ^.^.l l U U ;.1.5+j.u h 6+7+W 8+C.Z.S S.S.S.9+0+a+b+c+d+S e+2+2+R.S.S.S.S.S.$++       ",
"+ & ^.-.& l q q 8.8.8.f+g+1.t M.z.K.h+4.o i+-.S S.S.j+k+l+m+n+o+p+u.2+2+q+r+S.S.S.S.S.$++       ",
"+ & /.9 & B 8.8.8.T j.t.i !.s+t.C.L.L.L.L.t+u+S S.v+w+x+y+z+A+B+S &+2+2+C+S.S.S.S.S.S.D++       ",
"+ & B & 8.T T j.j.E+r t.+.F+G+H+I+L.z u+J+K+K+7 L+M+N+O+P+Q+R+$+L+S+T+s+$+$+4+$+$+$+$+U++       ",
"+ & T e.& j.j.t.t.` %.C.V+I+~.9.W+6+X+K+Y+J Z+f++ `+ @.@+@@@#@$@$@$@%@&@X+b.b.b.*@=@& m +       ",
"+ & j.e.& t.C.C.C.-@;@L.>@7.V ,@'@K+R.)@!@~@{@]@^@/@(@_@:@<@[@}@$@%@%@o |@1@*@f+f+2@& m +       ",
"+ & { & C.C.C.C.L.L.3@7.7.u+u+4@4@)@)@5@5@6@7@8@9@0@a@c+b@c@d@e@e@D f@d.*@*@f+f+g@& g@m +       ",
"+ & C.q.& L.L.L.3@%.V 4@R.4@4@h@)@5@i@6@Z j@k@l@m@n@o@p@q@r@s@t@u@v@w@w@}.g@g@g@g@x@& m +       ",
"+ & L.h & L.3@7.t+O y@4@@.4@z@J.A@B@C@q@D@E@F@G@H@I@J@K@L@M@N@O@P@Q@R.R.R@#@g@g@g@;@& m +       ",
"+ & L.& 7.7.t+4@4@S@`.5@;@5@T@U@y@V+V@W@X@Y@Z@`@ #.#+#@###$#%#&#*#=#R.]@#@#@#@#@#@& *@m +       ",
"+ & 7.M.& 4@4@)@5@5@5@5@6@6@-#-#-#(+;#>#,#'#)#!#~#{#]#^#/#(#_#:#<#[#z.]@}##@#@#@#@x@& m +       ",
"+ & K+|#& 5@5@5@5@6@6@1#2#V+-#f %@2@3#4#5#6#7#8#9#0#a#b#c#d#e#f#g#h#i#R.j##@#@#@#@x@& m +       ",
"+ & )@& 5@5@6@1#1#1#1#-#k#l#%@m#;@n#o#p#q#r#s#t#u#v#w#x#y#z#A#B#C#D#E#R.R.#@#@#@#@& *@m +       ",
"+ & 6@Q.& 1#1#1#1#-#-#%@F#:+%@G#H#I#J#K#L#s#M#N#O#P#Q#R#S#T#U#V#W#X#Y#R.Z+#@#@#@#@x@& m +       ",
"+ & 1#Q.& -#-#Z#Z#(+%@%@%@1@1@1@1@`# $.$+$@$#$}+$$%$&$*$=$-$;$>$,$'$c.R.)$#@#@#@#@x@& m +       ",
"+ & -#& Z#Z#V !$%@Y+|@b.1@1@1@1@~${$]$^$/$($_$:$<$[$}$|$1$2$3$4$5$6$7$R.R.8$#@#@#@& *@m +       ",
"+ & Z#X+& %@)$X+b.)$X+1@1@9$9$*@&@0$a$b$c$d$e$f$}+g$h$i$j$k$l$m$n$o$p$R.R.q$#@#@#@x@& m +       ",
"+ & r$| & b.o H#1@s$t$9$9$*@g@g@u$v$w$x$y$z$A$}+B$)#}+C$D$E$F$G$H$I$J$R.R.8$#@#@#@x@& m +       ",
"+ & b.& 1@1@9$9$9$9$*@*@g@#@#@8$K$a+L$+$M$g$N$O$P$Q$R$S$T$U$V$W$X$Y$Z$R.= #@#@#@#@& *@m +       ",
"+ & 1@F.& 9$*@*@*@*@#@#@`$`$`$v. %}+.%+%@%}+#%$%%%&%*%=%-%;%>%,%Z '%R.Z+#@#@#@#@#@x@& m +       ",
"+ & 9$=@& *@*@f+#@`$`$`$`$`$`$)%!%~%{%]%}+^%@%/%(%_%:%<%[%}%|%,.1%R.z@}##@#@#@#@#@x@& 2%+       ",
"+ % *@& *@g@`$`$`$`$`$`$`$`$`$3%4%5%~%4%}+}+6%7%8%9%0%a%b%c%m.d%e%j#f%g%g%g%g%g%g%& *@Y.+       ",
"+ c m m m m m m m m m m m m m h%i%_$}+}+}+j%k%l%m%n%o%p%q%r%d.7+r m m m m m m m m m Y.s%+       ",
". + + + + + + + + + + + + + + t%u%v%}+}+w%x%y%z%A%B%C%u@+ + + + + + + + + + + + + + + + D%      "};
